<svg xmlns="http://www.w3.org/2000/svg" width="267" height="64" fill="none" preserveAspectRatio="none"><path fill="#C41721" fill-rule="evenodd" d="M54.36.08c0 .18 1.33.47 1.49.31.16-.16-.01-.24-.8-.35-.42-.06-.69-.05-.69.04zm8.85.3c-.04.07.05.2.2.3.38.2.38.64.01 1.37-.16.3-.28.59-.28.62 0 .04.57.02 1.27-.03.98-.08 1.38-.05 1.79.12.63.27 2.2 0 3.17-.54.73-.4.8-.63.25-.75-.85-.19-.55-.55.35-.44.53.07.79.05.79-.06 0-.08-.02-.15-.04-.15L68.4.53C65.94.23 63.35.15 63.2.38zM76.03.6c-.42.17-.7.18-1.2.07-.63-.14-1.3.02-1.13.28.04.07.7.2 1.44.3 2.45.33.96.97-2.06.9-1.77-.05-2.68.22-2.38.7.13.21 2.8.14 3.13-.09.42-.27.81-.05.58.33-.25.4-.86.56-1.39.34-.88-.35-.93-.35-1.13.07-.42.87-5.81 1.07-8.85.34a2.52 2.52 0 0 0-1.4-.01 2.62 2.62 0 0 1-1.34 0c-.38-.08-.9-.1-1.16-.06-.26.05-2.59 0-5.18-.13l-6.58-.29c-4.77-.17-6.42-.22-9.63-.29-1.9-.04-4.2-.16-5.1-.27-1.66-.2-2.39-.12-2.27.25.1.28 2 .5 4.35.51 1.26.01 3.07.11 4.02.23.95.11 2.25.2 2.88.2 1.14 0 4.6.25 5.5.38.52.08.63.42.2.53-.2.06-.26.16-.2.38.08.34-.24.54-.63.39-.19-.07-.2-.13-.07-.26.3-.3.17-.4-.55-.4-.39 0-1.18-.06-1.76-.14-.58-.08-2.6-.17-4.5-.21-1.9-.04-3.99-.14-4.64-.22-.78-.09-1.48-.09-2.08.01-.5.08-1.18.1-1.5.06-.52-.08-.62-.05-.7.2-.07.23-.26.29-1.34.37l-1.6.12c-.45.03-.7.75-.32.95.43.23 1.52.33 1.93.17.3-.11.81-.1 1.94.06 1.48.2 4.27.34 9.1.42 1.3.03 3.15.18 4.46.36 1.26.19 2.5.29 2.85.24.35-.05 1.43.01 2.41.14.98.12 2.35.2 3.04.2.7-.02 2.04.01 2.99.05.95.05 2.83.12 4.17.17 1.35.05 2.96.15 3.6.23.62.07 1.86.14 2.74.14 2.33 0 3.3.43 2.03.91-.83.32-1.08.3-1.13-.09-.04-.26-.12-.3-.4-.25-.36.06-1 .05-1.73-.03-.28-.03-.37.03-.4.28-.08.51-2.23.49-3.06-.03-.64-.41-.73-.43-.97-.2-.22.23-3.82.22-6.11-.01-1.25-.13-1.83-.13-2.18-.01-.33.1-.67.11-1.1 0-.36-.07-2.07-.14-3.81-.14-1.75 0-3.53-.07-3.96-.14-.43-.08-3.3-.17-6.4-.2-4.22-.05-5.95-.12-7-.3-1.4-.23-1.42-.23-1.84.09l-.43.31-1.33-.25c-2.24-.42-8.24-.55-8.85-.2-.83.5-.62.74.57.65.57-.04 1.2-.02 1.41.04.24.07.95 0 1.86-.19l1.48-.3.9.45c.82.4.94.43 1.56.29 1.2-.28 3.76.16 3.5.6-.13.19-7.12.07-7.65-.14-.2-.07-1.36-.14-2.57-.14s-3.03-.06-4.04-.15c-1.63-.13-1.87-.12-2.2.1l-.37.24.56.28c.53.28.46.69-.1.69-.26 0-.1.4.23.57.54.29 3.08-.36 3.26-.83.2-.52 1.13-.4 1.4.17.2.42.72.47 1.49.16.17-.07.25 0 .28.24.05.33.1.34 2.08.4 1.4.06 2.1.14 2.26.28.18.14.75.18 2.36.16 2.42-.03 3.35.08 3.35.37 0 .24-5.02.3-5.26.07-.13-.13-4.26-.01-9.33.27-1.47.08-2.4.08-2.6-.02-.4-.18-5.3.2-5.9.47-.43.18-.42.19.5.3l2.16.33c1.1.17 1.4.17 2.88-.06l1.65-.26 1.86.37c1.57.32 1.96.35 2.59.22.65-.14.77-.13 1.04.13.3.27.34.27 1.07.05.98-.29 1.14-.28 1.14.06 0 .36.08.4.98.52.68.09.75.07.75-.18a.6.6 0 0 1 .6-.62c.2 0 .26.1.26.43 0 .55-.2.52 4.89.75 4.8.21 6.45.22 7.24.05.55-.12.55-.12.5.3l-.04.41h-9.21l-.05.35c-.05.34-.03.34.8.25.92-.1 1.32.09 1.14.55-.07.18-.41.22-1.91.22h-1.84l-.51.5-.52.51-2.65-.21c-3.93-.32-5-.3-5.06.1-.07.46-.38.48-.55.03l-.15-.4-1.33.1c-.91.06-1.58.03-2.17-.11-1.14-.27-2.2-.04-2.13.46.06.44-.89.47-1.12.03-.22-.4-.45-.36-.94.15-.63.66 1.81 1.04 5.54.86 2.22-.11 4.03 0 6.51.38.43.06.54.03.54-.15 0-.13-.1-.23-.22-.23-.35 0-.24-.28.18-.44.3-.12.54-.1 1.04.1 1.83.68 1.4 1.79-.53 1.35-.5-.12-.75-.1-1.38.14a4.3 4.3 0 0 1-1.48.27c-1.53-.06-2.21.62-1.05 1.05.4.15.63.32.62.47-.04.78-.04.78-.88.95-2.07.4-1.5.72 1.5.83 2.12.08 2.42.2 1.9.71-.18.18-.13.22.66.46.42.14.95.15 2.01.05 1.56-.14 2.43.06 2.34.54-.03.18-.38.24-1.81.32-.98.05-1.88.14-2 .19-.13.04-2.2 0-4.61-.08l-4.4-.16-.49.5-.5.5.78.41c1.96 1.06.69 1.8-1.45.85a5.13 5.13 0 0 0-3.1-.65c-2.21 0-2.2.18.1 1.1 1.6.65 1.77.75 1.81 1.1.07.6.47.73 1.98.62.94-.07 1.36-.05 1.43.07.2.33-.3.57-1.41.66-3.4.29 3.72.8 13.63 1 1.11.02 2.7.1 3.53.19.83.08 2.77.15 4.32.16 2.52 0 2.86.03 3.34.29.3.16.81.29 1.18.29.36 0 .65.06.65.14 0 .08-.36.14-.8.14-1.59 0-.83.36.85.4 1.57.05 2.13.32 1.11.54-.23.05-.5.19-.59.3-.3.35-3.18.29-3.51-.08-.22-.24-.38-.27-1.08-.2a3.6 3.6 0 0 1-1.36-.09c-.52-.17-.56-.16-1.01.28-.44.43-.55.46-1.82.54-.75.05-1.7.2-2.1.35-.59.2-.86.22-1.27.1-.29-.07-.7-.1-.91-.05-.22.05-.65 0-.97-.12a3.32 3.32 0 0 0-1.32-.13 5.04 5.04 0 0 1-1.43-.1l-.69-.17-.53.59-.53.6-1.12-.15c-1.1-.13-1.14-.13-1.81.29-.82.5-.76.5-1.23.12-.32-.25-.5-.28-1.08-.2-.46.07-.82.04-1.04-.08-.28-.15-.5-.12-1.41.21-.76.29-1.2.37-1.52.3-.27-.06-.45-.04-.45.05 0 .19.57.24 6.46.6 5.71.37 8.4.87 7.8 1.48-.31.31-6.76.33-7.57.02-.64-.24-.66-.24-.98.06l-.34.32-.38-.3c-.37-.3-.44-.3-2.05-.14-.92.09-1.77.12-1.9.07-.41-.16-9.24-.26-9.24-.1 0 .44.47.47 6.79.53 8.59.07 13.77.25 14.18.48.39.22.3.46-.15.46-.18 0-.41.06-.53.14-.34.21.19.34 1.01.25.4-.05.71-.03.71.03 0 .07 1.35.13 2.99.14 4.7.03 5.14.05 5.46.34.25.22.5.24 2.5.16 2.37-.1 3.3-.02 3.3.3 0 .3-1.25.4-3.66.3-2.96-.12-4.47.1-4.47.68 0 .5-.28.53-.34.04-.05-.43.08-.42-4.1-.23-2.22.1-2.82.1-3.3-.07-.91-.33-1.47-.27-1.66.16-.2.43-.5.4-.57-.05-.06-.4-1.17-.46-1.47-.1-.24.29-.46.27-.9-.07-.46-.36-.65-.36-1.03-.02-.21.2-.68.32-1.6.42l-1.29.15-.5-.5c-.67-.64-1.7-.7-2.07-.13a.96.96 0 0 1-.63.4c-.31.03-.4.12-.44.43-.09.76-3.2.66-3.2-.1 0-.29-1.1-.3-1.48-.01-.22.17-.35.16-.92-.03-.62-.21-.72-.2-1.36.02-.68.24-.7.24-1.11-.05-.53-.38-.7-.37-1.23.06-.48.4-.35.65.33.65.3 0 .33.05.24.44-.1.49.08.55.72.26.31-.14.45-.13.84.1.36.22.78.28 1.97.31.83.02 1.64.05 1.8.07a6 6 0 0 0 1.1-.08c.87-.12 1.27.01 1.27.43 0 .15-.44.2-1.98.24-1.95.04-1.98.04-2.03.37-.04.3 0 .33.5.29.31-.03 1.4 0 2.44.07 2.52.16 4.54-.77 2.29-1.05-.47-.06-.58-.14-.62-.42-.09-.6.2-.67.85-.18.46.34.77.45 1.23.45.67 0 .88.16.55.44-.34.28-.26.39.51.65.95.31.87.46-.51.88-1.74.54-1.78.54-2.07.28-.37-.33-3.1-.28-3.1.06 0 .28 3.22.64 3.85.43.23-.08.54-.08.72-.01.38.15 5.6.1 6.68-.06.63-.1.77-.07.84.12.11.29.4.3.82.04.27-.17.66-.16 2.68.06 1.65.19 2.45.22 2.64.12.17-.1.41-.1.66-.01.2.07 1.1.1 1.96.07 2.37-.09 3.6.25 2.6.7-.42.2-.5.55-.12.56.3 0 .71.24.6.34-.2.22-3.19.53-3.6.39-.3-.1-.53-.1-.71 0-.71.37.02.77 1.22.65.97-.09 3.6.32 3.6.56 0 .09-.97.19-2.44.25l-2.84.13c-.55.03-.97-.39-.97-.98 0-.6-.2-.7-1.83-.9-1.09-.14-1.22-.13-1.69.15-.44.26-.58.28-1.23.14-1-.22-1.15-.2-1.15.11 0 .24.2.3 1.42.46l1.42.18.55-.38c.58-.4.59-.4 1.33.16.52.4.57.54.22.67-.4.16-2.7.23-3.14.1-.28-.08-1.27 0-2.87.22-3.44.48-5.59.53-6.3.17-.46-.23-.64-.25-1.01-.13-.5.17-1.33.2-5.04.16l-2.42-.01-.56.45c-.32.24-.57.5-.57.56 0 .29 11.62.82 16.11.73 1.07-.02 2.66.04 3.53.13.87.1 3.81.19 6.54.21 2.8.03 5.2.12 5.51.2.36.1.71.1 1 .01.31-.09.86-.08 1.64.04.82.12 1.29.12 1.6.02.48-.17.83-.03.71.29-.1.24-3.7.46-6.07.37-3.34-.13-5.21-.06-5.5.2-.36.33-.51.32-.83-.03-.27-.3-1.73-.7-1.9-.52-.07.06.06.25.28.43.59.47.5.55-.58.5-.94-.05-.97-.04-.97.3 0 .6 3.48.96 5.76.6.72-.1 1.5-.11 2.73 0l1.7.14.72-.38c.63-.35.76-.37 1.25-.23.3.1.67.17.83.17.17 0 .34.12.4.28.16.53 3.3.58 5.85.09a4.77 4.77 0 0 1 2.23-.02c3.8.67 8.12.86 17.3.76 2.97-.03 5.59 0 5.83.07.23.07 2.5.12 5.03.13 2.6 0 4.89.06 5.25.15.36.08 1.65.13 2.88.12a175.37 175.37 0 0 1 6.9 0c2.36-.03 3.28.19 2.96.7-.08.14-5.47.13-12.1-.02a53.92 53.92 0 0 0-5.42.06c-1.14.13-1.35.12-2.16-.15-.7-.23-1-.27-1.37-.17-.25.08-.8.1-1.22.06-.41-.04-1.5 0-2.4.06-1.43.12-1.71.1-2.32-.12-.62-.24-.86-.25-2.39-.11-.93.08-1.96.15-2.27.15L54 57.43c-3.24-.03-6-.1-6.11-.14-.2-.08-6.32-.32-7.41-.29-1.75.05-9.2 0-9.35-.06-.11-.05-.44 0-.72.1-.41.13-.66.13-1.15 0-.59-.17-3.6.01-3.8.23-.36.35.62.48 3.74.48 2.45 0 3.3.05 3.41.18.11.14.7.18 2.28.15 2.09-.03 2.14-.02 2.78.36l.65.39 3.81.03c7.38.04 13.16.2 13.55.35.28.1.47.1.7-.02.23-.12.7-.15 1.54-.08 1.03.08 1.24.06 1.38-.13.16-.21.22-.21.67.02.6.3 4.86.41 6.13.16.54-.11.88-.1 1.27.03.38.13 2.32.2 6.6.24l6.5.07c.24 0 .63 0 .86-.02.24-.02 1.18 0 2.09.03.92.04 1.8 0 1.97-.07.21-.1.6-.09 1.15.02.56.11 1 .12 1.31.03.3-.09.61-.09.83 0 .2.07 4.09.14 9.01.14 4.77.01 9.8.08 11.19.15 1.38.07 7.08.17 12.66.22l10.57.1c.64.01 8.72-.03 9.13-.05 2-.1 8.38-.07 10.41.04 2.47.13 2.6.12 3.4-.18.82-.3.86-.3 2-.07.89.18 1.34.2 1.82.1.53-.11.7-.1.97.1.47.37 10.69.33 12.33-.04l1.08-.24.3.38c.27.33.37.37.8.27a53.4 53.4 0 0 1 4.37-.15l4.31-.05 20.28.07c10.91.04 20.21.07 20.65.05a33.88 33.88 0 0 1 1.65-.03l3.24.03c1.3.02 3.13-.04 4.06-.12 1.45-.12 1.78-.1 2.32.1.62.22.66.22 1.76-.18 1.66-.6 2-1.1.38-.54-.82.28-.86.28-1.34.02-.68-.36-5.45-.4-5.74-.06-.24.3-1 .28-1.33-.02-.23-.21-.85-.26-4.68-.36a93.42 93.42 0 0 1-5.6-.27c-.96-.12-1.27-.11-1.59.05-.33.16-.94.16-3.56.03-1.74-.1-8.02-.18-13.96-.2-5.93-.02-11.85-.09-13.16-.15a17.92 17.92 0 0 0-2.95.02c-.63.15-2.14.07-3.79-.2-.95-.17-1.07-.16-1.24.06-.15.22-.47.25-2.54.25-3.12 0-3.34-.16-1.49-1.11l.72-.37 2.22.27c1.7.2 2.3.33 2.49.52.34.34.81.33 1.2-.05.29-.27.38-.28.84-.13.42.14.66.13 1.34-.07.8-.23 12.21-.1 13.4.16.19.04.65 0 1.02-.1.51-.13 1.38-.14 3.61-.02 2.67.13 2.98.12 3.44-.1.43-.22.7-.23 1.94-.12 1.2.1 8.18.28 9.42.23 1.5-.06 5.48 0 7.21.1 1.45.08 2.3.06 2.74-.05a9.65 9.65 0 0 1 2.57-.03c2.14.15 1.95.2 3.33-.89l.39-.3 1.23.67c1.53.83 3.95 1.04 3.77.33-.12-.46 2.53-.66 3.53-.27.54.22.64.21 1.27-.01.92-.33 1.13-.31 1.3.12.11.3.23.36.78.38.36 0 .73.03.83.03.11.01.16-.12.13-.33-.03-.25.01-.32.17-.26.12.05.53-.02.91-.14 1.21-.4 5.22-.27 6.11.18.94.48 1.42.28 1.42-.6 0-.15-.56-.18-1-.04-.48.14-.61.11-1.44-.3-.89-.46-.94-.46-1.74-.3-.45.1-.95.14-1.12.08-.17-.05-1.08-.01-2.03.08-1.57.16-1.79.15-2.3-.08-.47-.21-.66-.22-1.33-.08-.55.11-.99.12-1.42.02a6.36 6.36 0 0 0-2.23.1c-1.52.22-1.66.22-2.45-.03-.76-.22-1.06-.23-2.78-.1-2.59.21-3.93.2-4.98-.05-.77-.18-1.13-.18-2.8 0-2.69.28-3.06.27-3.4-.1-.3-.35-2.55-.32-5.82.08-1.06.13-1.89.16-2.36.08-.4-.07-1.89-.12-3.32-.13-2.05 0-2.65-.05-2.78-.21-.12-.15-.7-.22-2.2-.26a8.8 8.8 0 0 1-2.56-.28l-.5-.23 1.53-.1c2.55-.19 4.68-.06 5.46.32.8.4.85.4.85.01 0-.3.02-.3 1.83-.2 3 .19 4.95.18 5.46-.03.63-.24 4.01-.23 5.22.02.67.14 1.31.16 2.23.08.72-.06 2.04-.07 2.95-.03a28.3 28.3 0 0 0 3.28-.09 8.7 8.7 0 0 1 2.37 0c.54.1 1.19.1 2.26-.03a6.06 6.06 0 0 1 2.04-.02c.36.1.7.1 1.1-.01.43-.12 1-.1 2.28.07 1.6.2 1.75.2 2.45-.04.57-.2.87-.22 1.24-.12.27.07.97.13 1.56.13a713.73 713.73 0 0 0 9.72-.11c.76-.04.79-.26.09-.56-.45-.18-.71-.2-1.62-.06-1.64.23-9.68.18-10.39-.07-.48-.17-.96-.16-3.37.03-2.79.23-2.8.23-3.6-.07-.7-.27-.92-.3-1.69-.17-.49.07-2.73.13-4.98.12-6.35-.03-10-.03-11.76 0-1.33.03-1.62 0-1.62-.17 0-.28 2.04-.57 3.99-.58 1.54 0 1.68-.05 1.15-.42-.61-.41 1.47-1.03 2.56-.76.7.18.56.95-.16.95-.18 0-.37.06-.42.14-.34.55 2.07-.06 2.55-.65l.42-.5h1.5c1.46 0 4.7-.73 5.16-1.17.47-.44-1.58-.75-3.66-.55-.78.07-2.39.08-3.74.01-1.9-.1-2.45-.08-2.77.08-.34.17-.71.16-2.52-.03-1.95-.22-2.8-.21-3.4.02-.4.15-.26-.3.2-.64.47-.35 9.65-.49 11.57-.17.96.16 1.95.05 1.95-.2 0-.3-1.31-.67-2.4-.67-1.1 0-1.35-.17-.65-.44.25-.1 1.54-.13 3.7-.1 1.82.05 4.17.01 5.22-.07 2.11-.16 2.2-.13 1.86.45-.43.73.33 1.25 1.49 1.02.91-.17 2.63-.16 3.38.03.5.12.69.12.86-.02.33-.28.16-.35-1.2-.5-1.2-.14-1.25-.16-1.25-.5 0-.5 1.05-.65 3.06-.45 1.04.1 2.04.1 3.29 0a18.76 18.76 0 0 1 3.48 0c2.32.2 7-.25 6.6-.65-.05-.05-.7 0-1.45.09-.76.1-1.85.13-2.42.08-4.62-.4-6.86-.48-8.49-.3-1.12.11-3.43-.13-3.43-.37 0-.27.8-.35 3.17-.32 2.63.04 4.6-.23 4.6-.63 0-.33-1.25-.7-1.8-.52-.29.09-.68.1-.9.04-.34-.1-8.95-.07-9.74.03-.42.05-.45-.21-.05-.5.3-.22.91-.26 5.72-.33l5.38-.07.69-.4c.68-.4.7-.4 2.23-.28s2.21.07 2.21-.17c0-.19-.86-.28-4.89-.52-4.22-.25-5.03-.33-5.03-.53 0-.1.39-.1 1.07-.04 1.18.1 1.41-.04.66-.43-.35-.18-1.1-.22-4.17-.22-3.7 0-4.3-.08-3.35-.45.22-.1.81-.13 1.37-.08.54.04 1.14.02 1.33-.05.2-.08.62-.09 1-.02.36.07.94.07 1.3 0 .35-.06 1.98-.15 3.62-.18l3-.07v-.4c0-.66.74-.79 1.44-.25.64.5 1.26.51 2.27.07a9.76 9.76 0 0 1 4.37-.13c.38.14.54.14.76 0 .16-.1.6-.17.98-.17.39 0 .9-.07 1.15-.16.32-.11.65-.11 1.18 0 .5.1.82.1 1 .01.29-.15.72-.05.72.16 0 .07-.16.13-.36.13-.45 0-.46.25 0 .45.44.2.8.07.8-.29 0-.18.19-.37.53-.54.9-.44.85-.97-.06-.82-.38.06-.89.1-1.12.09-.56-.03-3.37-.06-5.76-.06h-2.44c-1.73 0-2.62.07-2.88.25-.37.26-1 .25-1.22-.02a.55.55 0 0 0-.86 0c-.23.28-.53.28-1.32 0-.41-.15-1.38-.26-2.85-.3a17.96 17.96 0 0 1-2.55-.21 1.64 1.64 0 0 0-.76-.04c-.6.12-.59-.3.02-.61.39-.2.53-.21 1-.05.44.14.72.14 1.31 0 .53-.1.9-.12 1.26-.01 1.48.42 6.82-.14 6.3-.66-.17-.17-2.19-.34-4.18-.34-1.65-.01-2.3-.08-3.92-.44-2.3-.52-2.6-.53-2.8-.15-.2.39-1.26.42-1.4.04-.15-.4-.17-.41-3.65-.4-3.42.01-4.06-.08-3.62-.52.18-.18.64-.21 8.35-.5 1.36-.06 2.48-.15 2.48-.21 0-.56 2.31-.86 2.73-.35.22.27.66.28.76.02.06-.15.27-.18.8-.13a2.78 2.78 0 0 0 1.33-.17c.42-.17.79-.21 1.23-.14.7.1 2.93-.2 2.93-.4 0-.22-.75-.3-2-.22-.68.05-1.5.03-1.83-.05a2.21 2.21 0 0 0-1.08.01c-.55.17-3.15.03-3.15-.17 0-.07.18-.12.4-.12.93 0 1.08-.54.35-1.2-.28-.26-.32-.25-1.27.09-1.1.39-1.35.37-1.35-.11 0-.5.23-.6 1.8-.8 1.53-.19 1.44-.2 1.88.52.15.25.21.25 1.14-.12 1.1-.44 1.42-.36 1.34.3-.04.35-.1.38-.8.42-1.85.11-.6.32 1.65.29 2.6-.04 2.89-.15 2.27-.83-.41-.46.44-.8 1.5-.6.54.1 1.24.11 2.17.02a59.3 59.3 0 0 1 4.28-.14c2.83 0 3.1-.04 2.74-.4-.24-.25-4.42-.25-4.95 0-.34.15-.4.14-.6-.15-.2-.3-.32-.32-1.63-.32-.78 0-1.7-.08-2.06-.17-.52-.14-.72-.14-1 .02-.46.24-1.53.09-2-.29-.46-.35-.57-.35-.9 0-.4.45-.62.36-.67-.24l-.04-.54-.98.04c-2.21.1-2.45-.78-.37-1.34l1.39-.37.54.32c.5.3.6.3 1.46.16.56-.1 1.09-.11 1.36-.03.3.08.85.04 1.8-.16l1.37-.28.55.3c.59.34.8.31 2.84-.32 1.04-.33-1.92-1.46-3.04-1.17-.44.12-.75.1-1.45-.1a3.89 3.89 0 0 0-1.28-.2c-.51.1-1.1-.06-1.1-.3 0-.26.15-.3 1.48-.52.65-.1 1.1-.25 1.1-.35 0-.43-.36-.51-2.34-.51-2.49 0-4.51-.6-2.58-.75 1.94-.16.56-.5-2.34-.59a18 18 0 0 1-3.12-.22c-.4-.4.12-.46 3.97-.46 3.75 0 3.94-.01 4.19-.29.14-.16.44-.29.67-.29.54 0 .52-.18-.05-.4l-.46-.17.6-.52c1.29-1.1-.12-1.82-3.08-1.58-1 .08-1.78-.08-1.78-.38 0-.06.66-.13 1.47-.15 7.57-.18 9.91-.35 7.91-.58-1.45-.17-7.12-.55-9.42-.63-3.34-.12-3.03-.34.48-.34 3.45 0 4.77-.24 3.9-.71-.29-.16-5.22-.45-7.53-.45-1.16 0-1.44-.04-1.51-.22-.19-.5.18-.57 2.78-.53l2.52.04.56-.45c.83-.66.74-.71-1.24-.71-1.32 0-1.81-.05-1.85-.18-.25-.94-.32-1.05-.71-1.1a.92.92 0 0 0-.69.21c-.26.25-.3.24-.78-.03-.43-.25-.6-.27-1.2-.15-.48.1-.98.1-1.53 0-.58-.1-.95-.1-1.23 0-.32.12-.56.1-1.13-.1-.67-.25-.76-.25-1.08-.03-.5.33-.67.29-1.35-.29-1.05-.9-.68-1.48.6-.95.99.41 1.02.4 1.84-.28.93-.78.9-.85-.45-.85h-1.15l-.21-.52c-.21-.5-.24-.52-.49-.3-.3.3-.87.3-1.74.06-.4-.11-1.2-.16-2.1-.13-1.6.06-1.47.06-3.95-.06a130.22 130.22 0 0 0-3.52-.1c-1.62-.03-1.73-.05-1.73-.32 0-.24.09-.28.53-.24.33.02.87-.1 1.38-.32.74-.31.92-.34 1.45-.2.44.1.96.1 1.87-.01.7-.1 1.57-.16 1.94-.16.55 0 .7-.06.9-.36.25-.38 1.24-.53 1.43-.22.12.2.6.18.72-.01.18-.28-.17-.45-1.46-.71-2.87-.59-7.85-.74-19.71-.61a40.5 40.5 0 0 1-3.8-.1 18.2 18.2 0 0 0-2.97 0c-1.68.13-1.98.11-2.2-.08-.28-.26-.48-.28-.83-.08-.84.48-7.1.58-9.05.14-.36-.08-.86-.1-1.13-.05-.69.13-1.07-.04-1.07-.46 0-.33-.04-.35-.5-.26-.57.1-.65-.06-.22-.44.44-.4 8.04-.49 11.83-.14 2.35.22 2.9.23 4.32.07.89-.1 1.88-.14 2.2-.09.64.12 13.36.34 14.2.25.8-.1.65-.27-.33-.38-1.07-.13-1.17-.27-.56-.8 1.02-.89-8.34-1.35-14.25-.72-.58.07-1.2.07-1.37 0a2.84 2.84 0 0 0-1.24.1c-1.88.44-5.79.28-5.95-.24-.08-.25-.35-.27-4.65-.27a524.8 524.8 0 0 1-5.86-.04 71.34 71.34 0 0 0-2.3-.01c-.55.01-3.72 0-7.05-.03-7.07-.06-12.11.1-13.4.41-.62.15-1.01.18-1.26.09a6.01 6.01 0 0 0-2.5.34c-.1.06-.17.3-.17.53 0 .75-1.04.7-1.41-.07-.33-.67-1.08-.5-1.18.27l-.07.58-1.4.04-1.39.04-.04-.4c-.04-.33-.14-.41-.67-.54-.76-.19-.82-.36-.18-.58.68-.23.7-.41.04-.7-.54-.25-.57-.25-1.53.11-1.16.44-1.4.46-1.71.1-.28-.3-8.64-.52-12.18-.3-1.15.06-2.7.03-4.32-.1-1.38-.1-4.67-.19-7.3-.19-3.07 0-4.9-.06-5.08-.15-.15-.09-.85-.28-1.54-.43l-1.25-.27-.78.44-.78.44-1.52-.16c-3.05-.32-6.49-.11-6.49.39 0 .29-1.67 1.66-1.87 1.54-.08-.05-.14-.24-.14-.43 0-.5-.2-.57-1.7-.66-1.5-.08-1.97-.33-1.64-.86.28-.45.22-.62-.2-.5-.22.04-1.22-.03-2.24-.17-1.49-.2-2-.22-2.6-.09-.68.15-.8.14-1.16-.12-.4-.28-.43-.28-1.1-.05-.68.25-.68.25-1.32-.13-.6-.35-.66-.36-.97-.14-.31.21-.38.2-1.01-.09-.64-.3-.76-.3-2.04-.16-.74.08-2.97.25-4.95.38-2.89.18-5.3.38-6.23.52-.3.04-.44-.06-.6-.46-.22-.52-.43-.53-1.8-.14a4.7 4.7 0 0 1-3.12.01C78.4.43 76.72.34 76.03.6zm-7.92.28c.53.4-2.14 1.62-2.9 1.32-.43-.16-.11-.44.6-.52.64-.06.71-.1.75-.45.03-.22.15-.42.29-.46.5-.13.99-.09 1.26.11zm-26.12.51c0 .18.39.38.97.49.68.13.62-.28-.07-.48-.67-.18-.9-.19-.9-.01zm9.64.31c-.5.3-.51.3-1.26.05-.78-.27-1-.23-.85.13.26.7 2.97.5 2.97-.2 0-.37-.24-.36-.86.02zm28.88.03c.24.25-.06.44-1 .63-.43.08-1.25-.44-1.26-.8-.01-.3 1.94-.14 2.26.17zm-33.63.01c0 .12.2.25.47.3l.72.17c.46.13.27-.35-.2-.51-.62-.22-.99-.2-.99.04zm11.4.31c-.25.18-.51.2-1.12.13-.54-.07-.78-.05-.78.06 0 .1.22.16.5.16.35 0 .54.09.65.3.24.44 2.58.16 2.58-.3 0-.44-1.34-.69-1.83-.35zm-43.93.22c-.39.24.69.44 3.37.61 1.09.07 1.33-.16.5-.48-.53-.21-3.58-.3-3.87-.13zm46.84 0c-.15.24.14.45.53.4.53-.08.53-.55 0-.55-.24 0-.48.07-.53.15zm16.41-.01c.37 0 .22.4-.22.57-.23.1-.52.33-.65.52-.26.4-1.28.51-1.41.15-.12-.3.19-.52.72-.52.33 0 .51-.08.57-.25.15-.43.37-.63.59-.55.1.04.3.08.4.08zm4.6.73c.22.24.37.28.78.2 1.54-.3 14.8.17 14.26.5-.4.25-4.06.32-8.55.18-5.77-.2-6.97-.03-5.52.72.46.25.54.33.34.38-.52.11-2.6-.28-2.9-.54-.2-.18-.74-.3-1.8-.43-1.88-.22-2-.33-.92-.82.69-.3 1-.36 1.57-.3.4.05.95.03 1.23-.04.84-.2 1.23-.16 1.52.15zm-58.19-.04c0 .16 1.55.43 1.75.3a.19.19 0 0 0 .06-.25C25.7 2.82 24 2.77 24 2.95zm84.94.32c1.21 1.14-.29 1.6-3.44 1.07-1.11-.2-2.04-.35-2.06-.35-.33-.01.2-.36 1.08-.7 1.52-.59 3.8-.6 4.42-.02zm15.82-.12c.87.4.43.56-1.4.52-1.7-.04-1.76-.05-1.8-.36-.06-.38 2.45-.5 3.2-.16zm16.55.48c0 .19-.12.3-.33.33-.32.05-.47-.35-.22-.6.2-.2.55-.02.55.27zm16.51-.16c.12.3-.2.52-.78.52-.6 0-.81-.2-.55-.51.22-.27 1.23-.28 1.33-.01zm73.68.07-.72.09.63.47c.7.52.82.54 2.13.3 1.16-.22 1.18-.52.04-.79a4.3 4.3 0 0 0-2.08-.07zm-99.69.16c.1.17-.17.72-.37.72-.2 0-.32-.38-.22-.65.09-.24.46-.29.59-.07zm-109.97.1c-1.05.17-.88.4.4.53.98.1 1.16-.05.47-.4a2 2 0 0 0-.47-.2 4.19 4.19 0 0 1-.4.07zm32.37.7c5.63.13 5.87.17 5 .9-.72.62-1.2.69-1.71.25-.34-.28-.5-.33-.7-.22-.2.1-.5.06-1.15-.18-.72-.26-.93-.28-1.16-.14l-.56.35c-.23.14-.33.13-.56-.08-.45-.4-1.32-.5-1.32-.13 0 .35-.62.8-1.04.73-.44-.07-.46-.32-.04-.55.64-.34.33-.5-.97-.5s-1.5-.07-1.35-.44c.08-.2.26-.23 1.2-.16.62.05 2.58.12 4.36.16zm-40.2.04c-.27.27.7.7 1.21.53.28-.09.41-.35.18-.37a11.99 11.99 0 0 1-.71-.12c-.33-.07-.64-.08-.68-.04zm12.04.16c-.38.32-.41.52-.1.64.57.22.78.1.78-.41 0-.58-.19-.64-.68-.23zm129.88-.04c.42.38.33.63-.23.63s-.72-.16-.59-.58c.11-.35.47-.37.82-.05zm-94.78.16c.4.22 1.05.26 5.21.32 4.63.07 4.75.08 4.75.36 0 .27-.1.29-1.58.28a299.8 299.8 0 0 0-4.68-.03c-.6 0-1.7 0-2.44-.02-.76-.01-1.53 0-1.73.02-.33.04-.36-.01-.4-.57-.05-.7.12-.78.87-.36zm-42.33.03c0 .28 2.73.53 3.18.29.6-.32.23-.43-1.45-.43-1.04 0-1.73.06-1.73.14zm159.14.17c1.08.22 1.03.35-.17.47-1.42.14-2.16-.1-1.5-.48.33-.2.68-.19 1.67 0zm-95.6.64c2.38.48-3.77.79-7.71.38a7.48 7.48 0 0 0-1.93 0c-.62.13-1.1-.12-.9-.47.12-.18 9.6-.1 10.54.09zm2.56.22c.06.08.04.22-.04.3-.17.17-1.33-.11-1.33-.32 0-.2 1.26-.18 1.37.02zm156.86.72c-1.25.21-3.22.72-3.42.88-.4.34-.16.44.87.35a8.35 8.35 0 0 1 1.9.07c1.02.18 4.98.17 5.17-.03.38-.36-.3-1.11-1.1-1.2a12.8 12.8 0 0 0-3.42-.07zm-180.26.33c.08.4-.19.57-.76.46-.61-.12-.65-.29-.12-.58.5-.27.81-.23.88.12zm5.91-.05c1.3.28.92.47-1.32.64-1.23.1-1.46-.08-.72-.54.46-.29 1.03-.31 2.04-.1zm132.2.12c0 .4-.31.46-.98.15-.79-.35-.75-.42.2-.42.67 0 .78.04.78.27zm-122.62.16c2.63.14 2.37.1 2.37.28 0 .25-2 .5-2.76.35a3.1 3.1 0 0 0-1.35 0c-.58.13-.67.1-1-.2-.5-.47-.48-.78.04-.65.22.05 1.43.15 2.7.22zm-3.74.14c0 .29-.58.36-1.26.16-.84-.26-.66-.46.36-.42.68.04.9.1.9.26zm152 1.52c-.04.08-.35.23-.71.33-.7.2-1.01.09-.85-.33.1-.26 1.65-.27 1.55 0zM6.74 9.68c-.83.86-.2 1.17 1.46.7 1.04-.29 1.05-.4.04-.85-1-.44-.92-.45-1.5.15zm237.13 1.07c-.16.27.04.41 1.02.74l.94.31.32-.3c.4-.37.5-.38.87-.02.49.45 4.26-.15 4.26-.68 0-.18-7.3-.22-7.4-.05zM35.72 11.78c.22.21.08.24-1.5.32-.83.04-1.6.11-1.72.16-.33.14-2.35-.1-2.4-.29-.12-.34 5.27-.52 5.62-.18zm200.29.37c.06.39-.28.66-.87.68-.49.03-.68-.33-.48-.86.14-.36 1.3-.2 1.35.18zm1.87.24c.05.6-.08.66-.62.3-.42-.27-.46-.55-.1-.76.44-.27.67-.12.72.46zM.13 12.34c-.4.26.02.37 2.06.54 2.24.18 2.18.2 2.05-.23-.09-.25-.2-.29-.92-.26-.45.01-1.3-.03-1.9-.08a3.2 3.2 0 0 0-1.28.03zm39.67 2.64c-.18.55-1.2 1-1.74.78-.6-.25-.68-.49-.2-.6 1.85-.4 2.01-.4 1.94-.18zm-14.82.56c-.42.16-.5.4-.22.67.4.4 1.4 0 1.4-.55 0-.32-.5-.37-1.18-.12zm11.6.79c.38.14.26.3-.29.41-.54.1-.88-.06-.7-.34.1-.17.63-.2 1-.07zm2.43.32c.35.3.31.53-.12.72-.49.22-.64.11-.64-.46 0-.73.16-.78.76-.26zm206.38.67c0 .24-.06.26-.54.13-.47-.13-.4-.34.1-.34.3 0 .44.07.44.21zm-229.97.9c.25.14-.1.33-.62.33-.56 0-.8-.17-.64-.44.08-.13.97-.06 1.26.1zm234.78.6c.05.08.03.17-.03.21-.17.1-.9-.07-.9-.21 0-.17.83-.16.93 0zm8.2.66a8 8 0 0 1-.54.14c-.45.1-.4.32.13.52.7.27 3.36-.24 3.14-.6-.07-.12-2.4-.17-2.72-.06zm-10.17.64c.34.1.61.23.61.3 0 .19-1.83.19-1.94.01-.08-.14.49-.61.63-.52.05.03.36.12.7.21zm5.13 5.43c.32.13.28.46-.07.57-.37.12-3.73-.23-3.73-.39 0-.17 3.4-.33 3.8-.18zM2.97 28.1c-.95.41-.87.6.2.5 1-.08 1.28-.25 1-.6-.24-.27-.35-.26-1.2.1zm243.64.3c1-.04 1.8.17 1.8.48 0 .21-.63.52-1 .5a171.54 171.54 0 0 0-2.24-.09c-4.23-.13-4.78-.56-1.2-.92a6.57 6.57 0 0 1 1.42-.02c.2.04.75.07 1.22.05zm7.13 3.5c.15.18.14.26-.04.44-.22.23-1.4-.25-1.4-.56 0-.21 1.25-.11 1.44.12zm3.04.67c.06.43 3.43.54 3.43.12 0-.23-1.02-.31-1.52-.13-.42.15-.57.14-1-.07-.71-.34-.97-.31-.91.08zm4.68-.07c-.9.2.31.43 2.61.5 1.06.04 1.5-.15.92-.4-.27-.1-3.1-.2-3.53-.1zm-3.66 1.43c-.41.17-.14.34.53.34.7 0 .95-.17.5-.35-.27-.1-.77-.1-1.03.01zM3.4 36.08c-.27.26 0 .34 1.12.34 1.26 0 1.63-.18.68-.34-.71-.12-1.69-.12-1.8 0zm254.38 1.5c-1.59.21-1.44.36.54.59 1.48.17 3.04-.06 3.04-.44 0-.3-1.78-.38-3.58-.15zm4.81-.03c-.04.08.02.22.15.33.43.35 4.16.16 4.04-.21-.07-.2-4.07-.32-4.19-.12zM27 39.65c-.06.18-.66.33-1.43.36-.56.01-.86-.72-.37-.89.3-.1 1.86.35 1.8.53zm-5.56.51c-.12.08-.18.17-.15.2.12.12 1.3-.08 1.3-.21 0-.17-.89-.16-1.15.01zm216.23 1.69c.97.13.57.33-.68.33-1.16 0-1.5-.1-1.3-.43.1-.15.4-.13 1.98.1zm14.01.72c-.3.3-.02.44.98.53 1.8.15 2.14-.21.43-.47-1.27-.19-1.29-.19-1.41-.06zm-231.4.48c0 .16-.76.58-1.07.58-.14 0-.22-.14-.22-.36 0-.34.05-.36.64-.36.36 0 .65.06.65.14zm3.02.23c.18.18.17.2-.1.2-.46 0-.76-.15-.76-.38 0-.25.52-.14.86.18zm195.46 1.27c.1.24.35.39.88.51 1.1.27.96.49-.41.67-.66.09-.76.06-1.32-.38l-.6-.48.45-.4c.5-.45.77-.42 1 .08zm-198.2.16c.23.12.79.2 1.46.2 1.24.01 2 .13 2 .32 0 .07-.1.13-.22.13-.3 0-.27.19.07.5.47.42.22.5-1.42.5H20.9l-.45-.57c-.32-.39-.62-.6-.96-.66-.58-.1-.65-.3-.18-.49.47-.19.85-.17 1.26.07zm10.59.42c.58.25.6.44.14.98-.44.5-.54.5-1-.05-.78-.92-.32-1.42.86-.93zm5.39.37c0 .08-.17.14-.36.14-.48 0-.46.21.07.6.83.62.56.82-.75.53-1.09-.24-1.14-.35-.48-.92.57-.48 1.51-.7 1.51-.35zm4.45 1.02c0 .07-.35.13-.79.13-.77 0-1.18-.41-.6-.61.23-.08 1.4.32 1.4.48zm1.73-.02c0 .5-.1.58-.61.48-.48-.09-.5-.27-.07-.62.46-.4.68-.35.68.14zm195.63.58c0 .1-.72.15-1.87.15-1.15 0-1.87-.06-1.87-.15s.72-.14 1.87-.14c1.15 0 1.87.06 1.87.14zm-191.4.8c1.16.51 1.05.69-.41.63-1.41-.06-2-.38-1.46-.79.4-.3.95-.25 1.87.16zm-11.57-.04c.12 0 .43-.05.69-.1.36-.1.48-.06.55.13.13.33.09.35-1.03.55-.99.18-1 .19-1.07.68-.06.44-.13.51-.5.54-.67.06-.92-.16-.59-.53.32-.35.26-.44-.37-.57-1.18-.24-.1-.93 1.24-.78.48.05.96.09 1.08.08zm6.05.33c0 .68-.14.71-1.86.33-1.84-.42-1.85-.6-.05-.7a67.01 67.01 0 0 0 1.65-.11c.2-.02.26.08.26.48zm3.02-.1c0 .16-.5.3-1.04.31-.39 0-.62-.17-.45-.34.14-.14 1.49-.1 1.49.04zm190.92.95c-.21.33 3.11 1 3.57.72.23-.14.14-.48-.18-.65-.38-.2-3.28-.26-3.4-.07zm13.87-.11c-.05.05-.44.1-.85.1-2.46.05-.83.6 1.94.64 2.37.05 2.7.03 2.7-.17 0-.32-.55-.42-1.3-.25-.51.12-.76.09-1.36-.14-.78-.3-.99-.33-1.13-.18zm-11.8 1.57c-1.25.2-1.34.26-1.42.78-.04.31-.14.37-.76.47-1.19.19-1.39.25-1.28.42.12.2 4.04.05 4.29-.15.08-.07.62-.27 1.2-.44.89-.26 1.38-.58.89-.58-.09 0-.4-.17-.68-.36-.6-.4-.66-.41-2.25-.14zm-200.48.2c.35.22.12.3-1.25.39-1.32.1-2.05 0-2.05-.23 0-.24 2.95-.38 3.3-.16zm5.92.1c1.11.1 1.36.22 1.23.56-.07.17-.2.22-.42.17-.18-.05-.82-.12-1.42-.18-1.24-.1-1.5-.22-1.37-.57.08-.19.2-.23.56-.16.26.04.9.12 1.43.17zm201.09.19a1.4 1.4 0 0 0-.15.36c0 .17 3.2.01 3.27-.16.1-.3-.89-.52-1.56-.34-.43.12-.64.12-.75.01a.5.5 0 0 0-.81.13zm-192.78.02c.58.2.57.38-.05.64-.9.38-1.19.1-.62-.62.18-.21.11-.21.67-.02zm2.68.42c0 .25-1.11.65-1.45.52-.23-.09-.16-.65.1-.82.26-.16 1.35.08 1.35.3zm1.91.02c-.05.34-.47.68-.63.51-.06-.05-.03-.26.06-.46.2-.45.64-.49.57-.05zm2.73-.05c.03.1-.06.21-.2.26-.15.04-.42.15-.6.24-.23.11-.37.11-.48 0-.22-.22-.02-.47.38-.47.19 0 .38-.07.43-.15.12-.19.4-.11.47.12zm2.47 0c.67.38.56.6-.28.6-.78 0-1.05-.24-.72-.64.23-.28.46-.28 1 .03zm3.75.23c0 .36-.36.48-1.26.41-1.46-.11-1.32-.61.18-.61.82 0 1.08.05 1.08.2zm-23.1.52c.11.11-.9.72-1.2.72-.2 0-.36-.65-.23-.87.11-.17 1.2-.06 1.42.15zm172.95.25a3.58 3.58 0 0 1-.17.63c-.08.2.05.25.86.34 1.07.11 1.23.05.88-.33-.55-.61-.35-.75 1.17-.75 2.2 0 2.49.35.64.8-1.12.26-1.17.3-.8.58.45.33.03.57-.67.39-.33-.09-.77-.1-.98-.05-.76.22-4.27.1-4.27-.13 0-.16.25-.25.93-.33a30.2 30.2 0 0 0 1.51-.22l.58-.11-.47-.25c-.6-.32-.59-.44.07-.72.75-.3.8-.3.72.15zM2.87 53.55c0 .2.95.3 2.84.3 1.47 0 1.76-.03 1.76-.2 0-.19-.35-.22-2.3-.22-1.27 0-2.3.05-2.3.12zm8.91.02c0 .22.52.43 1.08.43 1 0 1.8.3 2.02.74.25.47.77.66 1.2.42.4-.21.38-.4-.05-.6-.66-.3-.46-.6.32-.5.79.1 1.11.41.88.84-.2.37 3.03.9 3.38.55.23-.23.01-.66-.45-.86-.5-.22-.55-.48-.11-.56.14-.03.87.19 1.6.49 1.11.45 1.43.52 1.75.4 1.5-.52-2.34-1.63-4.27-1.23-.63.13-1.47.12-3.9-.05-3.7-.25-3.45-.25-3.45-.07zm30.33.25c-.06.31-.7.44-.7.15 0-.28.15-.4.47-.4.19 0 .26.08.23.25zm18.3.4c0 .14-.7.8-.85.8-.3 0-.17-.51.16-.68.35-.17.68-.23.68-.13zm-7.13.5c.1.17-1.16.92-1.36.8-.16-.1-.2-.7-.05-.84.15-.15 1.31-.12 1.4.04zm130.02.25c.05.05 0 .2-.13.34-.12.13-.2.33-.18.44.03.13-.12.22-.43.24-.26.03-.46-.02-.46-.1 0-.09.16-.16.36-.16.38 0 .45-.13.2-.39-.1-.09-.12-.23-.07-.31.1-.18.56-.22.7-.06zm35.33 1.98a.4.4 0 0 1-.15.3c-.2.13-.48-.15-.36-.35.14-.23.51-.2.51.05zm-198.5.09c-.44.06-1.3.11-1.91.12-.64 0-1.11.08-1.11.16 0 .2 3.38.19 3.75 0 .26-.15.39-.46.17-.41l-.9.13zm77.07.08c2.57.2 3.27.2 3.53.06.27-.14.69-.14 2.03 0 .93.1 2.04.13 2.46.08.42-.05.93-.02 1.13.05.26.1.66.08 1.37-.08 1.4-.32 5.97.23 5.53.66-.17.18-17.33.2-19.08.03-1.5-.15-1.61-.23-1.04-.68.51-.42.14-.41 4.07-.12zm47.29.32c-.3.96-.32.96-3.88 1-1.89.02-3.25-.02-3.25-.1 0-.23 1.83-.76 2.29-.66.23.05.75-.01 1.2-.14 2.1-.61 3.82-.66 3.64-.1zm-27.34.02c.55.07 1.41.3 1.9.5 1.3.53 1.9.5 2.45-.14.5-.57.88-.63 1.26-.21.29.32.66.36 1.1.13.19-.1.6-.1 1.39.02.98.15 1.17.15 1.58-.07.26-.13.53-.2.61-.15.2.12 3.24.13 4.03 0 .65-.1 1.43.26 1.43.66 0 .09-1.52.13-4.13.12-2.73-.01-4.48.04-5.15.16-1.98.35-9.07-.05-9.23-.52-.16-.48 1.14-.71 2.76-.5zm19.5.6c0 .7-.1.74-1.31.62-2.18-.22-2.23-1.18-.06-1.16l1.36.02v.53zm14.09-.44c1.09.35 6.15.36 6.5.02.27-.27.9-.21 1.32.12.34.27.45.29 1.1.15.92-.2.86-.21.86.13 0 .55-.49.61-3.47.46a35.06 35.06 0 0 0-3.8-.02c-.55.06-1.49.06-2.08-.01a28.49 28.49 0 0 0-1.15-.11c-.32.02-.43-.08-.43-.37 0-.57.25-.65 1.15-.37zm-4.75.06a.07.07 0 1 1-.14 0 .07.07 0 0 1 .14 0zm26.06.23c1.15.61-1.38 1.17-2.82.62-.32-.13-.28-.43.1-.71.35-.26 2.19-.2 2.72.09zm-6.18.05c.13.06.47.04.76-.04.56-.16 1.52.07 1.63.38.04.13-.54.17-2.17.17-1.22 0-2.81.04-3.53.1-1.45.1-1.67-.03-.87-.52.46-.28 3.55-.34 4.18-.09zm-142.18 1.6c-.04.04-.55.1-1.13.1-1.53.05-1.48.34.09.47 1.29.11 1.62.01 1.46-.42-.1-.23-.27-.3-.42-.15zm8.88.35c-.78.82-.36 1.01 2.22 1.01 1.9 0 2.49-.13 1.7-.37a2.55 2.55 0 0 1-.77-.51c-.66-.63-2.6-.71-3.15-.13zm6.7.31c-.46.82-.23.99 1.31.99a19 19 0 0 1 2.53.23c.77.12 1.74.2 2.16.15.53-.05 1 0 1.55.2.61.21.88.24 1.18.13.21-.09.68-.11 1.04-.07.35.05 1.67.15 2.93.22 1.26.08 2.37.21 2.47.3.13.1.35.1.77 0 1.24-.34 6.97-.64 7.42-.39.44.24 2.91.25 3.68 0 .51-.15.88-.17 1.65-.06.93.13 1.04.12 1.63-.21.73-.41 1.1-.45 1.22-.13.22.57 1.66 1 3.54 1.04 2.51.06 3.39.07 4.47.05h1.5c.32.02 1.07-.02 1.68-.09a5.47 5.47 0 0 1 1.8.06c.59.14.91.12 2.06-.12a4.68 4.68 0 0 1 2.8.01c1.13.23 1.53.26 1.94.14.35-.1.82-.1 1.45-.02 1.01.15 16.66.2 17.03.06.86-.33-1.96-1.79-3-1.55-.54.13-.7.11-1.04-.12-.65-.42-1.54-.35-1.9.15-.19.26-.47.44-.73.48-.46.07-.54-.01-.27-.28s.02-.61-.45-.61c-.33 0-.48.09-.6.36-.2.43-.44.45-1.07.06-.8-.5-3.5-.36-3.77.2-.2.4-.2.4-1.44.35-1.35-.04-1.82-.39-.75-.54 1.38-.2.3-.7-1.65-.76-2.41-.07-5.35.53-3.13.64.87.05 1.08.04 1.73-.07.74-.12.8.08.14.48-.87.53-2.86.34-3.06-.3-.2-.62-.75-.79-2.53-.74l-1.93.04h-5.25l-4.96.01-.74.42c-.88.5-1.17.53-1.23.1-.06-.44-2.24-.63-4.85-.42-1.44.11-1.9.1-2.35-.06a5.2 5.2 0 0 0-3.5.17l-.65.38-.33-.3c-.6-.58-3.8-.93-8.07-.9l-3.52.03c-1.7.01-3.76-.01-4.56-.05-1.42-.08-1.47-.07-1.51.23-.07.48-.52.48-.58 0-.04-.4-.07-.42-.98-.45l-.93-.04-.34.6zm11.64.41c0 .08-.23.15-.5.15-.28 0-.5-.07-.5-.15 0-.08.22-.14.5-.14.27 0 .5.06.5.14zm59.46.15c-.7.28-.58 1.08.14.92.25-.05 1.08-.1 1.84-.11.77-.01 1.44-.07 1.5-.13.24-.24-.27-.46-1.12-.48-.5-.01-1.09-.1-1.3-.18-.48-.2-.64-.2-1.06-.02zm23.03-.02c-1.29.09-1.29.09-1.34.5l-.04.41.9-.05c.74-.04.92 0 .92.16 0 .35-.86.42-6.26.5-4.49.05-5.11.1-5.15.29-.04.16.06.23.35.23.23 0 1.38.07 2.57.15 3.66.26 12.91.18 13.52-.11 1-.48.66-.62-1.42-.62-1.56 0-1.96-.04-2.1-.22-.34-.4.04-.5 2.35-.6 2.24-.1 2.8-.26 1.66-.5-.42-.1-2.62-.16-3.51-.1a4.2 4.2 0 0 1-.72-.06c-.24-.03-1.01-.02-1.73.02zm-16.14.41c-1.52.32-1.34.53.36.43 1.92-.1 4.06-.4 4.06-.55 0-.2-3.3-.11-4.42.12zm12.5-.08c.1.28.5.46.78.35.27-.1.27-.11 0-.31-.34-.25-.85-.28-.77-.04zm12.06-.04c0 .22.3.26 1.87.23a8.26 8.26 0 0 1 2.42.24c1.16.32 1.9 0 1.04-.45-.34-.18-5.33-.2-5.33-.02zm10.87 0c-.04.07.02.17.13.21.12.05.22.25.22.45 0 .4.07.44.92.56.52.08.54.07.32-.18-.17-.18-.2-.4-.15-.71l.1-.46h-.73c-.4 0-.77.06-.81.13zm3.13.23c-.37.27-.22.36.87.46.52.05.95.14.95.2 0 .2-1.38.4-2.24.32l-.85-.08.32.35c.18.2.33.43.33.52 0 .32.31.32 2.54.02 2.47-.34 2.6-.38 2.33-.83-.39-.62 4.13-.87 5.11-.28 1.2.7.91.78-2 .55-1.68-.13-2.27.02-1.82.46.6.6 6.53.1 6.13-.53a1.34 1.34 0 0 1-.19-.75l.05-.4-1.8-.05a65.29 65.29 0 0 0-2.37-.03c-1.34.04-1.86.04-4.4-.04-2.14-.07-2.74-.05-2.96.1zm25.57.5c-.47.55-.71.72-1.17.8-.68.11-.84.3-.48.58.34.26 6.6.28 13.34.05 3.46-.11 5.35-.11 7.52.02 2.2.12 3.3.12 4.54 0 1.19-.12 2.59-.13 5.2-.02 3.23.13 3.63.12 4.23-.1 1.17-.43.76-.53-2.02-.49-2.45.04-2.68.02-3.6-.3-.81-.29-1.01-.31-1.22-.15-.2.15-2.56.18-12.02.19h-11.77l-.82-.65c-1.02-.8-1.01-.8-1.73.06zm-11.31-.41c-.11.17.2.44.44.37.08-.03.16-.16.19-.29.05-.28-.47-.34-.64-.08zm4.5.1a1.34 1.34 0 0 0-.27.53c-.05.27-.2.3-2.14.36-2.23.08-2.48.2-1.33.6.95.34 6.8.38 7.08.06.16-.2-.5-.8-.9-.8-.05 0-.1-.1-.1-.22 0-.14.14-.21.4-.22.21 0 .48-.06.6-.13.38-.24.03-.34-.62-.17-.52.13-.74.12-1.15-.06-.69-.28-1.3-.27-1.57.04zm28.52-.12a3.99 3.99 0 0 1-.9.13c-.3.01-.54.1-.54.18 0 .11.21.14.67.07.36-.05.85-.09 1.09-.09.26 0 .4-.06.36-.17-.07-.23-.25-.25-.68-.12zm-88.54.87c-.88.14-1.51.37-1.51.57 0 .2.75.18 1.87-.06.88-.2.96-.19 1.46.1.45.25.66.28 1.47.19 1.5-.16 1.13-.56-.65-.73l-1.42-.13c-.27-.02-.82 0-1.22.06zm34.16.55c0 .2.12.26.8.38.5.09.54.07.35-.11-.27-.27-1.15-.47-1.15-.27zm3.2-.02c-.33.13-.18.33.24.33.51 0 .88-.13.88-.3 0-.14-.8-.16-1.11-.03zm67.1 0c-.38.38.3.48 3.28.48 2.97 0 3.66-.1 3.28-.48-.12-.13-6.44-.13-6.56 0zm-122.08.76c-.12.07-.34.17-.5.22-.16.05-.21.14-.14.21.2.2 1.65-.13 1.65-.37 0-.22-.66-.26-1.01-.06z" clip-rule="evenodd"/></svg>