<svg xmlns="http://www.w3.org/2000/svg" width="246" height="111" fill="none" preserveAspectRatio="none"><path fill="#1B1B1B" fill-rule="evenodd" d="M134.1.5c-.6.3-3 .6-5.1.7-2.8.1-4.3.6-5 1.4-2.1 3-17.8 6.4-17.8 4 0-1.4-6-2.6-8.1-1.7-4.3 1.8-7.2 2.3-6.5 1 .3-.7 0-1.2-.7-1.2-.8 0-1.4.5-1.4 1.2 0 1.4-7.5 1.8-9.1.4-1.9-1.6-7.3-1.8-7.7-.3-.7 2.4-8 2.6-9.6.4-.7-1-1.9-1.6-2.7-1.5-.9.2-3.2-.5-5.3-1.5-3.8-1.9-7.2-1.6-7.2.5 0 .5-.5.7-1.1.5-.6-.1-1.4.4-1.8 1.1-.9 1.9-6.5 2.5-11 1.3S23 5.6 22 6.8c-.4.5-2.1.9-3.8 1-6.3 0-10.7 4.1-5.3 4.9 1.6.2 1.5.2-.6.3-2 0-2.6.4-2.6 1.6 0 1-.7 1.5-2.4 1.5-1.5 0-2.4.4-2.4 1s-.6 1.4-1.2 1.7c-1.8.9.7 3.5 4 4.3l2.6.6H7.7c-2.6.1-3 3-.8 6.5.2.5-.9.8-3.1.8-4 0-4.2 4.2-.4 5.7 1.4.6 1.4 1-.1 2.4-1.9 1.8-.8 3.2 2.4 3.2 2.3 0 2.1.6-.6 2.1C-.5 47.5-2 58.2 3.2 57.7c1.7-.1 3 0 3 .4 0 .3.8 1 1.9 1.6 1.2.7 2 2.4 2.2 5.2.2 2.3.6 4.4 1 4.8.5.3.2.7-.6.9-1.1.2-.9.5.7 1.1 2.2.9.4 2.5-2.4 2.3-5-.5-6.6 2.1-2.3 3.9.8.3 1.3 1 1 1.4-.3.4 0 1 .8 1.5 1 .6 1 1 0 1-1.9.4.7 7.2 3 8.1 1.2.4 1.6 1.1 1 1.7-.6.9-.2 1 1.8.7 2-.4 2.8-.1 3.7 1 .6.8 2 1.6 3 1.8 1.4.3 1.7.8 1.1 2-.6 1.3-.4 1.5 1 1.2 1.1-.2 2.6 0 3.5.6 1.3.8 1.1.9-.8.7-3-.3-3.8 1.7-1.3 3l4.8 2.6c3.1 1.9 8.8 1.7 16.9-.4 1.9-.5 4-1 4.8-1 .8 0 1.7-.3 2-.7.5-.5 1.2-.4 2.5.4 1 .7 2 1 2 .6 0-.3.5 0 1.2.5.7.6 1.7 1 2.2.8.6-.2.8.2.4.9-.5 1 0 1.2 4.3 1.3l6.4.1c.8 0 1.9.5 2.3 1.1.7.9 1.4 1 3.3.5 1.4-.4 2.4-.4 2.4-.1 0 .9 5.8 1.3 8.5.6 1.9-.5 2.9-.4 4.5.3a8 8 0 0 0 7.5 0c1.7-.8 2.5-.9 3.6-.4 2.3 1.2 13.4 1 17.8-.4 3.2-1 5.7-1.1 13-1 11.4.3 15.4-.7 10.9-2.6-1.6-.7-2.4-1.5-2-2 1-1.3 2.2-1.3 4.5-.1 1 .5 2.4.9 3 .9.8 0 1.4.5 1.4 1.1 0 1.2 3.1 2.9 4.2 2.3.4-.2 2.4 0 4.4.2 7.2 1 20 0 20-1.6 0-1 .6-1.4 2.2-1.4 1.3 0 2.7-.3 3-.6a13 13 0 0 1 4.9-.6 13 13 0 0 0 4.7-.6c.4-.4 3-1.2 5.6-1.9 4-1 4.6-1.4 4-2.6-.7-1.6 3.3-2.3 11.9-2.1 4.9 0 6.1-.5 8-3.6.3-.5 3.5-1.6 7-2.5 8-2 10.5-3.3 11.4-6.2.3-1.3 1.1-2.6 1.7-3 1.8-1.2-4.7-7-7.4-6.6-2.9.4-3.2-6.2-.3-8.2 2-1.5 2-5.4.2-6.9-1.2-.9-1-1.4.6-2.6 2-1.6 2.7-5.5 1-5.9-2.2-.5-6.4-8.7-5.5-11 .7-2 .6-2.2-1.2-1.8-2.2.4-1.9 0 2.2-2.8 2.7-1.8 3.8-8.8 1.7-10.8-.8-.7-.7-1.3.3-2 1.2-.7 1.1-1-.3-1.7-1.4-.7-1.7-1.9-1.3-5 .8-5.2-1-7.7-5.8-8.2a15 15 0 0 1-4.7-1.2c-.8-.4-2.1-.8-3-.8s-1.8-.5-2.2-1.1c-2.7-4.2-13.8-6.3-17.2-3.2-1 .8-1.6.8-4.2.2-4.6-1-5-1-8.1 1.8-2.8 2.3-3.2 2.5-9.4 2.6l-6.4.2 2.8-1.1c1.7-.7 2.5-1.6 2-2.1a64 64 0 0 0-24 .7c-1.6 1-1.8 1-4.4-.6-1.7-1-3.5-1.5-4.6-1.3a19 19 0 0 1-6.2-.8c-5.1-1.5-4.7-1.4-6.2-.7z" clip-rule="evenodd"/></svg>