<svg xmlns="http://www.w3.org/2000/svg" width="60" height="60" fill="none" preserveAspectRatio="none"><path fill="#C41721" fill-rule="evenodd" d="M29.3.03a24.5 24.5 0 0 0-5.6.92l-.77.2a.95.95 0 0 0-.23.07c-.06.05-.86.31-.9.3-.06-.03-.43.1-.59.19-.16.1-.41.2-.58.24-.08.02-.34.12-.57.22-.24.1-.44.17-.45.16-.01 0-.1.02-.2.07l-.23.07c-.03-.01-.23.08-.52.23-.27.13-.51.24-.54.24a.39.39 0 0 0-.16.07.33.33 0 0 1-.17.06c-.06 0-.56.22-.64.3-.02.01-.21.12-.43.22l-.96.55-.7.43a2.81 2.81 0 0 0-.31.2c-.32.23-.92.62-.96.62a.71.71 0 0 0-.2.15l-.37.31a27.48 27.48 0 0 0-2.19 1.86c-.3.27-.53.48-.53.46 0-.05.63-.68 1.03-1.03.14-.14.28-.27.3-.31.06-.17 1.33-1.25 2.17-1.86a40 40 0 0 1 5.9-3.41c.56-.24.46-.27-.14-.04a43.36 43.36 0 0 0-2.6 1.16c-.11.03-1.14.62-1.9 1.08a26.34 26.34 0 0 0-4.14 3.12 31.2 31.2 0 0 0-1.97 2c-.33.44-.5.67-.62.8a.55.55 0 0 0-.12.2c0 .07-.1.22-.14.22-.05 0-.17.15-.5.64a9.16 9.16 0 0 1-.38.54c-.27.32-.85 1.3-.85 1.44a.37.37 0 0 1-.08.16.34.34 0 0 0-.08.19c0 .06-.09.22-.32.58a8.06 8.06 0 0 0-.4.67c-.04.1-.1.21-.15.26a2.03 2.03 0 0 0-.18.27 8.21 8.21 0 0 1-1 1.5c-.09.2-.45.9-.51.95a8.88 8.88 0 0 1-.58 1.22.39.39 0 0 0-.06.16c0 .03-.07.21-.15.4a19.6 19.6 0 0 0-.53 1.41l-.17.48c-.06.15-.15.6-.12.6.04 0 .11-.13.14-.24l.07-.35c.04-.18.06-.23.1-.23.07 0 .12-.12.3-.6.24-.69.5-1.3.59-1.4.05-.06.36-.74.36-.8 0-.15.92-2.01.98-1.98.03.02-.1.33-.34.83-.1.2-.2.44-.23.53l-.2.54a48.46 48.46 0 0 0-.76 1.85 8.2 8.2 0 0 0-.2.54 5.13 5.13 0 0 1-.18.46c-.04.08-.12.35-.1.36.05.05.17-.16.23-.41.1-.4.12-.44.25-.71l.12-.27.04-.07a.53.53 0 0 0 .08-.1c.06-.08.05.03-.01.17-.05.1-.2.61-.2.66 0 .01.03-.01.06-.05.06-.07.06-.07.01.11-.01.06-.06.08-.06.02 0-.07-.06.03-.12.23-.1.27-.11.33-.07.3.01 0 .04-.06.06-.13.03-.12.1-.22.1-.15 0 .06-.15.54-.2.65a1.81 1.81 0 0 0-.1.27 2.06 2.06 0 0 1-.13.35c-.08.15-.08.17-.05.24.03.05.03.09 0 .15a8.59 8.59 0 0 0-.1.46c-.12.47-.38 1.47-.54 2a1.36 1.36 0 0 0-.05.28.68.68 0 0 1-.04.2c-.06.15-.18.63-.18.72 0 .11-.18 1.09-.23 1.22-.1.27-.17 1.02-.1 1.05.03 0 .04.05.04.12 0 .06.01.1.03.1.01 0 .02-.09.02-.2 0-.36.04-.47.1-.31.04.07.04.17 0 .59a5.46 5.46 0 0 0 0 1.48c.1.4.14 1.48.06 1.5-.04.01-.05.03-.04.06.14.33.1 1.6-.04 1.6-.1 0-.1.1.02.27.04.07.06.11.04.17 0 .06 0 .1.04.14.04.04.05.09.04.22a.5.5 0 0 0 .02.2c.02.02.06.23.1.52a.69.69 0 0 0 .04.15c.06.15.08.27.03.3-.04.04 0 .34.05.34.07 0 .08.13.03.2-.06.09-.06.09 0 .27.05.2.07.5.03.5-.02 0-.09-.32-.12-.53l-.04.02c-.03.03-.04.02-.08-.05-.05-.1-.13-.12-.1-.02.05.22.07.37.04.4-.03.04 0 .25.16.85.05.2.05.27 0 .21a5.92 5.92 0 0 1-.4-1.3 7.83 7.83 0 0 0-.09-.39 22.78 22.78 0 0 1-.07-.3c-.04-.15-.16-.3-.2-.24-.01.03-.02.02-.04-.04-.04-.1-.04-.17.02-.23.05-.05.05-.05-.03-.27-.07-.24-.12-.32-.1-.17.02.05.01.09 0 .09-.03 0-.1-.31-.17-.75a10.26 10.26 0 0 0-.1-.54 2.46 2.46 0 0 1-.04-.38 3.69 3.69 0 0 0-.05-.44 4.8 4.8 0 0 1-.06-.56 4.15 4.15 0 0 0-.05-.54 1.38 1.38 0 0 1-.03-.35 4.83 4.83 0 0 1-.05-1.55 1.03 1.03 0 0 0 .04-.27c0-.11.01-.16.05-.2.08-.06.09-.05.07.1-.02.18-.02.27 0 .46.02.12 0 .16-.02.19-.05.04-.07.51-.02.51.01 0 .03-.04.03-.1 0-.04 0-.09.02-.09.03 0 .04.15.07.61.01.15.03.3.05.33.05.1.06.82 0 .88-.06.07-.03.3.06.36.1.07.23-.14.13-.22-.04-.04-.06-.25-.02-.29.03-.02.01-.97-.02-1.59-.03-.59.03-1.15.08-.68 0 .05.02.09.03.09.01 0 .02-.07 0-.16-.01-.2-.02-.23-.05-.2-.11.06-.2-.48-.1-.56.03-.03.04-.09.04-.2 0-.12.01-.18.05-.23.06-.08.08-.46.03-.51-.05-.05.04-1.45.1-1.65.02-.05.04-.31.05-.59 0-.33.03-.6.06-.83.07-.38.08-.58.02-.58-.03 0-.1.41-.14.95a1.9 1.9 0 0 1-.05.31 4.2 4.2 0 0 0-.1.89c-.02.18-.03.39-.05.44l-.05.47-.04.4c-.03.04-.1-.05-.1-.14 0-.05 0-.09-.02-.09-.01 0-.02.15-.02.34 0 .28 0 .34-.04.39-.04.04-.05.1-.05.36 0 .33-.01.48-.05.48-.02 0-.03-.24-.03-.54 0-.49 0-.55-.04-.58-.04-.03-.04-.06-.02-.25.02-.12.04-.3.04-.42 0-.3.05-1 .08-1.14.07-.25 0-.57-.1-.48a11.82 11.82 0 0 0-.18 2.27 23.2 23.2 0 0 0 .03 3.48l.08.58c.03.2.07.56.08.78a8.2 8.2 0 0 0 .1.87c-.01.06 0 .12.01.14.02.02.09.33.15.68.15.8.3 1.5.42 1.86.03.1.06.26.06.39.01.24.05.37.1.37.03 0 .07.06.1.2a18.16 18.16 0 0 0 .3.96c0 .03 0 .06.02.07.01 0 .06.12.1.25l.1.27.08.22.19.47.3.75c.16.44.3.77.62 1.39l.19.41c.03.1.08.2.12.25.04.04.07.1.07.12l.09.18a18.73 18.73 0 0 0 .83 1.5l.28.54c.06.15.16.33.21.4.06.06.13.17.17.24a.89.89 0 0 0 .13.17c.08.08.29.51.29.61 0 .05.02.13.04.19a.5.5 0 0 1 .03.18c0 .07 0 .08.06.07.05 0 .08.02.12.08.1.17.27.33.22.2-.02-.05.03-.18.06-.17a29.43 29.43 0 0 0 1.32 1.62l.81.95c.1.13.49.54.85.9.36.38.66.7.66.73 0 .06.05.1.12.1.09 0 1.6 1.42 1.9 1.8.19.21.43.34.4.19-.02-.05-.02-.08 0-.08.05 0 .26.15.37.28.07.07.16.16.2.18.17.1.35.22.35.24a5 5 0 0 1 .43.37c.08.08.24.19.36.24.1.06.25.15.32.21.16.15.33.23.36.18.03-.05.28.12.27.19 0 .07.53.44.97.66l.32.2c.07.07.24.17.38.24l.58.3c.45.25.82.43 1.29.63l.64.3a35.98 35.98 0 0 0 4.1 1.4.92.92 0 0 0 .2.04c.26.04.87.2.93.24.09.05.49.14.83.17.17.02.35.05.4.07.06.02.3.07.54.1.24.05.46.1.5.12a.86.86 0 0 0 .27.05c.13.02.23.04.26.07.03.03.13.04.36.06.46.03.7.07.7.13s.14.08.17.03c.03-.04.25-.04.26 0 .01.03.15.05.53.08a33.51 33.51 0 0 0 4.87-.02c1.02-.11 2.89-.4 3.3-.52.2-.06.24-.07.24-.03 0 .04-.6.18-1.42.34a13.18 13.18 0 0 1-2.57.48c-1.91.2-5.6.11-7.57-.17-.4-.06-.5-.07-.47-.03.06.05.94.23 1.51.3a86.03 86.03 0 0 1 1.62.2c.12 0 .33.03.47.04.46.05 2.47.09 3.3.06a25.56 25.56 0 0 0 3.77-.41l.75-.14a18.95 18.95 0 0 0 3.3-1.04c.06-.07.18-.12.24-.1.05.02.18-.03.79-.3l.8-.35a5.6 5.6 0 0 0 1.27-.71.42.42 0 0 1 .16-.1c.06-.03.12-.07.14-.1.02-.04.2-.15.56-.33a8.81 8.81 0 0 0 .67-.36c.07-.06.2-.12.28-.15.07-.03.2-.08.27-.13.2-.12.34-.2.8-.43.47-.25.44-.22.38-.27-.06-.04.16-.23.65-.53.16-.1.38-.26.49-.36.22-.2.7-.57.77-.6a8.75 8.75 0 0 0 .5-.39 58.31 58.31 0 0 1 1.22-.97l.46-.38c.1-.07.17-.15.17-.17 0-.04-.04-.05-.07-.01a.55.55 0 0 1-.13.08 1.17 1.17 0 0 0-.29.25c-.14.16-.36.35-.41.35a.67.67 0 0 0-.12.08c-.1.09-.4.25-.41.24l.28-.28c.28-.26.34-.34.25-.3-.06.02-.04-.04.04-.1.08-.08.11-.09.11-.03 0 .08.12-.03.12-.11 0-.07.43-.53.5-.53l.22-.18c.2-.2.34-.3.39-.3.04 0 .12-.14.1-.17-.03-.04.57-.7 1.58-1.7.22-.22.4-.42.4-.44 0-.01.14-.17.32-.35.17-.17.33-.35.34-.38.05-.09.55-.7.85-1.04.27-.3.5-.6.5-.65 0-.04-.14 0-.18.05-.04.05-.12.03-.12-.03l.2-.36a4.84 4.84 0 0 0 .23-.39.93.93 0 0 1 .12-.17c.19-.25.46-.78.51-1 .03-.11.12-.33.22-.53l.17-.37.06-.13a.35.35 0 0 0 .07-.14 6.2 6.2 0 0 0 .4-.75c.39-.77.48-.92.58-.89.06.02.09-.03.1-.19.01-.18.17-.73.28-.97.04-.1.1-.25.12-.36.02-.11.08-.31.14-.45l.09-.3c0-.07.1-.4.13-.45.06-.1.06.03-.01.2-.02.03-.01.05.01.04.02 0 .05-.08.07-.16.07-.27.25-.62.21-.41a4.81 4.81 0 0 1-.02.1v.05c.03-.03.15-.39.22-.7l.1-.3c.05-.1.14-.38.14-.43 0-.06-.05 0-.12.15-.09.2-.12.15-.05-.11.05-.21.05-.22-.01-.22-.08 0-.06-.13.04-.28a.43.43 0 0 0 .06-.19l.05-.25a.68.68 0 0 0 .02-.22.88.88 0 0 1 .03-.24c.05-.24.05-.24-.02-.22-.07.02-.07-.06.01-.3.04-.1.08-.25.09-.32.02-.18.1-.46.16-.54a.96.96 0 0 0 .07-.26c.01-.11.06-.3.1-.42.03-.12.07-.32.08-.45a3.5 3.5 0 0 1 .16-.76c.06 0 0 .76-.06.84-.03.03-.04.42 0 .45.05.06.13-.17.09-.27-.04-.05.05-.7.1-.8.02-.04.02-.63 0-.77 0-.01-.02-.02-.05-.02-.1 0-.1-1.14 0-1.25.08-.1.08-.92 0-1.48a2.57 2.57 0 0 1-.01-.88.37.37 0 0 0 .04-.18c0-.06.01-.12.04-.14.06-.05.05-.14 0-.13-.05 0-.06-.03-.08-.16-.03-.24-.12-.4-.12-.23 0 .08-.16.16-.21.1a.87.87 0 0 1-.06-.48c.03-.08.03-.1-.02-.13-.03-.02-.06-.05-.06-.07l-.05-.19c-.06-.21-.1-.2-.1.02 0 .2-.04.23-.12.13-.08-.09-.17-.5-.14-.63.03-.15 0-.22-.11-.2-.11.01-.13-.02-.16-.25 0-.08-.03-.14-.04-.14-.03 0-.03.07.01.4.04.29.04.33 0 .29-.1-.1-.18-1.56-.09-1.58.07-.02.07-.05-.02-.5a18.82 18.82 0 0 0-.53-2.3 14.9 14.9 0 0 0-.3-1.02 35.3 35.3 0 0 1-.51-1.57c-.05-.17-.18-.39-.22-.35-.04.04.05.58.11.71a33.86 33.86 0 0 1 1.03 4.01c.05.07.3 1.22.3 1.4 0 .1-.06.02-.12-.17-.14-.43-.14-.28 0 .89.06.49.1 2.26.05 2.34-.05.06-.08-.02-.1-.24-.02-.27-.06-.25-.07.03-.02.49-.1.17-.11-.49a5.1 5.1 0 0 0-.04-.54 5.21 5.21 0 0 1-.06-.42c-.02-.24-.03-.29-.08-.32-.03-.02-.05-.06-.05-.08 0-.02-.01-.03-.03-.03-.03 0-.02.1.03.44a3.5 3.5 0 0 1 .03.41c0 .14 0 .29.02.34.02.05.04.29.04.53 0 .24.02.54.03.68.01.17.01.25-.01.27-.02 0-.03.04-.03.07 0 .03-.01.05-.03.05s-.02-.02-.02-.05c0-.08-.06-.2-.1-.2-.03 0-.04.04-.04.1 0 .14-.04.12-.06-.04-.02-.15-.05-.18-.1-.12-.04.05-.01.24.04.29.05.03.06.24.02.28-.02.02-.04.42-.04.98-.01.52-.03.98-.04 1.03a.95.95 0 0 0-.01.24c0 .11 0 .19-.03.23a.93.93 0 0 0-.03.33c0 .36-.04.79-.07.82a.57.57 0 0 0-.04.18l-.05.4-.07.58c-.03.29-.05.38-.1.34a3.34 3.34 0 0 1 0-.78.74.74 0 0 0 .02-.21c-.03 0-.13.25-.16.4-.04.16-.07.18-.1.04-.01-.1-.09-.13-.09-.04a.12.12 0 0 1-.03.08c-.06.05-.08.22-.03.26.05.04.01.2-.06.28a.4.4 0 0 0-.08.19c0 .07-.05.28-.08.45-.13.66-.12.63-.19.63-.03 0-.1.05-.15.1-.06.07-.1.1-.13.09-.06-.03-.08.06-.09.35 0 .25-.02.32-.21.94l-.21.71a9.78 9.78 0 0 1-.33 1 .76.76 0 0 1-.07.19l-.16.4a16.2 16.2 0 0 1-.98 2.27c.04.02.02.06-.1.24-.07.12-.1.15-.13.13-.04-.04-.07-.01-.15.18a.67.67 0 0 1-.1.17c-.06.05-.04-.08.05-.29.05-.1.08-.22.08-.26 0-.03.04-.13.08-.2l.1-.18c.04-.07.25-.6.32-.8.05-.16.06-.21.03-.24a.1.1 0 0 1-.01-.09c0-.02-.02-.01-.05.04a.32.32 0 0 0-.07.1c0 .15-.33.64-.4.6-.05-.03-.03-.1.05-.17.21-.2.51-1.07.39-1.11-.02 0-.05.04-.08.1a.64.64 0 0 1-.1.17c-.09.07-.1.13-.02.1.14-.03.01.36-.2.61l-.07.08.02-.08.02-.2a.75.75 0 0 1 .04-.2c.02-.05.03-.09.02-.1-.03-.02-.1.06-.1.12 0 .11-.08.32-.14.36a.23.23 0 0 0-.08.13c-.04.15-.2.45-.24.44-.03-.01-.06.03-.11.12l-.34.61c-.24.43-.3.58-.23.54.06-.04.02.08-.06.14l-.12.12a1.2 1.2 0 0 0-.22.39c.02.05-.1.23-.15.24-.04 0-.14.13-.31.4l-.4.55a9.51 9.51 0 0 0-.4.5 40.67 40.67 0 0 1-1.5 1.83 28.15 28.15 0 0 1-1.6 1.62c-.28.25-.36.34-.23.27.32-.17 2.67-2.6 2.85-2.96.1-.18.3-.36.3-.27 0 .02-.08.13-.17.25a6.24 6.24 0 0 0-.28.39 4.06 4.06 0 0 1-.28.39l-.34.4a18.95 18.95 0 0 1-2.04 2 29.37 29.37 0 0 1-3.2 2.37 4.55 4.55 0 0 1-.46.27l-.44.25c-.14.1-.42.26-.61.36a27.25 27.25 0 0 0-.59.34 23.83 23.83 0 0 1-3.47 1.49 31.11 31.11 0 0 1-3.85 1 27.67 27.67 0 0 1-9.68-.13 9.6 9.6 0 0 0-.48-.1 1.9 1.9 0 0 1-.26-.05.45.45 0 0 0-.15-.03.56.56 0 0 1-.18-.04 4.25 4.25 0 0 0-.44-.13 28.03 28.03 0 0 1-6.97-2.84 30.49 30.49 0 0 0-.68-.41 26.3 26.3 0 0 1-1.53-1.01 18.4 18.4 0 0 0-.68-.47c-.23-.14-.6-.41-1-.74l-.37-.3a21.52 21.52 0 0 1-2.45-2.47 20.98 20.98 0 0 1-.5-.6l-.78-.96a10.77 10.77 0 0 0-.37-.45 2.93 2.93 0 0 1-.27-.35 2.36 2.36 0 0 0-.23-.3l-.11-.12.06.11a13.65 13.65 0 0 0 .97 1.4 18.37 18.37 0 0 0 1.35 1.66.35.35 0 0 0 .09.1l.3.34.52.6c.52.54.64.7.64.76 0 .04.05.1.16.2l.16.17c0 .08-.18-.06-.52-.4a6.9 6.9 0 0 0-.39-.34c-.43-.35-1.41-1.4-2.12-2.28a3147.3 3147.3 0 0 1-.81-.99 17.45 17.45 0 0 1-.82-1.16 1.12 1.12 0 0 0-.2-.25.34.34 0 0 1-.1-.13.81.81 0 0 0-.08-.16.63.63 0 0 1-.14-.3c0-.05-.04-.11-.1-.18a1.97 1.97 0 0 1-.38-.54.37.37 0 0 0-.06-.15.37.37 0 0 1-.05-.13c0-.02-.02-.07-.05-.1a.18.18 0 0 1-.06-.1.11.11 0 0 0-.05-.1.17.17 0 0 1-.07-.08.52.52 0 0 0-.08-.14.28.28 0 0 1-.06-.2c0-.1-.01-.13-.06-.14-.05-.01-.18-.24-.18-.3 0-.02-.03-.07-.07-.1a.32.32 0 0 1-.08-.17.4.4 0 0 0-.07-.17 3.74 3.74 0 0 1-.31-.91c.03-.03.07.02.07.1 0 .04.03.1.07.15.09.11.21.38.25.54.03.14.1.26.12.23.03-.03.02-.27-.02-.36-.08-.18-.03-.26.05-.1.06.12.1.1.1-.05 0-.17-.03-.24-.09-.28-.06-.03-.12-.23-.08-.28.02-.03 0-.12-.06-.36-.21-.71-.25-.92-.2-.9.04.02.05 0 .05-.04s.02-.08.04-.1a.14.14 0 0 0 .04-.1c0-.04.01-.06.04-.06s.04-.02.03-.06c-.07-.3-.08-.33-.13-.34-.03 0-.05-.02-.05-.03l-.05-.28a20.1 20.1 0 0 1-.1-.54 35.58 35.58 0 0 0-.14-.7 9.6 9.6 0 0 1-.11-.67 3.72 3.72 0 0 0-.05-.37 3.2 3.2 0 0 1-.05-.35 23.03 23.03 0 0 0-.08-.67c-.03-.23-.07-.6-.08-.84a16.86 16.86 0 0 0-.06-.66 1.53 1.53 0 0 1 0-.4c.02-.12.02-.19 0-.2-.06-.07-.03-.4.04-.43.06-.02.06-.03.05-.24-.01-.14 0-.22.01-.22.04 0 .05.08.08.34 0 .12.03.23.04.25a.68.68 0 0 1 .02.23 5.8 5.8 0 0 0 .17 1.22c.05.02.05.05.04.22-.02.2 0 .29.04.29.02 0 .02-.18.01-.56-.01-.62 0-.7.08-.7.04 0 .05.01.04.08-.03.32-.03.5 0 .72.03.13.05.28.05.33 0 .1.04.16.1.16.02 0 .03-.04.03-.08l.03-.22c.03-.14.02-.21-.03-.14-.1.17-.19-.27-.12-.61.02-.1.07-.08.07.01 0 .05.02.1.04.13a.32.32 0 0 1 .06.15c.01.06.03.1.05.1.03-.01.02-.06-.02-.26-.02-.11-.02-.16 0-.2.02-.05.03-.13 0-.3a.74.74 0 0 1 0-.26.1.1 0 0 0 0-.09c-.01-.02 0-.05.01-.08.05-.05.1-1.44.06-1.44-.04 0-.1.14-.1.23 0 .04 0 .07-.02.07-.05 0 .03-.41.1-.49.04-.05.05-.47 0-.5-.04-.03 0-.26.04-.3.04-.02.05-.12.07-.47.02-.27.05-.52.08-.62a48.97 48.97 0 0 1 .55-3.04l.13-.57c.1-.42.32-1.19.47-1.65.15-.44.17-.54.07-.37-.11.2-.34.95-.5 1.62a2.1 2.1 0 0 1-.1.32l-.08.33-.16.68c-.12.45-.17.74-.22 1.12-.03.27-.04.34-.08.34s-.03-.2.02-.47l.04-.37c0-.08.02-.26.05-.4l.08-.46a20.34 20.34 0 0 1 1.22-3.92l.22-.56a23.1 23.1 0 0 0 .73-1.6l.23-.44a17.58 17.58 0 0 0 .58-1.06 19.13 19.13 0 0 1 .62-1.1 28.58 28.58 0 0 1 4.96-5.95 36.04 36.04 0 0 1 1.51-1.25l.42-.3c.17-.13.4-.3.52-.36l.68-.43a23.14 23.14 0 0 1 2.44-1.42l.24-.13.36-.17a13.02 13.02 0 0 1 1.23-.53c.2-.08.42-.16.46-.2l.31-.11a6.34 6.34 0 0 0 .69-.23c.02 0 .07-.02.1-.05a.76.76 0 0 1 .21-.07l.6-.18a28.06 28.06 0 0 1 2.1-.54 25.58 25.58 0 0 1 8.25-.33 12.16 12.16 0 0 1 1.72.22 18.56 18.56 0 0 1 2.97.86c.33.1.9.33 1.7.67.43.19.84.35.9.37.1.03.36.16.66.32.13.08.26.1.2.05a12.44 12.44 0 0 0-1.71-.88l-.7-.3a44.46 44.46 0 0 1-.45-.19 5.22 5.22 0 0 0-.32-.12 1.57 1.57 0 0 1-.21-.08 2.95 2.95 0 0 0-.3-.11 5.32 5.32 0 0 1-.4-.16 3.6 3.6 0 0 0-.4-.14 6 6 0 0 1-1.11-.42c-.04-.05-.1-.07-.33-.13-.09-.02-.1-.07 0-.07l.43.1.51.12c.18.02.4.08.63.16a21.75 21.75 0 0 1 3.37 1.25c.26.1.8.37 1.19.58.2.12.38.2.41.2.03 0 .1.04.15.07l.2.13a.43.43 0 0 1 .17.14c.04.07.13.13.2.13.09 0 .5.23.66.38.1.08.2.16.24.17a.8.8 0 0 1 .2.12l.21.16c.14.08.44.31.53.4.04.04.1.07.12.07.03 0 .08.04.12.08.07.08.16.1.2.05 0-.01-.02-.05-.05-.07-.28-.2-1.12-.89-1.13-.93-.02-.06-.2-.21-.43-.35-.12-.08-.14-.1-.13-.16.02-.09-.1-.2-.33-.32a4.08 4.08 0 0 1-1.02-.66c0-.04-.02-.06-.05-.04-.06.02-.43-.22-.44-.3 0-.04-.05-.08-.17-.13a1.25 1.25 0 0 1-.22-.13c-.03-.03-.07-.05-.09-.05-.17 0-.67-.33-.58-.38.02-.02.02-.03-.03-.05l-.35-.15a52.03 52.03 0 0 0-.58-.25c-.38-.15-.57-.25-.55-.28.02-.03.55.15.61.21.03.03.12.07.2.08a.9.9 0 0 1 .24.09l.12.05a6.38 6.38 0 0 1 1 .42 5.26 5.26 0 0 1 .7.4l.17.07c.28.14.37.13.1-.02-.2-.11-.18-.16.04-.1l-.18-.1a.85.85 0 0 0-.27-.11 4 4 0 0 1-.98-.43 4.88 4.88 0 0 0-.73-.35c-.02-.03-.1-.06-.17-.08a3.28 3.28 0 0 1-.65-.21l-.53-.2a4.42 4.42 0 0 1-.37-.16 1.8 1.8 0 0 0-.35-.12c-.22-.05-.3-.08-.3-.12 0-.01.02-.03.04-.03.03-.01 0-.03-.08-.06-.13-.06-.18-.05-.12.02.05.07-.03.08-.15.02a1.76 1.76 0 0 0-.24-.08c-.5-.12-.5-.13-.52-.2 0-.1-.19-.16-.42-.16a.39.39 0 0 1-.18-.04c-.04-.02-.09-.03-.15-.02a.59.59 0 0 1-.2-.02 3.05 3.05 0 0 0-.32-.06c-.14-.01-.23-.04-.27-.07a.53.53 0 0 0-.18-.08 6.87 6.87 0 0 1-.32-.1 1.87 1.87 0 0 0-.34-.06 1.12 1.12 0 0 1-.25-.05 1.52 1.52 0 0 0-.22-.05c-.06-.01-.13-.04-.14-.06-.02-.02-.08-.03-.22-.02-.1 0-.24 0-.3-.02-.1-.02-.14-.02-.17 0-.04.04-.2 0-.31-.06a.24.24 0 0 0-.18-.03.36.36 0 0 1-.2-.03.56.56 0 0 0-.17-.04c-.16 0-.22-.07-.08-.1l.08-.01-.07-.08c-.09-.1-.16-.1-.35-.06-.09.03-.2.02-.48 0a1.78 1.78 0 0 0-.4-.03c-.06.03-1.3.02-1.4-.01-.15-.05 0-.07.59-.07h.64l-.02-.06c-.02-.08.1-.1.14-.03.02.05.5.06.5 0a37.54 37.54 0 0 0 1.07.08c.06.03.34.05.62.06a4.8 4.8 0 0 1 1 .1c.11 0 .28.03.38.05a19.4 19.4 0 0 1 2.6.54c.14.07.52.14.56.1.03-.02.26.04.77.19.03 0 .06.04.08.08.02.05.03.06.05.04.05-.05.13-.04.2 0 .04.03.16.09.28.13.44.16 1 .39 1.1.44a.46.46 0 0 0 .11.05c.02 0 .09.03.15.08a.81.81 0 0 0 .22.1c.05 0 .13.03.18.06.25.13.8.38.86.39l.2.1c.07.06.27.17.44.25a10.24 10.24 0 0 1 1.41.8c.25.12.45.25.47.3.01.04.05.08.09.1.04.01.18.1.31.18a9.15 9.15 0 0 0 .78.42c-.07-.18.51.15.65.38.03.05.08.1.11.1l.15.1c.05.03.1.05.13.04.05-.01.22.08.22.13 0 .02-.02.02-.06 0-.07 0-.07 0-.04.05.01.03.03.05.05.06h.07a.7.7 0 0 1 .3.17c.07.06.09.07.13.04.07-.04.12-.01.18.1a.13.13 0 0 0 .1.08c.04 0 .11.05.16.11a11.9 11.9 0 0 1 1.1.93c.13.12.27.24.34.26.12.05.24.18.24.27 0 .07.06.13.11.1.05-.01.47.42.67.7.2.29.5.56.5.47l-.13-.19c-.08-.1-.14-.19-.14-.23 0-.05-.05-.13-.17-.26a2.17 2.17 0 0 1-.21-.27.96.96 0 0 0-.15-.18.55.55 0 0 1-.1-.13c0-.13.5.36.93.91.27.34.54.64.66.72.12.09.17.09.11.01-.02-.02-.02-.05-.01-.06 0 0 .06.03.1.1.1.1.12.17.07.17-.06 0-.02.07.11.21.14.15.2.17.1.03s-.03-.12.1.03a9.07 9.07 0 0 1 .68.95c.03 0 .28.35.3.43l.12.18c.13.16.34.5.43.68.05.1.13.23.19.3.16.2.24.33.24.4 0 .03.03.08.06.11.2.18.7 1.13.68 1.27a.3.3 0 0 0 .04.18.52.52 0 0 1 .05.19c0 .07.01.08.07.08.07 0 .29.42.5.93.03.08.05.1.1.09.04-.02.05 0 .1.11.02.08.1.26.17.41l.13.32c0 .02.03.1.07.17l.06.16c0 .02.03.1.07.15.03.07.08.2.1.29.05.2.11.3.17.25.02-.02.04-.02.05 0 .12.2.06-.06-.13-.5a11.7 11.7 0 0 1-.2-.54c-.07-.2-.36-.8-.42-.86a2.5 2.5 0 0 1-.22-.5 13.45 13.45 0 0 0-1-2.03 3.08 3.08 0 0 0-.22-.39 1.79 1.79 0 0 1-.14-.22.57.57 0 0 0-.1-.14c-.06-.06-.49-.7-.62-.94a4 4 0 0 0-.4-.6.34.34 0 0 1-.06-.13c-.02-.06-.06-.1-.08-.12a3.16 3.16 0 0 1-.32-.39A23.76 23.76 0 0 0 52 9.63c-.1-.12-.18-.24-.2-.28-.02-.1-.13-.23-.2-.25-.06-.01-.4-.35-1.1-1.06a1.7 1.7 0 0 0-.36-.31 6.58 6.58 0 0 0-.33-.3 49.57 49.57 0 0 1-.63-.57c-.48-.43-.7-.6-1.08-.88a12.06 12.06 0 0 1-.59-.43 8.99 8.99 0 0 0-.34-.26 46.95 46.95 0 0 1-.2-.14 25.04 25.04 0 0 0-1.29-.85 60.52 60.52 0 0 1-.61-.38 10.58 10.58 0 0 0-.53-.3l-.56-.32a33.35 33.35 0 0 0-5.38-2.14c-.45-.12-.5-.14-.54-.2-.02-.06-.13-.07-.17-.03-.02.02-.23-.01-.65-.1-.89-.2-1.78-.35-2.23-.4a2.88 2.88 0 0 1-.44-.06c-.1-.05-.16-.07-.39-.08a1.23 1.23 0 0 1-.28-.03 1.04 1.04 0 0 0-.23-.04 1.85 1.85 0 0 1-.32-.06.92.92 0 0 0-.39-.03l-.35-.01c-.15-.04-.6-.07-.6-.03 0 .02.03.03.09.03.05 0 .09.01.09.03 0 .05-.34.03-.36-.03-.02-.07-.14-.09-.84-.1a19.74 19.74 0 0 1-.8-.02c-.1 0-.5 0-.89.03zm-.69.22c0 .03-.1.06-.2.06s-.08-.05.02-.06c.16-.02.18-.02.18 0zm-1.15.73c0 .04-.05.05-.25.07-.12.02-.17.01-.17 0 0-.03.06-.05.25-.07.15-.02.17-.02.17 0zm9.82.38c.25.05.36.06.39.04.06-.04.37.04.43.1.02.03.07.05.14.05a.21.21 0 0 1 .15.05c.05.05.24.1.68.22 1.3.32 1.62.44 3.28 1.13a29.1 29.1 0 0 1 2.48 1.3A20.28 20.28 0 0 1 47.37 6c.15.11.2.32.06.22a.3.3 0 0 0-.14-.04c-.04 0-.13-.04-.2-.1a4.94 4.94 0 0 0-.31-.22.62.62 0 0 1-.22-.2c-.04-.08-.15-.16-.23-.16a.42.42 0 0 1-.17-.1 2.66 2.66 0 0 0-.3-.18 1.51 1.51 0 0 1-.25-.18c-.12-.12-.3-.27-.32-.27l-.2-.11a.83.83 0 0 0-.23-.11c-.07 0-.3-.13-.32-.18a4.3 4.3 0 0 0-.6-.39 7.36 7.36 0 0 1-.37-.2 27.34 27.34 0 0 0-6.17-2.3c-.48-.1-.72-.16-.72-.19s.13-.02.6.08zm-3.75.38c0 .02.05.04.12.05l.18.02c.07.02.05-.02-.03-.06-.08-.04-.27-.04-.27 0zm-.5.06-.01.04c-.04.03-.27-.01-.27-.04s.26-.03.28 0zm1.4.35c.03 0 .06.02.06.04s-.15 0-.2-.03c-.04-.02-.01-.07.03-.05a.74.74 0 0 0 .1.04zm4.69.67c-.02.05 0 .08.09.1.04.02.1.04.11.06l.19.1.14.05-.01-.06c0-.04-.05-.07-.17-.11-.1-.04-.16-.08-.18-.12-.02-.07-.15-.09-.17-.02zm.37.72v.03c-.03.02-.22-.06-.22-.09 0-.02.19.02.22.06zm.55.13c.14.05.23.14.13.14a1 1 0 0 1-.36-.16c-.02-.05.04-.04.23.03zm.66.55.24.1.23.1c.2.07.28.12.2.12-.1 0-.9-.34-.9-.38 0-.04-.02-.04.23.06zm3.41 1.12c.32.2.09.17-.34-.05-.13-.06.01.04.16.12l.25.16.25.14a.54.54 0 0 1 .19.13c.04.07.28.22.35.22.02 0 .09.04.14.1l.25.16c.07.04.29.17.47.3.35.24.5.32.5.29 0-.03-.24-.21-.46-.35-.1-.07-.18-.13-.18-.17 0-.04-.03-.05-.07-.04-.04 0-.1-.02-.17-.06-.13-.09-.16-.15-.06-.13.05.02.06.01.03-.02-.05-.06-.25-.17-.25-.14 0 .06-.08.03-.25-.06-.2-.11-.22-.14-.18-.19.04-.04-.01-.1-.18-.18a1.64 1.64 0 0 1-.22-.13c-.08-.07-.33-.2-.36-.2l.13.1zm-.37.25.3.18c.24.15.63.37.65.37.06 0 0-.07-.06-.07a.8.8 0 0 1-.24-.16c-.1-.1-.18-.15-.22-.14-.02 0-.09-.01-.14-.05a3.1 3.1 0 0 0-.45-.23.79.79 0 0 0 .16.1zm1.75 1.1c.03.05.09.1.13.13.21.11.4.24.52.33.14.12.37.25.37.21l-.07-.07a6.37 6.37 0 0 1-.22-.17 3.24 3.24 0 0 0-.3-.2 3.78 3.78 0 0 1-.3-.2c-.17-.14-.2-.15-.13-.03zm2.65.05c.1.08.13.13.08.13a.85.85 0 0 1-.24-.2c0-.04.06-.01.16.07zm-1.73.18c-.1.02.1.21.62.57l.61.5.55.46c.22.17.7.62 1.18 1.12.43.43.53.52.53.45l-.35-.4c-.4-.42-.36-.38-.85-.83a17.04 17.04 0 0 1-.4-.37 2.12 2.12 0 0 0-.17-.15c-.07-.06-.12-.12-.12-.15 0-.05-.22-.27-.36-.36a.96.96 0 0 1-.12-.1c-.11-.1-1.02-.76-1.04-.76a3.1 3.1 0 0 1-.08.02zm2.12.17c.1.1.12.16.04.11-.1-.06-.23-.19-.18-.19l.14.08zm-1.75.5.39.3c.1.06 0-.05-.12-.14-.16-.12-.27-.18-.27-.16zm-.1.13a.74.74 0 0 0 .24.18c.04 0 0-.04-.1-.12-.13-.1-.16-.11-.14-.06zm.9.05c.05.04.08.08.08.1-.02 0-.22-.13-.22-.16 0-.04.06-.02.14.06zm1.55.18c0 .04.1.13.12.1V8c-.04-.05-.12-.08-.12-.04zm-1.77.33c0 .02.02.04.03.05.05.02.03.07-.03.05-.17-.06.14.23.32.3.16.05.17.03.04-.12-.23-.27-.35-.36-.35-.28zm3.24.4c.08.08.1.12.05.12s-.16-.11-.16-.15c0-.06.03-.05.11.03zm-41.09.55c0 .04-.2.26-.23.24l.08-.14c.1-.12.15-.15.15-.1zm40.63 1.1c0 .03.22.26.25.26.05 0 0-.1-.08-.2-.11-.1-.17-.13-.17-.06zm.7.04c0 .03.18.2.2.19.02-.03-.07-.15-.14-.18-.03-.02-.06-.02-.06-.01zm.66.29c0 .03.12.17.16.17.05 0 .04-.09-.02-.14-.04-.04-.14-.06-.14-.03zm.7.47.14.2c.19.22.4.5.5.63.08.13.19.2.19.12 0-.04-.17-.3-.3-.48a.92.92 0 0 1-.13-.2.78.78 0 0 0-.1-.17c-.09-.15-.17-.23-.17-.18 0 .03-.1.04-.12 0-.05-.08-.06 0-.01.08zm-45.2.2c-.03.06-.1.18-.17.26-.1.15-.12.2-.06.2.04 0 .23-.3.31-.47.07-.14.02-.13-.07 0zm46.95 1.7c.01.05.06.15.11.22a.53.53 0 0 1 .09.21c0 .04.02.1.04.13l.28.53.44.81c.18.33.24.46.27.59.02.07-.01.08-.06.01-.05-.08-.07-.01-.02.08.04.07.07.1.14.1.13 0 .32.29.32.47 0 .05.03.13.06.2.04.07.05.12.04.17-.03.11.04.28.21.5.07.08.43.91.54 1.23.12.36.24.67.34.86.06.1.17.4.26.65.14.43.21.57.25.53.02-.01-.18-.6-.28-.83a2.06 2.06 0 0 1-.12-.35 3.67 3.67 0 0 0-.29-.82 3.04 3.04 0 0 1-.16-.41 4.9 4.9 0 0 0-.17-.47c-.14-.34-.15-.38-.04-.35.07.02.08-.01.01-.1-.1-.12-.22-.45-.2-.5.04-.08-.2-.56-.28-.6-.07-.03-.2-.27-.23-.42 0-.06-.04-.12-.07-.13-.07-.04-.16-.21-.16-.31a.7.7 0 0 0-.06-.24c-.1-.21-.17-.25-.09-.04.07.16-.06 0-.23-.3a5.06 5.06 0 0 0-.31-.49 1.97 1.97 0 0 1-.36-.74c.01-.08-.14-.27-.23-.27-.04 0-.05.01-.04.09zm-2.3.56c.01.08 1 1.58 1.03 1.58.05 0 .02-.06-.25-.5-.5-.8-.84-1.27-.79-1.08zm3.91 3.5c0 .06.17.39.2.39s0-.07-.08-.26c-.05-.13-.12-.2-.12-.12zm1.33.56.06.14s0 .02-.03.02-.13-.2-.13-.25c0-.06.06-.01.1.09zm-.82.65c0 .05.31.8.35.85.05.06.06.03.03-.1-.07-.32-.38-.93-.38-.75zm-54.77.42a24.2 24.2 0 0 0-1.17 4.06c-.13.69-.14.74-.1.71.02-.03.1-.32.2-.88.11-.52.19-.82.4-1.55.3-1.12.39-1.4.56-1.87.22-.62.27-.83.1-.47zm54.12-.05c0 .04.07.2.15.35a6.34 6.34 0 0 1 .23.53c.18.38.3.68.3.75 0 .07.1.26.12.24a7.97 7.97 0 0 0-.48-1.34.26.26 0 0 1-.04-.11.12.12 0 0 0-.04-.09 1.06 1.06 0 0 1-.12-.22c-.09-.19-.16-.25-.12-.11zm1.28 1.27c.03.13.09.25.12.25.04 0 .03-.05-.03-.18-.06-.14-.12-.19-.1-.07zm1.9.32a45.53 45.53 0 0 0 .27 1.1c.16.57.54 2.53.62 3.12.06.42.1.62.1.41 0-.12-.07-.69-.12-1l-.13-.64c-.14-.75-.17-.93-.24-1.16a7.22 7.22 0 0 1-.1-.46 8.33 8.33 0 0 0-.21-.84 52.89 52.89 0 0 1-.11-.37.79.79 0 0 0-.07-.19c-.02-.02-.02 0-.01.03zm-51.1.61c-.04.05-.18.42-.18.45 0 .06.08-.07.15-.23.06-.17.08-.31.02-.22zm-4.93 1.5a.55.55 0 0 0 0 .16v.12l.07-.12c.05-.1.05-.12.03-.15-.04-.05-.08-.05-.1 0zm-.16.05-.13.38c-.06.2-.14.37-.16.4a.13.13 0 0 0-.03.1c0 .04 0 .19-.04.34L2 23.9s.02 0 .04-.03c.1-.08.22-.44.19-.54 0-.03.04-.23.12-.46l.13-.45c0-.04-.04-.05-.07-.01zm55.1.6c0 .11.1.51.12.5.05-.01.05-.13 0-.31-.07-.18-.12-.27-.12-.2zM0 23.53l.01.02a.01.01 0 0 0 .02-.02.01.01 0 0 0-.02-.01.01.01 0 0 0-.01.01zm1.56.83a.78.78 0 0 0-.03.18c-.02.21.05.2.08-.02.01-.14 0-.23-.05-.16zm55.82.6c-.02.01-.03.1-.01.35l.03.77c0 .24.02.48.03.53.02.05.04.3.06.54.03.43.05.55.13.55.01 0 .03-.17.04-.36a4.86 4.86 0 0 1 .02-.48c-.02 0-.03.02-.03.04 0 .04 0 .04-.03.02-.05-.05-.07-.38-.03-.43.03-.03.03-.1 0-.27-.02-.17-.02-.25 0-.27.04-.04.04-.3 0-.46a.99.99 0 0 1-.05-.23c0-.2-.08-.35-.16-.3zm-55.95.48c-.07.26-.12 1-.06 1 .02 0 .04-.03.05-.1.07-.45.08-1.14.01-.9zm-.87.09-.01.02s-.02 0-.03-.02l.01-.03c.02 0 .03.01.03.03zm-.1 1.04c0 .05-.02.1-.03.1-.02 0-.03-.05-.03-.1s.01-.1.03-.1l.02.1zm58.4.3a.7.7 0 0 1 .02.15 6.82 6.82 0 0 0 0 .32c0 .35-.09.3-.14-.08-.04-.3.07-.67.13-.4zm-57.54.18c-.03.04-.08.64-.06.66.05.05.07-.05.1-.36 0-.31 0-.37-.04-.3zm-.81.51c0 .02.01.03.02.03a.03.03 0 0 0 .03-.03.03.03 0 0 0-.03-.03.03.03 0 0 0-.02.03zm58.34.77a42.3 42.3 0 0 1 .04 1.55c.02.59 0 1.18-.08 1.84l-.07.63a1.45 1.45 0 0 1-.04.25c-.04.04-.04-.05-.01-.37l.06-1.32c.02-.54.03-1.03.05-1.1a.33.33 0 0 0-.02-.2 7.41 7.41 0 0 1 0-1.91c.03 0 .04.15.06.63zm.5-.17c.06.46.05.57-.04.48a2.63 2.63 0 0 1-.01-.75c.01 0 .04.12.05.27zm-58.06.28c0 .14.02.21.05.24.06.06.07.45.02.79-.03.27 0 .5.06.5.03 0 .05-.01.05-.04a.18.18 0 0 1 .04-.1c.06-.06.1-1.1.04-1.1-.01 0-.03.02-.03.04s0 .04-.02.04-.03-.06-.03-.13c0-.1 0-.12-.04-.1-.07.02-.1-.03-.1-.2 0-.08 0-.14-.02-.14s-.03.06-.02.2zm-.24.03a.38.38 0 0 0 .03.12c.03.03.05-.02.03-.12-.03-.13-.08-.13-.06 0zm4.4 1.6c0 .48 0 .58.04.61.05.05.05.3 0 .4-.12.25-.22-1.06-.11-1.47.05-.22.07-.13.07.46zm54.01.05c-.01.2-.07.25-.07.05 0-.15.01-.22.05-.22.02 0 .03.07.02.17zm-58.82.42c0 .15.01.25.03.25s.02-.1.02-.24c0-.15 0-.25-.02-.25s-.03.1-.03.25zm4.83 1.03c0 .06-.02.1-.03.1-.02 0-.03-.05-.04-.1 0-.08 0-.1.04-.1.03 0 .04.02.03.1zM1 32.59c0 .07.02.12.04.13.02 0 .03-.02.02-.1 0-.16-.06-.18-.06-.02zm55.9.6c-.05.12-.02.26.04.21.05-.04.05-.13 0-.2-.03-.05-.04-.05-.05-.01zm-51.72.08c0 .04.02.08.03.1.01 0 .03-.03.03-.09 0-.05-.02-.1-.03-.1-.02 0-.03.04-.03.09zm-3.81.3c0 .14.03.33.05.43.03.1.04.19.02.21-.04.1.03.66.1.71.03.03.03.02.02-.12-.02-.17.02-.2.07-.05.08.24.1.01.02-.3l-.18-.98c0-.05-.08-.15-.11-.15v.25zm3.85-.02c.02.18.05.24.08.15a.45.45 0 0 0-.07-.28c-.02-.02-.02.02-.01.13zm52 .8c0 .08-.03.11-.06.06-.02-.03.01-.14.04-.14l.02.08zm2.01.31c-.02.04-.04.07-.06.07-.03 0-.03-.07 0-.14.05-.08.1-.02.06.07zm-2.34.16a.58.58 0 0 1-.01.2c-.03.1-.01.23.02.23.02 0 .03-.03.03-.07 0-.08.02-.15.06-.15a2.77 2.77 0 0 0-.03.38 8.03 8.03 0 0 1-.34 1.38c-.06.08-.07.15-.03.2.03.03.03.05 0 .16-.05.14-.1.18-.07.06l.01-.08-.07.08a.3.3 0 0 0-.07.13c0 .03 0 .05-.02.06-.03.02-.07-.13-.04-.18.05-.08.06-.26 0-.25-.04.02-.03-.15.05-.36l.05-.24a12.56 12.56 0 0 1 .38-1.59c.02-.1.06-.09.08.04zm-55.13.35c0 .1.03.19.07.19.05 0 .05-.12.01-.2-.03-.07-.08-.06-.08.01zm58.02.22c-.04.11-.05.4-.01.4.02-.01.04-.08.05-.16l.03-.2c0-.06-.06-.1-.07-.04zm-54.44.22c0 .07.08.15.15.15.06 0 .05-.01-.03-.12-.09-.11-.12-.12-.12-.03zm.25.21c.02.05.2.2.22.18v-.06c-.01-.05-.24-.17-.22-.12zm54.05.21a.8.8 0 0 0-.04.13 4.56 4.56 0 0 1-.04.17c-.02.05-.01.06.01.05.03 0 .05-.03.05-.06a.2.2 0 0 1 .05-.09c.04-.04.05-.22.01-.22a.05.05 0 0 0-.04.02zm-54.93.3c.03.1.05.12.09.12.05 0 .05 0 .13.37l.08.3a10.88 10.88 0 0 1 .37 1.63c-.05 0-.15-.18-.18-.31-.02-.09-.05-.14-.07-.14-.04 0-.04 0-.01.13.03.15-.04.07-.09-.08a.97.97 0 0 0-.09-.23.77.77 0 0 1-.08-.23 15.7 15.7 0 0 0-.12-.54 4.17 4.17 0 0 1-.1-.53l-.01-.18c0-.02-.02-.04-.05-.04-.05 0-.06-.02-.09-.15-.02-.12.01-.2.04-.1s.06.07.05-.03c-.04-.23.06-.22.13.01zm54.66-.02a.76.76 0 0 0-.05.24 1.03 1.03 0 0 1-.05.25c-.05.09 0 .15.09.14.08 0 .2-.46.12-.5-.03-.02-.04-.05-.03-.1.02-.1-.02-.11-.07-.03zM2.45 37.78c.03.1.01.15-.04.1a.36.36 0 0 1-.05-.13c-.02-.13.04-.1.09.03zm56.19.82-.04.12v.03c.03 0 .1-.2.08-.21 0-.01-.03.02-.04.06zm-4.06.64a.18.18 0 0 0-.03.1.95.95 0 0 1-.04.21c-.05.18-.03.18.05-.01.11-.26.12-.4.02-.3zm-.17.57a16.33 16.33 0 0 1-.09.2c-.06.15-.06.16-.01.1.03-.03.07-.06.1-.06.02 0 .03-.04.02-.13 0-.15 0-.16-.02-.1zm-51.2.13c.06.13.06.17.03.17a.67.67 0 0 1-.11-.26c0-.05.05 0 .09.1zm2.64-.03c0 .03.04.1.08.15.08.1.1.06.06-.07-.04-.1-.14-.15-.14-.08zm47.71 1.11c0 .08-.07.16-.1.13s-.02-.05 0-.1c.04-.09.1-.1.1-.03zm-48.83.46c.07.16.09.25.06.25s-.11-.18-.15-.32c-.04-.11.04-.06.09.07zm48.58.06a5.41 5.41 0 0 1-.73 1.32c-.1.1-.1.06.03-.2.12-.21.13-.25.08-.23l-.04-.01c0-.06.06-.17.1-.18.04-.02.05.02 0 .1-.04.1 0 .04.08-.09.17-.27.2-.32.2-.42 0-.17.15-.4.26-.4.03 0 .03.03.02.1zm-48.16.95a27.23 27.23 0 0 1 .6 1.26c.1.22.04.25-.08.03a.96.96 0 0 0-.13-.18.41.41 0 0 1-.12-.24.67.67 0 0 0-.09-.21 2.53 2.53 0 0 1-.28-.63 3.62 3.62 0 0 0-.1-.3.5.5 0 0 1-.03-.11c0-.07.07.04.23.38zM7 43.59c.1.17.14.28.08.24a2.37 2.37 0 0 1-.24-.4c0-.06.06 0 .16.16zm-1.89.28c.09.17.08.28 0 .11-.1-.16-.1-.19-.06-.19l.06.08zm2.16.25c.1.2.1.19 0 .17-.08-.02-.16-.18-.14-.28.01-.1.04-.08.14.11zM6 44.2c.08.16.03.19-.06.04-.07-.1-.08-.12-.02-.12.02 0 .05.04.08.08zm1.3.28c.04.08.09.12.11.11.04-.01.2.19.2.25 0 .02.03.05.07.07.1.08.2.29.14.33-.05.04-.05.04.02.18.04.07.06.14.04.14-.07 0-.4-.43-.4-.52a.41.41 0 0 0-.06-.13 3.5 3.5 0 0 1-.12-.2c-.03-.05-.07-.09-.1-.09a.06.06 0 0 1-.06-.05c-.01-.05 0-.05.03-.02.07.06.09.01.04-.07-.04-.07-.04-.12 0-.12l.08.12zm48.9-.03c0 .01-.02.04-.06.05-.04.02-.1.12-.18.27l-.24.43c-.1.17-.12.21-.09.23.04.02.03.04-.03.14a.41.41 0 0 0-.06.14c.03.03.16-.14.28-.36l.24-.42c.11-.19.23-.47.2-.5-.02-.02-.05-.01-.05.02zm-48.69.83c.13.17.24.35.26.38.06.11.2.3.3.39.06.04.1.1.1.13s.05.09.1.13c.12.1.3.38.31.5.03.15.1.32.16.34a.54.54 0 0 1 .14.15c.17.25.22.3.28.28.07-.02.07-.05 0-.15l-.04-.1c.03-.03.1.03.27.25.1.14.22.27.27.3.16.12.25.25.24.33-.02.1.06.19.08.1.02-.08.06-.08.13 0l.33.35c.24.25.27.3.27.38 0 .1.1.2.17.2.04 0 .26.21.26.25 0 .01.03.04.07.04l.26.18.2.16a5.41 5.41 0 0 0 .82.82c.03.01.17.14.3.27.15.17.3.29.4.36.1.05.2.11.22.14a.13.13 0 0 0 .09.04c.07 0 .36.23.38.3 0 .05.03.08.05.08.05 0 .44.35.43.38h-.08c-.08-.04-.12-.02-.06.05.02.02.03.06.03.07-.02.05.12.15.2.15.07 0 .17.06.38.22.17.12.33.23.37.24a.76.76 0 0 1 .3.18.53.53 0 0 0 .19.1c.12.04.65.36.8.48.1.08 0 .1-.14.02a5 5 0 0 0-1-.53c.04.07-.08.05-.15-.02-.1-.13-.34-.28-.42-.28-.07 0-.24-.1-.38-.24a1.2 1.2 0 0 0-.2-.13 1.26 1.26 0 0 1-.23-.16 4.24 4.24 0 0 0-.3-.25 15.15 15.15 0 0 1-1.55-1.3c-.03.03.04.13.19.27.13.12.17.18.12.18a.96.96 0 0 1-.18-.14 6.63 6.63 0 0 0-.36-.29c-.3-.23-.76-.63-1.4-1.21a78.05 78.05 0 0 0-.38-.36c-.22-.23-.39-.36-.43-.35-.08.02-.63-.55-.6-.63 0-.04 0-.06-.03-.06s-.1-.06-.16-.14a4.92 4.92 0 0 0-.28-.3c-.27-.28-.7-.8-.89-1.1l-.2-.29a4.2 4.2 0 0 1-.6-1.22c.04-.03.13.08.13.14 0 .04.14.23.17.23.04 0-.01-.18-.08-.27-.06-.1-.08-.18-.04-.16.04.01.26.35.36.55.1.18.16.3.37.61a1 1 0 0 1 .11.21c.03.13.18.28.26.28h.08l-.04-.1a2.79 2.79 0 0 0-.16-.24 4.55 4.55 0 0 1-.23-.38 2.26 2.26 0 0 0-.16-.27 2.23 2.23 0 0 1-.26-.47.8.8 0 0 0-.1-.2 1.3 1.3 0 0 1-.09-.17c0-.06.08.02.27.3zm-1.5.12c.2.38.17.47-.04.14-.18-.27-.2-.33-.19-.36.04-.06.12.03.23.22zm2.64.6c.43.5.48.59.41.59-.02 0-.2-.22-.3-.35a3.61 3.61 0 0 0-.23-.28c-.14-.16-.2-.27-.16-.27l.28.31zm.23.67c.12.15.15.22.1.22-.04 0-.24-.24-.26-.3-.03-.13.03-.1.16.08zm.41.48c.13.14.17.23.12.23-.04 0-.3-.29-.3-.34 0-.08.04-.05.18.11zm-1.78.18c.07.13.24.31.28.3.08-.02.46.58.4.63-.06.06-.85-.9-.8-.97.03-.04.09-.03.12.04zm2.25.32.06.1c-.02.02-.18-.13-.18-.16 0-.05.06-.02.12.06zm-.52.18c0 .02.02.04.04.06.02.02.03.05.03.08-.01.02.02.08.08.14.06.06.1.11.1.16 0 .09.04.14.12.14.08 0 .08-.06 0-.13a.45.45 0 0 1-.08-.13.85.85 0 0 0-.14-.19.54.54 0 0 1-.1-.13c0-.01 0-.02-.02-.02l-.03.02zm-.28 1.07c.07.08.09.13.05.13a.6.6 0 0 1-.17-.2c0-.04.06 0 .12.07zm37.73.31c-.2.15-.24.2-.18.2.03 0 .1-.06.39-.3.1-.1-.05-.02-.21.1zm-37.22.2a21.41 21.41 0 0 0 1.64 1.56c0 .04-.08 0-.17-.07a39.48 39.48 0 0 0-.22-.17 7.48 7.48 0 0 1-.26-.22.78.78 0 0 0-.2-.14c-.12-.02-.35-.23-.35-.32 0-.02-.03-.05-.07-.07a.23.23 0 0 1-.1-.1c-.01-.04-.15-.2-.3-.37-.15-.16-.28-.3-.28-.32 0-.07.09 0 .31.23zm43.02.33c-.4.43-.6.63-.71.72-.11.09-.17.2-.13.25a3.5 3.5 0 0 1 .37-.35c.27-.24.77-.78.77-.82 0-.07-.12 0-.3.2zm-1.34 1.96c-.18.26-.32.4-.38.34-.02-.02-.04-.01-.08.03-.03.03-.06.05-.08.05a12.28 12.28 0 0 1-1.64 1.25c-.05 0-.52.33-.67.48-.1.08-.5.38-.92.65-.86.58-.81.54-.77.58.02.03.05.02.09-.01a.25.25 0 0 1 .12-.04c.03 0 .23-.11.43-.25.2-.14.46-.3.57-.34.1-.06.28-.16.37-.24.1-.08.39-.3.64-.47a20.02 20.02 0 0 0 2.43-2.03c.07-.06.07-.1 0-.1-.02 0-.07.05-.1.1zm-36.49.68c.09.04.16.12.13.14-.02.02-.23-.1-.23-.15 0-.04.01-.04.1 0zm.59.39c.08.05.14.1.12.1a.85.85 0 0 1-.33-.18c0-.04.06-.02.2.07zm3.68 2.2c.1.04.16.11.1.11a.97.97 0 0 1-.26-.13c-.03-.05.04-.04.16.02zm.42 1.07c.1.05.14.11.04.08-.16-.05-.34-.15-.33-.17.01-.02.05-.01.1.01l.2.08zm-1.47 0c.03 0 .04.03.03.04-.01.03-.1 0-.2-.08-.05-.03.1 0 .17.03zM42.3 57.7c-.21.1-.43.23-.39.25.05.01.62-.25.62-.29 0-.05-.04-.04-.23.05zm-3.16.6c0 .03-.27.13-.29.1-.03-.02.01-.05.14-.08l.14-.04v.02z" clip-rule="evenodd"/></svg>