<svg xmlns="http://www.w3.org/2000/svg" width="185" height="185" fill="none"><g clip-path="url(#a)"><path fill="#fff" fill-rule="evenodd" d="M.2 177a338 338 0 0 1-.1-8.7v-2.5l.2-.4v.2l.1.3v2.3l.1.2h.1v-1l.1-1.1v-.4a23.8 23.8 0 0 0 0-.5l.1-.1h.1V169.1a8.7 8.7 0 0 0 0 .7v.7H.6a50 50 0 0 1-.1.5l-.1 2a.9.9 0 0 0 0 .4v.9a12.3 12.3 0 0 0 0 2.5l-.2.1zM0 159.8v-1.1l.2 1H.2c0 .2-.1.2-.1 0zm.3-3.3c0-.7-.2-1.2-.3-1.2H0v-1l.1-1.2.1-1.3.2.3h.1v-1.4l.1-1.5-.2-.5-.1-.6v3.1a1.7 1.7 0 0 0-.1.4v.1a17.5 17.5 0 0 1-.2-1 1.5 1.5 0 0 0 0-.2 50.2 50.2 0 0 1 .2-3.4c.3.3.4.3.6 0v-.1V155l-.1.5v.2a70.4 70.4 0 0 1-.1-1v-1.1l-.1.6-.1.5v1.4l.5-.3v1.9a2.6 2.6 0 0 1-.1-.4v-.4H.3v-.3zm0-10.2-.2-1-.2-.7v-4.3l.1-.2.2.5.2.5a47.3 47.3 0 0 1 .3-.8v.5l-.1.5.1.8v.1c0 .5 0 .6-.2.6s-.3.1-.2.6v2.9zm-.2-6.6-.1-.2-.1-.3v-1.8a22.5 22.5 0 0 1 0-3.2 35.2 35.2 0 0 1 0-4.5V126l.1-.5.1-.4v.3l.2.2v.5c-.2 2.2-.2 2.8.1 4v.1a2.7 2.7 0 0 1 0 .2l-.1.1v6l.3.7.2.6-.3.5-.3.4v.3l-.1.8zm0-16.3a4.6 4.6 0 0 1 0-.4l-.2-.4V119l.1-.3.1-.2a172.3 172.3 0 0 1 0 5zm0-65A731.7 731.7 0 0 1 0 50v-2.4l.2-.5v.2l.1.3v2.3l.1.1.1.2V49l.1-1v-1h.2v.7a12.3 12.3 0 0 1 0 2.1v.9A9.5 9.5 0 0 0 1 52H.6a75.9 75.9 0 0 1-.2 2.6.8.8 0 0 0 0 .3v3.5a1.1 1.1 0 0 1-.2 0zM0 41.2a4.5 4.5 0 0 0 0-.5 1.8 1.8 0 0 1-.1-.3v-.2c.1 0 .2.2.2.5V41.6l-.1-.4zm.1-4A.3.3 0 0 0 0 37v-1l.1-1.2.1-1.2.2.2a.5.5 0 0 0 .1.1L.6 31a10.6 10.6 0 0 0-.3-1 486.4 486.4 0 0 1 0 3 1.7 1.7 0 0 0-.1.3l-.1.1a29 29 0 0 1 0-1 .8.8 0 0 0 0-.2v-3.6c.4.5.5.6.7.2v-.1V36.5l-.2.8a52.6 52.6 0 0 1-.1-1.5l-.1.5v.7l.1.7h.2l.2-.3v.6a4.9 4.9 0 0 1 0 1.3l-.1-.4v-.4H.3v-.2l-.2-1.2zM.3 28l-.1-.8-.2-1V22l.1-.2.2.5.2.5a75.6 75.6 0 0 1 .3-.8v.5l-.1.5.1.8v.2c0 .4 0 .5-.2.5s-.3.1-.2.6V28zm-.1-6.6-.1-.2-.1-.3v-7.8a12 12 0 0 0 0-1.7V7.6l.1-.4.1-.5V7l.2.3v.4c-.2 2.2-.2 2.8.1 4v.1a1.4 1.4 0 0 1 0 .2l-.1.1v6l.3.7.3.6-.3.4-.3.5-.1.4-.1.7zm0-16.3L0 4.4v-4L.2 0v.6h3L2 1 1.6.9H1v3.3l-.1-.4V1H.2v4zm0 176v-.4l-.2-.4v-.8l.2-.9v.3c.2.8.3 1.5.3 2.6v.5l-.3 1.1v.2l.1.3v.5l-.1-.8-.1-.9v-.6l.1-.7zm0-118.4v-.4L0 62V61l.2-.9c.1.2.3 1.8.3 3v.5l-.2.5v1.5L.1 65l-.1-.8v-.7l.1-.7zm0 95.1-.1.4a7.4 7.4 0 0 1 0-.6v-1a4 4 0 0 1 .1-.3v1.5zm0-118.4a4.6 4.6 0 0 1-.1.4v-1.6l.1-.3v1.5zm0 47.2v-.3a3 3 0 0 1 0-.4v-1a6 6 0 0 0 0-1.5v-.2l.2-1.8-.1-1-.1-1V67l.1-.4a49.4 49.4 0 0 1 .5 2.5V69.7l.2.2v.5c0 .6 0 .7-.2.7l-.1.3a.4.4 0 0 1 0 .1l-.1.4v-.3H1v.7l-.2.1-.1.1.1.5.1.4v2l-.2.1-.1.1v1.7h.1v-.4l.1-.4H1v4l-.2.1v-2.2c.1-.1 0 0 0 .4l-.2.4v.5c0 .7 0 1 .2 1a.6.6 0 0 1 .1.2l.1.1v9.7l-.1.4-.2.5H1v7.3c-.1.2-.1.3 0 .4v20l-.2-.1v-2.1L.5 116v-1.3l-.2-1 .1-.4v-2.1c-.2-3.7-.2-4.4 0-5.2v-1.1l-.2-.9V102.3l.2-2.4a49.4 49.4 0 0 1 0-2.2v-.2l-.1-.2v-2.1l.1-.5v-1.4l.1-.5.2-.6c-.3 0-.4-.5-.5-1.4v-2.1c-.2-.3-.2-.8 0-1.6v-.5zm.1 76v-.8.7zm0-1.4v-.8.8zm0-117v-.8.7zm0-1.4v-.7.7zm.2 91a.4.4 0 0 1 0-.3l.1-1 .1.3.1.3v.2l-.3.5zm0-118.3v-.9l.1-.5.1.3.1.3-.2.5-.1.3zM.6 129a.7.7 0 0 1-.1 0v-.4h.2v.3zm0-118.4a.6.6 0 0 0-.1 0V10.4h.2v.2l-.1.1zm.2 15.6a7.1 7.1 0 0 1-.1-.3 5.4 5.4 0 0 1-.2-.4h.4v.7zm0 118.4-.1-.3-.2-.4H1v.7zm-.1-18.8H.6v-1 .9zM.7 7.4H.6v-.6c0-.5 0-.5 0 0v.5zM.7 185a.6.6 0 0 1-.1 0H.5l-.3-.1a2 2 0 0 1-.2-.1h.6v-3l.2.6.2.6v.2l-.1.2v.6H4.3l-.4.1H1v.7h1.5a100.2 100.2 0 0 1 2.2 0l-.3.2H.7zm0-118.4a.4.4 0 0 0-.1 0v-1.4a2.2 2.2 0 0 1 0-.2 53.5 53.5 0 0 1 .2-1l.2.6v.2l-.1.2v.4l.1.2v.3c0 .5 0 .7-.3.7zm0 95.4v-.6c-.1-.6-.2-.7-.1-.8 0-.4.2-.3.3.1v2.1a85 85 0 0 1-.1 1.4l-.1-.5V162zm0-118.4V43c-.1-.6-.2-.7-.1-.8.1-.3.2-.3.3.2V46.3l-.2-1v-1.7zm0 102.6-.1-.5v-.5H.9l-.2.7v.2zm-.1-6.4v-.4a21.1 21.1 0 0 0 0-.3v-.3l.2.8-.2.2zm0-112v-.5a92 92 0 0 0 0-.4H.9l-.3.9zm0-6.4a6.2 6.2 0 0 1 0-.3V20.5l.2.7-.2.2zm.2 159.3-.2 1.2a40.8 40.8 0 0 1 .3-4.8v2.1l-.1 1.5zm0-118.4-.2 1.2a41.5 41.5 0 0 1 .3-4.8v2.1l-.1 1.5zm0 58.9-.2.3V120l.1.6.1.5zM.8 2.8.6 3V1.6l.2 1.2zm.1 169.5a3.4 3.4 0 0 1-.2-.6 24.2 24.2 0 0 0 0-.8l.3 1.2v.2zM1 54l-.1-.2c-.1-.3-.2-.3-.1-.4v-.8l.2.6v.8zm.1 69.9v-.2l-.1-.3v-1.6a49.7 49.7 0 0 1 0-1.3l.1.1v3.3zm0 2v.2-.2c0-.3 0-.4 0 0zM1 6.2v.3-.2c0-.3 0-.4 0 0zm7-6 2.6-.1a48.6 48.6 0 0 1 6 0h2l1 .2-.5.1h-2.3l-.3.2h.7l1.5.1h1v.2H15.9a8.7 8.7 0 0 0-.7 0h-.7V.7h1.1c.2-.1.1-.1-1.7-.1L11.6.4H8.2L8 .3zM25.2 0h1.1l-1 .2s-.2-.2 0-.2zm3 .3c.8 0 1.5-.2 1.5-.4h1l2.5.2-.4.3h1l2 .1 1-.3h-3l-.5-.2H38c-.3.3-.4.6 0 .7H30.2l-1-.2h2.1l-1-.2h-1.5l.3.5h-1.9l.8-.2V.4zm10.5 0 1.7-.4h4l.5.1-1 .4 1 .1-.2.2-1-.1-1 .1c-.4 0-.5 0-.5-.2s-.1-.3-.6-.2h-2.9zm6.6-.2.5-.2H59l.9.2-.5.2-4.6.1-.3-.1h-6l-1.3.5-.9-.6-1-.1zm16.3 0 .8-.2H66l.5.2h-5zm65 0 2.4-.1h8.1l1 .2-.5.1h-2.3l-.3.2 2.2.1h1v.2h-5.3V.6H134l-1.6-.1-3.3-.1h-2.6V.2zm17 0 1.3-.2-.5.2H143.4zM148 0h1l1.2.1 1.2.1-.3.3 2.9.1 1.1-.3h-3l-.5-.2h4.7c-.4.3-.4.6 0 .7h-7.6l-1-.2h2l-1-.2-1.4.1.3.4h-1.9l.8-.2V.4c.6 0 1.5-.2 1.5-.4zm9 .3 1.7-.3h4l.5.1-1 .4 1 .1-.2.2-1-.1-.8.1c-.5 0-.7 0-.7-.2s-.3-.3-1-.2H157zm6.6-.1.5-.2h13.3l.9.2-.6.2c-2.1-.2-3.3-.1-4.5.1l-.3-.1h-6l-1.3.6-.9-.6-1.1-.2zm16.3 0 .7-.2h4l.4.2h-.6v3L184 2l.1-.4V1h-3.3l.4-.1h2.8V.2h-4zM4 .2l.8-.2h.8l.9.2H6c-.8.2-1.5.3-2.6.3H3L1.9.2 1 .4 1 .2h.8l.9-.1h.6l.7.1zm118.4 0 .7-.2 1.8.2-2 .2h-1.5l-1-.2-.8.1h-.2l1.6-.2 1.4.1zM27.6.3l-.8-.1H28l.7.1h-1.1zM145.2.2h1.2l.7.1H146l-.8-.1zM97.9.2l5.7.2 2-.2h12.2l.6.1-2 .6-1-.1-.3.2H114l-.4-.3h-.2V1h-.7l-.2-.3-.9.2h-2l-.2-.3h-1.7v.1l.8.1V1h-4V.8h2.1l-.8-.2h-1l-.8.4H65.7l.1-.2 4-.2h.5l1-.2.7.1h1.8l8.5-.2 5 .2.4-.1h4l1 .4s.6-.4 1.5-.5c0 0 3-.2 3.7 0zM22.5.3h.7-.7zm1.3 0h.8-.8zm27.4.2h.3l1 .1-.6.2-.7-.3zm118.3 0h.3l1 .1-.5.2-.8-.3zm4.8 0h.4v.2h-.2l-.2-.2zm-15.5.3.7-.3v.4h-.7zM40.4.8l.7-.3V1h-.7zM177.6.7V.5l1 .2h-1zm-59.2 0V.5l1.2.1h.4l1.6.1-1.2.3-.4-.1-1 .1-.6-.3zM23 .7h.6l.8-.1s.1.2-.3.3h-3.8l1-.2H23zm118.4 0 1.4-.1c.3 0 .1.2-.4.3h-3.7l1-.2h1.7zM38.9.8l.9-.1v.3l-1-.3zm6.3-.1h1l-.8.2-.2-.2zm112 0h1v.3l-1-.3zm6.4 0H164.5l-.7.2-.2-.2zM4.3.8 3.1.6a40.8 40.8 0 0 1 6.8.3H5.8L4.3.8zM121.5.6l4.8.2 1.9.1h-4l-2.7-.3zM64 .8l-.4-.2H65L64 .8zm118-.2h1.5l-1.2.2-.3-.2zM12.7.9l.6-.2h.8l-1.2.3h-.2zM131 1l.6-.2h.8l-1.2.3h-.2zm53.7 7.2.2 5.8v4.8l-.3 1-.1-.6v-2.3l-.2-.3v3.1h-.3v-5.1h.2v1l.1.2.2-3.7V8.2l.2-.1zm-.2 20c0 .8.2 1.5.4 1.5l-.2 3.5-.3-.4-.1 3 .3 1v-3l.2-.5V38c-.2-.4-.4-.6-.7 0v-7.8l.2-.9v2.1l.2-1v-1.5l-.5.3v-1.9l.2.8h.3zm0 10.5.4 1.7v4l-.1.5-.4-1-.1 1-.2-.2.1-1-.1-1.5c.2 0 .4-.4.4-.9v-2.6zm.2 6.6.2.5V59l-.2.9-.2-.5c.2-2.2.2-3.4-.1-4.6l.1-.3v-6l-.5-1.3.6-.9.1-1zm0 16.3.2.8V66l-.2.5v-5zm0 65 .2 5.8v4.8l-.2.4v.2l-.1.3v-.2l-.1-.3v-2.3l-.1-.1v-.1h-.1v1l-.1 1v1h-.2v-.7a12.3 12.3 0 0 1 0-2.1v-.9a9.5 9.5 0 0 0 0-1.4H184.4a74.6 74.6 0 0 1 .2-2.6.8.8 0 0 0 0-.3v-3.5h.2zm.1 17.3v.8l.1.2c-.1 0-.2-.2-.2-.5a8.2 8.2 0 0 1 0-.6v-.3l.1.4zm-.1 4a.3.3 0 0 0 .2.2v1l-.1 1.2-.1 1.2-.2-.2a.6.6 0 0 0-.1-.1l-.1 2.9a10.6 10.6 0 0 0 .3 1 490 490 0 0 1 .1-3.3l.1-.1a30.8 30.8 0 0 1 0 3.4v1.3c-.4-.4-.5-.5-.7 0V155a2.5 2.5 0 0 1 0-.7v-.3a2.7 2.7 0 0 0 0-.3v-1.2a2.5 2.5 0 0 0 0-.4v-3.6l.2-.8a52.6 52.6 0 0 1 .1 1.5l.1-.5v-1l-.1-.4h-.2a2 2 0 0 1-.2.3V145.8l.1.2v.5h.4v.2l.2 1.2zm-.1 9.2.1.8.2 1v4.2l-.1.2-.2-.4v-.1l-.2-.5a75.6 75.6 0 0 1-.3.8v-.5l.1-.5-.1-.8v-.2c0-.4 0-.5.2-.5s.3-.1.2-.6V157zm.1 6.6v.1l.1.1v.3l.1 3.5V172a12.2 12.2 0 0 0 0 1.6v3.9l-.1.4v.1l-.1.4v-.2l-.2-.4v-.4c.2-2.2.2-2.8-.1-4V173l.1-.1v-6l-.3-.7a20 20 0 0 1-.3-.6l.3-.4.1-.1.2-.4.1-.3V164l.1-.5zm0 16.3v.4l.2.3v3.7a.6.6 0 0 1 0 .1v.1l-.1.3a2 2 0 0 1-.1.2v-.5h-.4l-.7-.1H181.8l.6-.2.6-.2h.2l.2.1h.6V180.7l.1.4v2.8h.7V180zm0-176 .2.8-.2 1.7V6l-.3-3.1.3-1.1-.2-.8.2-.2.1 1.7-.2 1.3zm0 118.4.2.7v1.5l-.5-2.6v-.6l.3-1-.1-.8v-.2l.2 1.6-.2 1.4zm0 23.3.1-.4v1.6l-.1.3v-1.5zm0-47.2v3.4l-.2 1.8.2 2v12.1l-.1.7-.6-2 .1-1-.2-.3.3-1.7h-.3v-.7l.3-.2-.2-.9v-2l.3-.2v-1.7h-.1l-.1.8h-.2v-4l.2-.1v2.2l.2-.8v-1.5l-.4-.3v-9.7l.3-.9h-.3V65.7l.2.1.2 4v.5l.2 1-.1.9.2 10.1-.2 5 .1.4v1.7l-.1.9v1.4l-.3 1 .5 1.5v4.2zm-.1 42.4v.8-.7zm0 1.4v.7-.7zm-.2-91v.3l-.1 1-.2-.6.3-.7zm0 118.3v.9a6.5 6.5 0 0 1-.1.5 5.1 5.1 0 0 1-.1-.3l-.1-.3.2-.5.1-.3zm0 4.9V174.6h-.2v-.2l.1-.1zm-.3-15.5.1.2.2.4h-.4v-.7h.1zm.1 18.7h.1V178.2c0 .5 0 .5 0 0v-.5zm-.3-59.2h.4v3.2l-.4-1.2.1-.4-.1-.6v-1zm.2-95.4.2 1.4-.3-.3v-3.8l.2 1V23zm0 118.4.2.6V142.8c-.1.3-.2.3-.3-.2V138.7l.2 1v.2a2 2 0 0 0 0 .3v1.2zm.2-102.5v.9h-.3l.3-1zm0 118.3v.9H184.1l.3-.9zm0 6.4V164.6l-.2-.7.2-.2zm-.2-159.3.2-1.2-.2 4.7-.1 2.1V5.8l.1-1.5zm-.1 119.9.3-2.7-.3 6.7v-4zm0-60.3.3-.4V65l-.2-1.1zm.2 118.1.1-.1a21.3 21.3 0 0 1 0 1.5 23 23 0 0 1-.2-1.2l.1-.2zm-.2-169.3.2.6v.8l-.3-1.2v-.2zm0 118.4v.2h.1c.1.3.2.3.1.4v.8a7.6 7.6 0 0 1-.2-.6V131.1zm-.1-69.9.1.5v3.1l-.1-.3v-3.3zm0 117.6v-.3.2c0 .3 0 .4 0 0zm-9.6 6.1h2.5v-.4h-.8l-1.8.1h-1a.9.9 0 0 1-.3 0h-2c-1.7 0-1.8 0-1.6-.2a57.3 57.3 0 0 0 1.1-.2v-.1a20.7 20.7 0 0 0-2.3 0h-2.9v.2h2.5l.7.1h-.1l-.2.2h-2.8l.3.2h.1l.5.1h8.1zm-15.3 0h.8v-.1h-1.2c-.2.2 0 .2.4.2zm-3.7 0 1.2-.3h.3V184.3h.4l.4-.1-1.9-.1.3.4h-.7l-.7.1h-.5a20 20 0 0 1-.6-.1h1l1-.1a1.7 1.7 0 0 0-.1 0l-.5-.2h-5.8a2.9 2.9 0 0 0-.8 0H147c.4.2.4.3 0 .6h-.1a50.2 50.2 0 0 0 3.8.2 17 17 0 0 0 1-.1 1.2 1.2 0 0 0-.1 0 1.9 1.9 0 0 1-.3-.2h-3.2l.6-.1.5-.2h3v.1h-.1l-.2.3 1.2.1 1.2.1h1zm-10 0 1-.2H145l-1.2-.1h-.3c-.5 0-.6 0-.6-.2 0-.1-.1-.2-.6-.2h-.1l-.8.1h-.5l-.5-.1-.2.2a54.6 54.6 0 0 0 .5.3h-.2l-.3.2h.2l.3.1h4l.8-.2zm-5.8 0h.2l-.5-.2h-.6l-.4-.3a13 13 0 0 0-.5-.3l-.6.2-.6.3h-6.2a2.5 2.5 0 0 0-.1-.1h-.1c-1.3.3-2 .3-4.1.2h-1l.3.2h.1l.5.1h3.8a9.6 9.6 0 0 1 1.5 0 35.2 35.2 0 0 0 4.2 0h4.1v-.1zm-16.5 0 .4-.1a181.8 181.8 0 0 0-4.9 0l.3.2h3.8l.4-.1zm-67 0h2.4a1.2 1.2 0 0 0 0-.2v-.1H55a.8.8 0 0 1-.3 0h-2c-1.8 0-1.9 0-1.7-.2a75.9 75.9 0 0 0 1.2-.2v-.1H52a19.8 19.8 0 0 0-2.3 0H47v.2h2.5l.7.1H50v.1h-2.5l-.3.1H47l.3.2h.2l.5.1H56zm-15.4 0a4.5 4.5 0 0 1 .5 0h.4l-.3-.2h-.6l-.5.3h.5zm-3.7 0a.3.3 0 0 1 .1-.1l1.2-.2h.2V184.3h.4l.4-.1h-.1L38 184a3 3 0 0 0-.6 0l.2.2.1.2H37l-.7.1h-.5l-.6-.1h1l1-.1-.7-.2H33a2 2 0 0 1-.1 0h-1.5a2.6 2.6 0 0 1-.4 0h-.3a2.5 2.5 0 0 0-.7 0H28.7c.5.2.4.3 0 .6l1 .1h2.5a.8.8 0 0 1 .2 0 29 29 0 0 0 .9 0 1.7 1.7 0 0 1-.3-.2h-.2a490 490 0 0 0-3 0l1.2-.3h3a.5.5 0 0 1-.2.2l-.2.2 1.2.1 1.2.1h1zm-9.8 0 .8-.2a96.1 96.1 0 0 0-1.3 0l-1.3-.1h-.3c-.5 0-.5 0-.6-.2 0-.1 0-.2-.5-.2h-.2l-.8.1h-.9l-.1-.1-.1.2a77.2 77.2 0 0 0 .4.3h-.1l-.4.2h.2l.3.1h4l.9-.2zm-6 0h.2l-.5-.2H20.3l-.4-.3a8.1 8.1 0 0 0-.5-.4l-.6.3-.6.3H12a1.3 1.3 0 0 0-.1-.1h-.2c-1.2.3-1.8.3-4 .2h-1l.4.2h.1l.4.1h3.9a12.2 12.2 0 0 1 1.6 0h2.7a7 7 0 0 1 1.3 0h4.1v-.1zm159.5 0 .4-.2h.2l.5.1.7.1h1.1l.5-.1-.2-.2h-.3l-.3.1h-.2l-1-.2h-.6c-1 0-1.8.1-2.6.3a9 9 0 0 0-.2 0l.8.1H180.7zm-118.4 0 .4-.2.7.1.7.1h1.1l.5-.1a3 3 0 0 1-.2-.1 3.5 3.5 0 0 0-.3 0h-1l-.5-.2H63c-1 0-2.7.2-2.8.3l.7.1h.1a90.6 90.6 0 0 1 1.2 0zm95.9 0a13 13 0 0 0-.4 0l-.4-.2h-.5a19.6 19.6 0 0 0-.3.1l.4.1h1.2zm-118.4 0h-.4l-.4-.2H38l.3.1.4.1h1.2zm46.5-.1h4.4c1-.2 1.4-.3 1.5-.5H92.8l.5.3h.6l.2-.1h1l.5.2.7-.1h1.1l.2-.1h.1a24 24 0 0 1 2.2 0c1.2 0 1.7 0 2.4.2H104l.9-.1h.1l1-.1c.8.2 1.5.2 5.2 0h2.4l1.1-.2.5.1h.8a91.5 91.5 0 0 0 3.3-.4h-20c0 .1-.2.1-.4 0h-7.3V184.3l-.5-.2-.4-.1H81a.6.6 0 0 0-.2.2c-.1.2-.4.2-1.1.2h-.5l-.4-.1-.4-.2h.6l.5.1h.4a1.8 1.8 0 0 1 .7 0v-.1l-.1-.1h-4v.1l.3.1h.4v.2h-1.6v-.1a2.9 2.9 0 0 0-.1-.2h-2.1l-.4.1h-.1l-.4.1v-.1l-.2-.2h-.8V184.3l.4.1h-.4a.4.4 0 0 0-.1 0c-.3 0-.4-.1-.3-.2 0-.1 0-.2-.7-.2h-.5l-.2.1-.2.1h-.4a6.7 6.7 0 0 0-.5 0 49.4 49.4 0 0 0-1.6.6H80.5l.9-.2 1.8.3h.2c.5-.2 1-.2 1.5-.2a42.8 42.8 0 0 1 1.4 0zm76 0 .2-.1h-.7.4zm-1.5 0 .4-.1h-.8.4zm-117 0 .3-.1h-.7.4zm-1.4 0 .4-.1h-.7.3zm91.4-.3-.5-.2-.2-.1h-.3l-.3.2a16.5 16.5 0 0 0 1.2.1h.1zm-118.4 0-.2-.1-.4-.2h-.4a4.5 4.5 0 0 0-.3.2h.5l.6.1h.2zm113.6 0a.7.7 0 0 0 0-.1l-.1-.1h-.2v.2H129zm-118.3 0a4.5 4.5 0 0 0-.2-.2h-.2v.2h.4zm15.2-.2.3-.1h-.7V184.4l.4-.2zm118.4 0 .3-.1h-.7V184.4l.3-.1.1-.1zm-18.5.1h-.1a28.6 28.6 0 0 1-1 0h1.1zm-118.4 0h-.1a30 30 0 0 1-.5 0H7.4zm59.2 0a.4.4 0 0 1 0-.1c0-.2-.2-.3-.7-.3h-.6l-.3.1a1 1 0 0 1-.2 0H64l-.6.2a54 54 0 0 0 1.8 0h.2l.6.1h.6zm94.8 0 .6-.2.3.1h1.9l.5-.2h-4c-.4.1-.5.2-.1.3h.7zm-118.4 0 .6-.2h.2l.1.1h1.5l1-.2h-4c-.5 0-.5.2-.3.3H43zm102.8 0h.3-.1a9 9 0 0 0-.7-.3V184.4h.4zm-6.4 0h.4l-.1-.1-.1-.1-.8.2H139.4zm-112 0h.4a27.5 27.5 0 0 0-1-.3V184.4h.5zm-6.3 0h.3l-.2-.2-.7.2H21zm160.8 0-1.2-.2-1.5-.1h-4.1.5l1.6.1 4.7.2zm-118.4 0-1.2-.2-1.5-.1h-2a56.5 56.5 0 0 0 4.7.3zm58 0-.3-.2h-.6l-.6.2a10.6 10.6 0 0 0 1.5 0zM3 184.4l-.1-.1a6.4 6.4 0 0 1-.2-.1l-1.2.2H3zm169-.2.2-.1h-.2l-1.2.2h1.1zm-118.4 0 .2-.1H53a7.5 7.5 0 0 0-.6.2H53.7v-.1zm69.9-.1.2-.1h-3.4a3.4 3.4 0 0 0-.2.1h3.4zm2.4 0-.2-.1c-.4 0-.3 0 0 0h.2zM6.5 184l-.3-.1H6.5z" clip-rule="evenodd" opacity=".5"/></g><defs><clipPath id="a"><path fill="#fff" d="M0 0h185v185H0z"/></clipPath></defs></svg>