<svg xmlns="http://www.w3.org/2000/svg" width="44" height="44" fill="none" preserveAspectRatio="none"><path fill="#C41721" fill-rule="evenodd" d="M23.72.52c0 .02.02.03.09.03.08 0 .22.1.19.13a4.68 4.68 0 0 1-.47.02 9.02 9.02 0 0 0-.58.03c-.07.01-.22.02-.33.01a2.6 2.6 0 0 0-.74.07c-.1.04-.2.03-.22-.03a.04.04 0 0 0-.04-.02c-.01 0-.03-.02-.04-.05-.02-.05-.07-.06-.18-.03-.09.01-.07.04.02.04.06 0 .08 0 .08.03 0 .02-.01.03-.07.02a.35.35 0 0 0-.14.01c-.1.04-.18 0-.09-.04.07-.02.02-.03-.19-.02h-.21V.67c0-.05-.01-.05-.13-.02-.2.04-.22.05-.22.09 0 .06-.22.08-.25.02-.02-.03-.03-.03-.19 0a1.79 1.79 0 0 1-.3.03h-.2c-.19 0-.47.03-.53.07-.12.07-.25.07-.45-.01-.05-.02-.06-.02-.1.01a.96.96 0 0 1-.44.1c-.05 0-.09 0-.15.05-.07.04-.09.04-.2.03-.1-.01-.12 0-.17.02a.17.17 0 0 1-.13.03c-.05 0-.1 0-.22.06a2.16 2.16 0 0 1-.66.2c-.13.02-.2.04-.42.13l-.85.35c-.62.24-1.07.44-1.39.6-.14.07-.2.1-.24.1h-.05c0 .01-.03.02-.05.01-.04 0-.1.02-.1.05l.04.01c.09 0 .04.04-.14.13-.1.05-.23.11-.28.15-.16.1-.2.07-.07-.05a.33.33 0 0 0 .08-.08c0-.04-.14 0-.17.05a.8.8 0 0 1-.2.13.8.8 0 0 0-.17.1c0 .1-.37.41-.4.33 0-.05 0-.06-.24.1-.34.23-.44.28-.42.2.01-.06-.02-.06-.1 0l-.15.11c-.1.08-.14.08-.13-.02.01-.08-.1-.01-.27.16-.1.11-.16.16-.19.16a.5.5 0 0 0-.16.08c-.18.12-.24.09-.07-.04.1-.07.11-.1.07-.1v-.04c0-.05 0-.05-.02-.04a.48.48 0 0 1-.1.02c-.03.01-.12.08-.28.23-.14.14-.24.22-.27.22-.05 0-.16.07-.18.12a.37.37 0 0 1-.11.1.94.94 0 0 0-.13.1.22.22 0 0 1-.12.05c-.07.01-.1.04-.2.13l-.34.3a6.15 6.15 0 0 0-.37.31c-.11.11-.15.13-.19.13-.04 0-.06 0-.1.08-.09.12-.16.2-.23.23-.03.01-.16.12-.28.24l-.25.22a.73.73 0 0 0-.15.17 1.3 1.3 0 0 1-.2.22c-.07.05-.08.06-.06.1.01.02 0 .04-.05.08-.13.1-.41.4-.61.67a8.86 8.86 0 0 1-.33.4 4.27 4.27 0 0 0-.2.25l-.17.23a.6.6 0 0 0-.1.15c0 .05-.08.15-.11.15-.08 0 .23-.52.63-1.06l.23-.3c0-.03-.05-.01-.1.03-.1.07-.13.04-.08-.06a9.65 9.65 0 0 1 2.2-2.58 26.2 26.2 0 0 1 1.3-1.19c.35-.29.74-.64.89-.78.29-.27.41-.37.82-.65.25-.18.31-.24.2-.19-.07.03-.1.02-.1-.04s0-.06-.23.04c-.1.06-.26.12-.34.14a1 1 0 0 0-.37.2 8.78 8.78 0 0 1-1.22.75l-.09.1c-.04.04-.07.06-.1.06-.05 0-.1.03-.18.1l-.17.12a3.4 3.4 0 0 0-.42.38.45.45 0 0 1-.13.1 11.02 11.02 0 0 0-1.24 1.06c-.02 0-.12.09-.23.2a11 11 0 0 1-.27.26c-.38.35-1.33 1.53-1.57 1.94a.77.77 0 0 1-.14.18.56.56 0 0 0-.11.15 33.67 33.67 0 0 1-.66 1.12.79.79 0 0 0-.09.34.28.28 0 0 1-.07.18c-.04.05-.06.1-.06.13s-.04.13-.08.22a1.6 1.6 0 0 0-.11.29l-.23.78a.43.43 0 0 0-.03.15.8.8 0 0 1-.07.23 2.48 2.48 0 0 0-.25.98c0 .14-.02.28-.03.3-.03.08-.02.09.04.08.08 0 .1.08.03.15-.05.05-.08.21-.05.28.03.07.04.07.07-.03.02-.08.06-.1.08-.05.01.03 0 .08-.2.56-.1.26-.13.35-.12.4.03.15 0 .24-.13.3-.04.03-.04.04-.05.15-.01.1-.02.13-.06.16a2.57 2.57 0 0 1-.39.82c-.06.06.1-.54.16-.63a.46.46 0 0 0 .05-.08c.06-.13.1-.26.13-.4.02-.08.08-.28.15-.44.12-.32.13-.41.03-.22l-.13.22c-.06.09-.06.1-.05.2 0 .1 0 .13-.05.22-.03.06-.07.18-.08.26-.03.14-.04.16-.12.24a.34.34 0 0 0-.11.2c-.03.12-.09.22-.11.2-.01-.02 0-.07.02-.15.06-.2.02-.23-.05-.04-.09.26-.13.37-.15.39v.04c.08.08-.2 1-.3.97-.04-.02-.06.05-.08.32-.01.16-.03.27-.06.37A9.67 9.67 0 0 0 .8 19c-.01.21-.02.29-.05.3-.02.02-.02.05-.01.1.01.1.03.13.07.1.05-.04.05-.02.03.08-.02.09-.01.1.05.12.02 0 .03.02.04.06 0 .07.05.05.06-.04.02-.15.09-.03.09.16 0 .05 0 .07.02.07.04-.02.02-.46-.02-.48-.03 0-.04-.03-.04-.07a.19.19 0 0 0-.03-.1c-.03-.05-.03-.23 0-.23s.05.06.05.17c0 .1.05.13.07.04.01-.11.02-.12.07-.1.04 0 .04 0 .03-.08-.01-.08.01-.13.04-.07.03.05.03.03.07-.28.09-.73.2-1.18.33-1.26.05-.04.1-.17.15-.43.04-.18.04-.2 0-.17-.08.06-.04-.22.05-.39a.39.39 0 0 0 .04-.18c0-.04.01-.12.03-.16l.04-.2a.7.7 0 0 1 .05-.22.4.4 0 0 0 .05-.17c0-.17.11-.3.18-.22.05.06-.03.52-.14.77-.07.17-.07.21-.03.2.05-.01.06.01.04.1-.02.07-.02.08 0 .1.06.02.02.45-.06.63a.92.92 0 0 0-.04.22c-.03.34-.1.82-.15.93-.04.1-.05.17-.06.37-.02.3-.04.4-.07.4-.06 0-.08.26-.02.3.03.01.04.03.04.17 0 .13 0 .16.03.17.03.02.04.04.04.16 0 .11 0 .14.03.14s.03.08-.04.39a5.35 5.35 0 0 0-.05.3.58.58 0 0 1-.03.13l-.03.49c0 .8 0 .8.03.85.03.03.03.06.03.15l.03.35c.03.23.03.27-.02.27-.04 0-.05.15-.03.34.02.1.03.26.03.35 0 .27.1.76.15.76.08-.02.13.37.06.42-.04.03-.04.03-.02.23.02.11.03.29.03.4 0 .18.01.2.07.23a2.3 2.3 0 0 1 .11.8l.03.17.05.03c.05.03.05.04.06.14 0 .1 0 .11.04.12.03.01.05.04.09.14l.11.3c.07.18.07.2.06.36a.77.77 0 0 0 .1.46c.03.06.04.08.02.12-.03.07-.03.09.02.07.06-.01.07.01.17.32.15.45.35.9.48 1.1.04.05.05.08.04.12 0 .06 0 .07.06.13.07.07.08.07.07.18 0 .13-.03.15-.08.04-.1-.2 0 .18.13.47.04.1.14.21.18.21.04 0 .01-.1-.04-.15-.04-.04-.05-.07-.05-.11a.52.52 0 0 0-.01-.12c-.04-.14.04-.06.14.16.07.14.13.24.18.3.08.08.14.18.14.22l.04.05a.27.27 0 0 1 .05.1c0 .04.03.1.05.12.05.06.05.1.01.12-.04.03.06.16.12.16.04 0 .05.02.01.05-.04.02-.05.12-.02.15a.24.24 0 0 1 .05.1.7.7 0 0 0 .18.32.29.29 0 0 1 .08.1.2.2 0 0 0 .05.07c.04.04.04.1 0 .12-.03.03.1.23.18.29.09.05.12.1.16.2.04.1.34.44.33.35l-.02-.06-.02-.05a.46.46 0 0 0-.09-.14c-.07-.08-.09-.12-.08-.15 0-.03-.02-.07-.11-.18-.21-.24-.34-.46-.28-.49.07-.02.13.03.2.17.04.08.1.19.15.24l.17.2c.06.08.1.12.13.12.04 0 .45.51.46.57v.05c0 .02.02.05.06.08.09.05.13.1.18.2.06.1.39.49.66.76a3.6 3.6 0 0 1 .44.49c.13.12.16.16.21.22l.07.06a.9.9 0 0 1 .24.25c.03.05.16.17.33.3.15.13.37.3.47.4.1.1.37.29.6.44.6.42.77.54.8.6.02.05.1.1.31.24l.34.23c.06.07.2.18.23.18.01 0 .08.03.15.08a.55.55 0 0 0 .17.08c.03 0 .09.09.09.15 0 .03-.07.02-.16-.03l-.1-.03c-.06.02-.02.06.12.13l.3.16c.08.06.14.08.15.07.01-.02-.01-.04-.07-.07-.05-.02-.09-.06-.1-.08a.33.33 0 0 0-.02-.07c-.04-.08.01-.07.46.15a8.69 8.69 0 0 0 .74.35c.3.18.67.33.8.33.06 0 .11.05.11.11 0 .02.02.05.04.06.03.01.03.03.03.06-.02.05.06.1.14.1.04 0 .04 0-.01-.04l-.05-.05c0-.03.05-.02.1.02.03.02.07.04.1.04.08 0 .13.04.07.07-.04.01-.04.02.06.06.24.1.36.2.25.2-.07 0-.04.03.06.06.24.07.27.07.29.04.03-.06.22.01.23.09 0 .03.05.05.25.12.19.06.26.1.3.14l.15.08c.05 0 .15.05.22.08a.43.43 0 0 0 .22.06c.14 0 .28.07.35.18.05.08.05.08.16.08.13 0 .38.06.43.11.03.03.06.04.15.04.1 0 .12 0 .17.05.05.05.1.07.19.06a.19.19 0 0 1 .1.04c.05.03.09.04.28.05.36.02.59.07.67.14.03.03.08.04.23.05.11 0 .57.05 1.01.1a15.83 15.83 0 0 0 1.79.13l.05.02c.02 0 .05 0 .06.02.01.02.1.02.1 0l-.03-.03c-.09-.03.02-.05.3-.05.36 0 .45.04.19.07-.1.02-.11.04-.01.08.06.02.07.02.1 0 .02-.02.08-.03.23-.02.18 0 .2 0 .25-.04.07-.05.21-.1.37-.12h.1v.04l-.02.05h.08c.3-.05.65-.07.65-.04 0 0 0 .02-.02.03-.06.06.01.07.22.03.18-.03.23-.02.17.05a.14.14 0 0 0-.03.04c0 .02.15.04.17.02a.49.49 0 0 1 .13-.04.98.98 0 0 0 .14-.05c.06-.02.45-.02.46 0l-.11.05c-.1.02-.11.03-.1.06 0 .02 0 .03-.02.04-.05.03.13.1.18.07l.18-.05a4.01 4.01 0 0 0 .26-.07c.08-.03.12-.03.14-.02.03.04.17.03.22-.01a.2.2 0 0 1 .11-.04l.16-.02c.07-.02.1-.02.16 0 .07.02.09.02.31-.03a10.68 10.68 0 0 1 .83-.18c.16-.04.18-.04.22-.02.04.03.05.03.1-.01a.5.5 0 0 1 .3-.1c.04 0 .15-.02.32-.07.15-.05.3-.09.35-.09a.65.65 0 0 0 .25-.08.89.89 0 0 1 .24-.08 3.94 3.94 0 0 0 .09-.01l.02-.05c0-.03.02-.04.15-.07.2-.04.45-.13.82-.3a6.95 6.95 0 0 1 .43-.17c.07-.02.14-.05.16-.07l.16-.07c.17-.06.3-.13.36-.18.06-.06.16-.08.16-.04 0 .06-.5.34-1.04.6-.37.16-.43.22-.17.15.12-.03.05.06-.13.17-.84.48-1.67.82-2.48 1-.15.04-.41.1-.58.16-.37.1-.86.23-1.57.4-.48.1-1 .23-1.35.33-.16.04-.5.1-.85.14-.26.03-.33.06-.2.07.07 0 .07 0 .07.07v.06l.22.02c.13 0 .3.02.38.04.13.03.16.03.37 0a8.83 8.83 0 0 1 1.04-.08c.34 0 .4-.01.47-.05.08-.03.1-.03.16-.01.06.02.1.02.17 0l.23-.04c.12-.01.37-.07.55-.12.06-.02.11-.03.13-.02l.36-.06.55-.12c.12-.02.3-.07.4-.11.13-.04.2-.06.25-.05.04 0 .12-.01.27-.07l.27-.07.35-.11.61-.23c.63-.23.97-.38 1.34-.6.09-.04.2-.1.24-.1.04-.02.16-.07.25-.13l.5-.3c.52-.3.58-.34.73-.54a.48.48 0 0 0 .05-.08c0-.02.04-.04.07-.04a.45.45 0 0 0 .15-.1l.18-.15c.2-.13.26-.22.17-.21-.08 0-.09-.04-.02-.12.07-.09.15-.06.1.05-.04.1.53-.46.6-.58 0-.02.1-.1.19-.17a2.45 2.45 0 0 0 .7-.76.99.99 0 0 1 .14-.2c.05-.04.06-.06.04-.07l-.06-.02c-.07-.02 0-.15.08-.15.05 0 .14-.13.15-.2 0-.07 0-.08-.07-.02-.05.06-.09.06-.09.02 0-.04.07-.1.3-.28.4-.3.45-.37.45-.44 0-.09.05-.13.19-.14.1-.01.1-.02.15-.09.06-.09.11-.13.16-.14.02 0 .06-.04.08-.08.07-.1.61-.44.65-.4.02.02-.47.5-.51.48-.02 0-.14.1-.29.24l-.44.4c-.2.16-.25.23-.12.15l.22-.13c.13-.07.16-.1.16-.13 0-.06.06-.13.16-.2.05-.03.14-.11.2-.18a.53.53 0 0 1 .15-.13c.07 0 .17-.05.28-.15a.66.66 0 0 1 .14-.1c.04 0 .01.07-.07.13-.07.07-.1.12-.06.12l.02-.01c0-.02.3-.26.37-.3a.08.08 0 0 0 .05-.06c0-.14.65-.74.71-.66.04.04.1-.02.23-.23.06-.11.14-.2.34-.39a8.66 8.66 0 0 0 1.2-1.38c.09-.14.15-.21.18-.22.07-.02.11-.19.04-.19-.05 0-.04 0 .02-.09.06-.08.06-.09.02-.12-.03-.02-.03-.03 0-.06.04-.09-.02-.08-.1 0-.07.1-.08.08-.03-.05.06-.16.06-.17.04-.17l-.06.08a.85.85 0 0 1-.1.16c-.04.06-.04.08-.03.11.02.03.02.05 0 .08a.22.22 0 0 0-.01.1c0 .06-.07.2-.1.2-.04 0-.04-.05 0-.13.07-.12.03-.15-.05-.05-.05.06-.05.06-.08.02-.03-.04-.03-.04-.07.04-.02.04-.04.06-.05.05a.02.02 0 0 1 0-.02c.04-.08-.06 0-.13.1-.42.59-.82 1-.97 1-.06 0-.08.02-.25.19-.2.2-.21.23-.16.23.04 0 .03.04-.03.12a.83.83 0 0 1-.25.22l-.07.08a1.1 1.1 0 0 1-.13.16.78.78 0 0 0-.11.13c-.04.07-.15.18-.19.18-.02 0-.05.03-.08.1-.07.13-.22.21-.27.14-.03-.06.25-.45.4-.57.17-.1.23-.18.18-.2-.03-.03-.03-.04.03-.1.04-.04.05-.07.04-.1 0-.05.04-.13.18-.3.04-.05.1-.11.11-.14.02-.03.05-.05.07-.05.02 0 .06-.05.1-.1l.24-.33.25-.32a.83.83 0 0 1 .15-.15.68.68 0 0 0 .13-.14c.21-.3.33-.45.35-.43.05.04.2-.17.16-.23-.02-.03-.01-.06.05-.17.06-.1.07-.14.06-.15-.04-.04-.02-.09.06-.19.09-.1.1-.12.05-.12-.02 0-.02 0-.01-.04v-.05c-.04 0-.07.03-.08.07a.22.22 0 0 1-.05.1.51.51 0 0 0-.09.1c-.02.05-.04.06-.07.05-.05-.01-.1.05-.29.36l-.14.23c-.02.04-.02.05 0 .06l.04.03c0 .02-.24.2-.26.2a.54.54 0 0 0-.13.11c-.1.1-.1.1-.14.08-.04-.02-.09.01-.1.06 0 .02-.05.02-.05 0 0-.04.07-.16.12-.22.03-.03.05-.07.04-.08-.01-.04 0-.07.34-.53.34-.47.34-.49.33-.58-.02-.09-.04-.07-.12.09-.05.09-.08.14-.12.16a.5.5 0 0 0-.09.06.23.23 0 0 1-.06.04c-.01 0-.05.05-.07.1-.06.1-.11.13-.11.06 0-.05.1-.21.14-.23l.02-.06c0-.07.02-.08.1-.12.06-.02.09-.05.15-.16.06-.1.09-.14.13-.15a.26.26 0 0 0 .07-.04h.04c.05 0 .08-.06.06-.09-.04-.04 0-.15.05-.15.1-.02.13.22.04.35-.08.14-.06.15.05.03.12-.13.15-.13.1-.01-.02.03-.03.07-.02.07.01.02 0 .03.1-.13.1-.15.18-.19.13-.07-.02.05 0 .14.02.14l.17-.19a5.85 5.85 0 0 1 .37-.43l.04-.07c.02-.02.09-.14.15-.27l.16-.27a.45.45 0 0 0 .08-.14c.16-.38.17-.47.04-.26-.1.16-.16.29-.2.39-.02.1-.19.17-.3.15a.06.06 0 0 0-.06.02l-.05.02-.06.08c-.03.07-.05.09-.2.18-.1.06-.1.08-.05.1.03.01.06 0 .11-.06.08-.07.14-.07.09.01l-.24.3a.9.9 0 0 0-.15.13l-.14.12c-.03 0-.02-.05 0-.07.05-.03.06-.15.02-.18-.02-.01-.02-.03.02-.11.06-.1.06-.1-.01-.06a.1.1 0 0 1-.08.01c-.05-.01-.23.15-.21.2.01.04-.04.09-.07.07-.05-.01-.03-.06.09-.26l.11-.24a.4.4 0 0 1 .05-.12l.05-.12c0-.02.03-.04.06-.05.05-.02.14-.13.29-.36.12-.2.22-.32.25-.32.04 0 .2-.18.2-.23 0-.1.02-.15.12-.2a.3.3 0 0 0 .14-.14.46.46 0 0 1 .1-.13c.04-.02.05-.04.05-.08 0-.06.03-.13.22-.42.08-.1.15-.23.16-.26.01-.03.04-.06.06-.07.03 0 .07-.04.1-.09a.42.42 0 0 1 .1-.12c.07-.04.15-.16.2-.3.1-.27.25-.48.25-.35 0 .06.02.07.06.05.04-.02.04-.08 0-.1-.05-.02 0-.35.1-.6.05-.13.06-.16.04-.19a.33.33 0 0 1-.04-.1.12.12 0 0 0-.06-.09c-.04-.02-.06-.05-.07-.1-.02-.1-.04-.1-.07 0a.47.47 0 0 1-.04.13c-.04.06-.06.01-.02-.09.02-.07.03-.14 0-.1l-.07.1a.6.6 0 0 0-.1.26c-.04.25-.07.37-.13.46-.06.09-.06.1-.03.14.03.05 0 .17-.08.25a.27.27 0 0 0-.07.14c0 .1-.03.15-.07.15-.06 0-.05-.16.02-.32l.05-.14c0-.03-.1.1-.12.14a1.18 1.18 0 0 1-.05.14c-.04.1-.08.12-.06.04a1.73 1.73 0 0 0 .02-.1.62.62 0 0 1 .04-.12c.06-.16.1-.29.08-.32-.03-.05 0-.1.08-.2.06-.06.07-.08.05-.1-.02-.03-.02-.04 0-.07.06-.06.1-.17.08-.23a.2.2 0 0 1 .02-.12l.03-.07-.05-.06c-.13-.15-.16-.38-.08-.63.03-.12.04-.14.01-.18-.02-.04-.02-.05.03-.09.05-.04.05-.05.03-.08-.04-.07 0-.12.12-.2.03-.01.03-.02 0-.04-.03-.06.14-.63.23-.71a.53.53 0 0 0 .1-.16c.03-.08.04-.08.07-.06.03.02.05.02.07-.01.03-.02.04-.03.05-.01.01.01.03.02.05.01.02 0 .05 0 .07.02.02.03.04.03.07.02.06-.02.07-.06 0-.12-.03-.03-.05-.07-.05-.09s-.02-.03-.04-.03c-.02-.01-.03-.03-.03-.06a2.54 2.54 0 0 0-.03-.24c-.04-.2-.03-.34.03-.4l.04-.03-.04-.12c-.1-.28-.07-.44.08-.6a.28.28 0 0 0 .05-.1.12.12 0 0 1 .05-.06c.03-.01.03-.04.03-.16 0-.15.06-.33.1-.33.04 0 .05.1.03.23-.01.12-.01.15.01.2a.36.36 0 0 1 .03.13c0 .11.03.1.04-.01 0-.08.02-.1.05-.14.04-.03.05-.05.06-.28 0-.13.02-.28.03-.32.02-.07.02-.1 0-.13-.03-.05-.01-.17.03-.19.05-.03.1-.18.1-.32 0-.15.05-.18.06-.04.01.09.04.08.07-.02.03-.15.08-.06.08.17 0 .1.03.07.1-.1.07-.18.11-.22.1-.1a.76.76 0 0 1-.04.13c-.03.08-.04.17-.03.17l.04-.07c.04-.12.07-.16.12-.14.05 0 .1-.1.07-.16-.03-.05-.02-.35.02-.34.02 0 .03.02.04.09 0 .16.08.08.08-.09 0-.1 0-.1.05-.1.06 0 .06-.02.01-.14-.03-.07-.03-.1-.01-.15.03-.1.07-.1.07-.01 0 .08.03.08.04 0 .02-.08.02-.1-.02-.1-.06 0-.07-.11-.01-.26.02-.05-.17-.06-.22-.01-.04.04-.08.04-.08.01 0-.01 0-.02-.01-.01l.03.09c.1.15.1.38 0 .38-.04 0-.04 0-.04.1l-.01.12a.2.2 0 0 0-.07.05c-.09.1-.11.06-.13-.22-.01-.23 0-.3.04-.25.03.05.04.03.05-.15.02-.16 0-.23-.04-.13 0 .05-.06.05-.06 0 0-.17-.03.03-.04.25 0 .34-.04.44-.16.45-.07.01-.08.06-.04.15.03.06.04.1.04.16 0 .08-.05.13-.05.06 0-.08-.06-.04-.08.05-.02.1-.08.13-.08.05 0-.07-.02-.1-.05-.1-.02 0-.03.02-.03.09 0 .1-.1.33-.17.33-.03 0-.03-.01-.02-.17.01-.14.01-.16-.01-.17-.02 0-.03-.03-.03-.04 0-.09-.11-.1-.16-.02-.05.1-.08.09-.08-.02 0-.1.02-.11.17-.2.05-.02.04-.09-.01-.07-.06.01-.07 0-.05-.16.02-.14 0-.3-.03-.3 0 0-.02.02-.02.06 0 .05-.01.06-.04.06-.04 0-.04 0-.03-.1a1.71 1.71 0 0 0 0-.27l-.02-.17.06-.06c.07-.08.08-.13.02-.13a.32.32 0 0 1-.1-.02c-.07-.03-.07-.01-.09.2-.02.21-.04.28-.12.28-.05 0-.04-.1.03-.21.05-.08.05-.1.04-.22-.01-.1 0-.13.02-.16.02-.02.03-.05.02-.09-.02-.07.02-.12.11-.16l.06-.02v-.16c0-.14 0-.17.04-.23.1-.13.13-.3.08-.37-.05-.05-.02-.26.04-.3.03-.02.04-.04.04-.09 0-.1.02-.25.04-.25.08 0 .17.65.1.66-.05 0-.05.02-.05.14 0 .18.06.25.08.1 0-.12.1-.04.1.08 0 .07.03.08.09.01.02-.03.06-.05.08-.05.07 0 .09-.04.09-.21a.52.52 0 0 1 .01-.18l.02-.07c0-.03 0-.05-.02-.05l-.01.02c0 .05-.07.23-.1.28-.06.1-.1.02-.07-.14a2.94 2.94 0 0 0 .03-.25c.01-.08.02-.14.05-.17.06-.08.01-.22-.07-.22-.04 0-.04 0-.04-.13 0-.12 0-.12-.05-.13-.04-.01-.04-.03-.04-.1s-.04-.15-.07-.15c-.01 0-.03.04-.04.1-.01.1-.02.1-.06.1-.03 0-.04.02-.05.05-.01.09-.06.04-.08-.08-.02-.13-.02-.13-.07-.09-.03.03-.03.03-.04 0a1.06 1.06 0 0 1-.1-.46 1.76 1.76 0 0 1 .01-.23c.02-.04.06.04.07.15.02.15.06.19.06.05 0-.05.01-.1.03-.1.02-.02.03-.05.02-.08a4.88 4.88 0 0 1-.04-.32c-.03-.36-.04-.4-.08-.43-.02 0-.04-.04-.04-.07 0-.03-.02-.05-.04-.05-.04 0-.06-.05-.06-.13 0-.05-.1-.14-.15-.14-.1.02-.1-.43 0-.46.02 0 .05-.03.07-.06.05-.1.08-.07.14.15.05.17.06.2.1.21.02 0 .05.04.07.07.05.07.05.05-.03-.18a.91.91 0 0 1-.05-.23c0-.02-.01-.07-.04-.13-.05-.1-.05-.13 0-.13s.05-.04.01-.09a.14.14 0 0 0-.09-.04c-.06 0-.12-.05-.14-.13-.03-.07-.03-.14 0-.15.05 0 .05-.03 0-.12a.44.44 0 0 1-.06-.1c0-.02-.01-.04-.03-.05a.19.19 0 0 1-.04-.07l-.04-.04c-.04 0-.01.13.09.41l.1.33v.03c-.02 0-.05-.06-.06-.11-.05-.14-.07-.16-.22-.19s-.16-.03-.13.03c.03.07.03.09-.02.09a.09.09 0 0 0-.06.03c-.02.02-.03.02-.05 0-.03-.02-.05.01-.05.08 0 .06-.05.04-.09-.04-.06-.13-.14-.12-.1 0 .05.16-.02.17-.13.02-.13-.17-.14-.28-.02-.25.06.01.07-.01.02-.1-.06-.09-.13-.07-.13.04 0 .08-.04.05-.07-.05-.03-.08-.08-.13-.08-.08 0 .04-.05.01-.08-.05-.03-.06-.07-.08-.09-.04a.27.27 0 0 1-.1.04l-.08.03v.27h-.07c-.06 0-.07 0-.09-.05-.02-.06-.04-.07-.07-.02-.04.08-.18.01-.22-.1-.02-.09-.27-.35-.3-.33l-.02.08c0 .06-.04.09-.06.03 0-.02-.03-.02-.05-.02-.05.01-.36-.64-.34-.72.02-.09.2.02.27.16a.85.85 0 0 0 .1.16.5.5 0 0 1 .1.16c.01.05.03.09.05.09.03 0 .03 0-.05-.2-.06-.14-.07-.18-.06-.2.03-.06-.04-.15-.08-.11-.03.02-.06 0-.1-.08-.04-.07-.03-.1.03-.08.03.01.03 0 .02-.02-.02-.06-.04-.2-.02-.2.08 0 .04-.16-.05-.18-.06-.02-.35-.4-.39-.51a1.17 1.17 0 0 1-.03-.17c-.01-.07-.03-.1-.1-.16-.1-.1-.14-.19-.1-.21.04-.02.02-.06-.03-.06-.04 0-.04 0-.03-.06.01-.06-.03-.24-.07-.27a.08.08 0 0 1-.03-.06.33.33 0 0 0-.06-.11.3.3 0 0 1-.06-.13c0-.08-.07-.2-.12-.2-.08 0-.28-.31-.33-.51a.57.57 0 0 0-.1-.16c-.07-.09-.08-.11-.07-.18 0-.08-.03-.11-.16-.16a.69.69 0 0 1-.34-.32c-.1-.17-.27-.37-.3-.37-.11 0-.36-.22-.34-.28.02-.04-.33-.49-.4-.5-.04-.01-.02.01.13.21.23.3.27.4.08.22-.1-.12-.14-.1-.03.02a.54.54 0 0 1 .1.12c0 .03.04.07.09.11.05.04.08.08.08.1 0 .07.1.22.15.23.17.04.46.54.5.82.01.15-.04.17-.08.03a.66.66 0 0 0-.13-.18 7.9 7.9 0 0 1-.36-.41 18 18 0 0 0-4.08-3.66c-.24-.15-.3-.2-.32-.25-.05-.1-.06-.1-.1-.07-.05.02-.26-.07-.37-.16a.33.33 0 0 0-.09-.05 4.73 4.73 0 0 1-.31-.17c-.81-.43-1.9-.89-2.88-1.2a2.76 2.76 0 0 1-.3-.1 1.03 1.03 0 0 0-.2-.06 13.25 13.25 0 0 1-1.04-.24c-.22-.05-.28-.07-.3-.1a.13.13 0 0 0-.17-.03c-.03.02-.14 0-.44-.04-1-.16-1.55-.2-2.69-.2-.69 0-.9-.01-.9-.03 0-.04-.05-.04-.09 0-.05.04-.14.06-.2.03-.04-.02-.06-.02-.15 0-.16.05-.23.05-.26 0-.02-.03-.05-.05-.06-.05-.06 0-.03-.05.04-.07.1-.04.15-.03.16.01.01.04.02.04.1.03a1.2 1.2 0 0 1 .11 0c.02 0 .03-.02.03-.05 0-.05.04-.06.19-.02.13.02.14.02.24-.01.09-.03.15-.04.4-.04l.33-.01c.03-.02.24 0 .48.02.1.01.11.01.14-.03.02-.03.04-.04.08-.03l.48.02c.39 0 .44 0 .47.03.05.04.08.03.04 0-.02-.03-.02-.04 0-.07.06-.06.02-.09-.06-.05-.07.04-.09.04-.12 0-.01-.02-.06-.02-.19-.02-.16 0-.26-.03-.22-.07a2.24 2.24 0 0 1 .66.01c.08 0 .1.01.07.05s-.02.04.1.05c.08 0 .22.03.32.05l.3.03a.38.38 0 0 1 .14.03c.07.04.08.04.15.05.08.02.1.05.06.1-.03.03-.04.08-.01.08l.03-.04c0-.03.02-.03.06-.03h.06c.02-.03.15-.03.17 0h.1c.05 0 .1.01.12.04.05.04.29.08.32.05.04-.04.15 0 .18.06 0 .03.04.05.09.06l.2.07c.11.03.14.04.16.02.05-.04.18-.02.22.05l.06.05c.08 0 .29.06.33.1.07.06.16.07.21.05.07-.04.34.05.34.1 0 .01-.05.02-.12.02-.1 0-.12 0-.13.02 0 .04.25.12.3.1.02-.02.09 0 .22.03.21.06.26.06.3.03.05-.02.2.03.42.13.08.05.16.07.18.07a.43.43 0 0 1 .17.05c.2.09.25.1.17.05-.06-.05-.08-.1-.03-.08.08.03.12.03.12 0s-.1-.1-.15-.13c-.07-.02-.02-.08.05-.06.05.02.17.12.19.17.01.03.02.04.05.03.05-.01.39.12.4.16 0 .02.03.04.05.05.03 0 .15.06.28.12a9.6 9.6 0 0 0 .47.22c.02.03.12.09.22.14.18.1.29.18.29.2 0 .03-.05.02-.17-.04-.13-.07-.22-.05-.1.02.04.03.04.08.01.14-.03.05 0 .06.06.02.11-.06.17-.04.34.12.06.06.16.13.24.17.08.04.13.08.14.11.02.04.1.11.13.1 0-.01 0-.03-.02-.05-.03-.03-.04-.07-.02-.07.07 0 .35.24.35.3 0 .02.07.1.2.18l.21.16c.07.06.03-.07-.05-.14-.05-.05-.04-.07.01-.06.04.01.05.01.04-.03-.03-.09.06-.07.1.02a.6.6 0 0 0 .15.13c.1.08.14.1.13.13 0 .02 0 .04.02.04l.02-.03c0-.02.02-.03.03-.04.04-.01.17.08.17.11 0 .02.04.07.09.11.08.07.08.09.06.11-.03.04.03.1.11.1s.07-.02-.06-.15c-.13-.14-.16-.21-.15-.28.01-.05-.02-.06-.08-.02-.03.02-.05 0-.15-.07a.7.7 0 0 0-.15-.1l-.24-.17c-.33-.27-.95-.67-1.52-.99a.63.63 0 0 1-.15-.1c-.03-.06-.15-.13-.18-.13l-.46-.2a10.47 10.47 0 0 0-.58-.28c-.16-.06-.19-.1-.09-.11a.57.57 0 0 0 .1-.02c.01-.01.04 0 .07.03.02.03.05.05.07.05.07 0 .17.05.22.1a1 1 0 0 0 .43.21c.04 0 .07.01.11.05.06.06.22.1.17.04-.09-.1-.1-.2-.02-.2.05 0 0-.03-.13-.07-.14-.05-.22-.04-.11 0 .06.03.09.07.05.1l-.11-.05a2.16 2.16 0 0 0-.23-.1c-.21-.08-.33-.14-.33-.17 0-.04.07-.02.35.1.09.04.1.04.1-.02s.05-.08.1-.03c.04.04.36.15.44.15.03 0 .09.02.14.06.16.12.4.21.4.15-.02-.08 0-.09.06-.08.11.02.17.11.1.14-.04.01-.04.02-.02.04.04.03.04.07 0 .07-.06 0-.04.03.07.1a1 1 0 0 1 .14.11.2.2 0 0 0 .08.06c.06.02.09.04.09.08 0 .03.02.04.09.05a1 1 0 0 1 .16.05c.07.03.08.03.08.01 0-.02-.34-.3-.45-.38-.1-.06-.14-.1-.14-.16s.06-.05.13.02a.89.89 0 0 0 .16.1l.1.07a.48.48 0 0 0 .07.1c.03.03.1.1.13.15a.66.66 0 0 0 .17.13l.1.05.04-.04c.05-.04.1-.04.14 0a.07.07 0 0 0 .05.03c.07 0 .47.35.47.42 0 .1-.12.07-.4-.1a2.31 2.31 0 0 0-.23-.15c-.04 0-.02.06.04.1.06.06.07.09 0 .07-.06-.01-.05 0 .03.09.05.05.07.06.12.06.06-.01.17.05.17.1s.07.13.14.17c.05.02.08.04.08.07 0 .03.04.06.11.1.07.03.2.13.35.28l.36.3c.06.05.13.1.14.13.03.06.07.06.07 0 0-.02-.03-.07-.1-.12-.23-.2-.39-.37-.39-.4 0-.05.03-.04.15.06s.2.1.11 0l-.04-.05a.74.74 0 0 0-.08-.14 1.99 1.99 0 0 1-.1-.17.64.64 0 0 0-.15-.15c-.13-.1-.15-.13-.09-.13.07 0 .06-.02-.02-.09a.31.31 0 0 1-.08-.11c-.01-.04-.06-.09-.2-.18a2.87 2.87 0 0 1-.73-.6c0-.06.11-.03.24.06l.21.11.1.04.03-.04.04-.04-.07-.03a7.4 7.4 0 0 1-.67-.41c-.14-.1-.13-.15.02-.1.04.02-.05-.05-.23-.16l-.1-.08c0-.01-.02-.02-.05-.02-.04 0-.12-.08-.12-.12 0-.02.02-.03.04-.03.04 0 .13.07.13.1 0 .02.02.03.06.03.15 0 .68.31.68.4 0 .02.03.05.08.07.05.02.08.05.08.07 0 .02.04.05.1.07a.56.56 0 0 1 .15.1.44.44 0 0 0 .17.1l.2.08c.05.03.1.04.1.02.04-.06.74.37.84.52.1.15.35.32.3.2-.04-.08 0-.07.26.05.08.03.32.31.3.35 0 .05.06.13.11.13.02 0 .07.02.11.05l.13.07c.07.02.1.12.03.12-.06 0-.06 0 .25.32.37.38.47.52.43.55-.03.02-.03.03.01.1.08.12.09.14.06.16-.03.03-.17-.07-.18-.14a1.26 1.26 0 0 0-.14-.23 1.02 1.02 0 0 1-.12-.2.72.72 0 0 0-.15-.17 1.99 1.99 0 0 1-.2-.22.22.22 0 0 0-.11-.1 7.88 7.88 0 0 0-.93-.77c-.04-.02-.07 0-.03.03v.04c-.03.05-.03.05.11.14.13.08.23.17.21.19-.02.02-.18-.03-.23-.08-.08-.07-.09-.04-.01.04.09.1.09.13 0 .08a.77.77 0 0 0-.1-.04.05.05 0 0 1-.03-.05.09.09 0 0 0-.03-.06c-.04-.03-.02-.06.03-.03.06.03.06 0 0-.05-.13-.1-.17-.1-.11.02.05.13.03.17-.04.06-.02-.04-.05-.07-.06-.07-.03 0-.01.08.03.14.02.04.03.08.02.1 0 .03 0 .06.05.1l.05.1c0 .02.04.06.08.1a.35.35 0 0 1 .1.1.94.94 0 0 0 .12.18c.06.07.2.26.31.43.16.23.24.34.35.44.1.1.15.16.16.19a.25.25 0 0 0 .03.09c.07.1.02.13-.16.05-.1-.04-.14-.04-.1 0 .03.03.02.07-.02.06-.06-.01-.04.03.04.09.15.1.32.33.3.4-.01.05.06.1.2.12.06.01.07.02.08.07 0 .02.02.06.04.07l.12.07c.04.03.08.04.08.03.05-.08.69.72.66.83v.04c.02 0 .06.07.11.14.06.1.09.12.1.1.01-.01.02-.02.05 0 .01.02.07.05.12.08a.31.31 0 0 1 .14.16c.13.27.28.47.32.42.06-.07.16-.04.24.07.07.1.11.12.12.06 0-.04-.45-.67-.5-.7-.08-.02-.19-.22-.14-.26.03-.01.02-.03-.03-.11a.42.42 0 0 1-.07-.13c0-.04-.1-.17-.14-.17-.07 0-.25-.28-.24-.35.01-.02 0-.06-.03-.1a2 2 0 0 1-.22-.35c0-.03.04-.03.08.01.04.05.06.03.06-.06 0-.07.04-.06.15.07.1.12.15.12.05 0-.08-.1-.04-.12.07-.02.18.15.17.07-.01-.14-.12-.13-.14-.15-.15-.12-.01.1-.22-.14-.22-.25v-.05l.04.05c.05.06.07.06.06 0-.01-.05 0-.06.1 0s.07 0-.08-.14a.74.74 0 0 1-.14-.15c0-.01-.02-.04-.06-.06-.06-.04-.13-.15-.11-.2.03-.07.09-.02.37.33a4.31 4.31 0 0 0 .3.34s0-.03.02-.04c.03-.03.03-.06 0-.17l.01-.04c.05 0 .09.05.11.16.02.09.04.11.16.21.12.1.14.13.14.18 0 .04 0 .06.03.06.06.02.09.04.09.11 0 .04 0 .06.03.06.09 0 .2.17.17.25-.03.05.05.2.09.18v-.03c-.03-.03-.03-.07 0-.07.02 0 .1.1.17.2.14.2.15.24.07.26-.06 0-.06 0 .04.14l.1.16c0 .02.05.1.1.17l.09.17c0 .02.02.04.04.04.04 0 .01-.06-.15-.34-.17-.28-.17-.29-.09-.3.05 0 .06 0 .11.08.07.09.1.1.1.04 0-.05-.07-.18-.23-.44-.15-.24-.18-.3-.16-.32.02-.03.34.39.53.7.08.13.1.15.1.08a.26.26 0 0 0-.07-.13c-.06-.06-.06-.07-.04-.1.05-.04.04-.04-.13-.27-.2-.28-.2-.26-.16-.3.03-.04-.03-.14-.2-.37a2.25 2.25 0 0 1-.2-.28 2.52 2.52 0 0 0-.47-.54c-.01.05-.05.04-.12-.04-.1-.11-.16-.23-.14-.27.02-.03 0-.07-.15-.26a2.48 2.48 0 0 1-.2-.3c-.03-.08-.07-.12-.12-.12-.05 0-.44-.42-.43-.46.02-.05-.23-.35-.27-.31-.03.03-.04.02-.1-.07-.05-.08-.07-.1-.12-.1-.04 0-.08-.02-.15-.07a12.98 12.98 0 0 0-.24-.21.7.7 0 0 1-.23-.27.85.85 0 0 0-.32-.34c-.06-.04-.07-.05-.07-.1 0-.07-.02-.09-.06-.04-.03.04-.06.02-.35-.24a5.25 5.25 0 0 0-.97-.72c0-.04-.07-.1-.14-.1-.06 0-.13-.04-.13-.08a.08.08 0 0 0-.03-.06c-.06-.05-.01-.1.07-.06.1.05.05-.01-.13-.16-.28-.23-.43-.31-.46-.25-.03.03.04.1.1.1.04 0 .06.02.08.06a.83.83 0 0 0 .08.1c.08.08.02.1-.08.03-.27-.19-.34-.24-.4-.25-.09-.01-.2-.07-.2-.12-.01-.03-.03-.03-.07-.03-.05 0-.08-.02-.14-.07-.03-.03-.08-.06-.1-.06-.04 0-.06-.05-.05-.1 0-.04 0-.05-.03-.06-.05 0-.07 0-.04.04.07.08-.01.1-.1.02a.47.47 0 0 0-.18-.1c-.18-.04-.46-.2-.72-.38-.18-.13-.62-.3-.71-.29-.04 0-.12-.02-.35-.12l-.3-.13c-.02 0-.03-.02-.04-.04-.01-.05-.07-.08-.1-.06-.04.02-.14 0-.2-.06a6.9 6.9 0 0 0-1.19-.43 1.08 1.08 0 0 1-.21-.09 1.04 1.04 0 0 0-.27-.09.39.39 0 0 1-.15-.05c-.02-.02-.07-.03-.13-.03a.92.92 0 0 1-.35-.12 3.31 3.31 0 0 0-.5-.1 11.93 11.93 0 0 1-.6-.13 3.81 3.81 0 0 0-.48-.07 3.98 3.98 0 0 1-1.15-.18c-.02-.02-.07-.03-.4-.05-.29-.02-.38-.03-.41-.05-.04-.03-.1-.03-.36-.04-.3 0-.32 0-.36-.04-.06-.06-.02-.09.1-.09.1 0 .17-.04.12-.07a2.67 2.67 0 0 0-.66 0zM20 .94c.03 0 .03.05 0 .06-.16.04-.31.02-.27-.04.03-.02.11-.04.19-.03a.8.8 0 0 0 .08 0zm-2.43.6c0 .02-.15.1-.2.09-.03-.02-.01-.06.06-.1.07-.03.14-.03.14 0zm6.62.28c.04.03 0 .05-.14.05-.13.01-.21-.03-.14-.07a.6.6 0 0 1 .28.02zm.19.05c.03.02.01.07-.04.08-.05.01-.1-.03-.08-.07 0-.03.08-.04.12-.01zm1.84.1a.3.3 0 0 0 .17.02c.11-.02.34.02.57.08a6.18 6.18 0 0 1 1.95.52l.37.12c.27.11.5.18.65.2.1 0 .12.02.13.05 0 .03.05.05.16.08.29.09.42.15.42.2 0 .04.01.05.25.2.21.13.03.08-.22-.06-.21-.12-.33-.14-.2-.02.06.04.06.05.04.07-.03.04.01.06.06.03.08-.04.45.2.4.24-.03.03-.37-.03-.4-.07a.17.17 0 0 0-.1-.05h-.06l.08.06.08.1.08.03c.05.02.08.03.08.05 0 .06-.17.01-.23-.06-.04-.04-.04-.04-.09-.02-.06.03-.24-.05-.24-.12 0-.05.06-.07.1-.03.04.03.06.03.1.01.04-.03.04-.03-.15-.1-.16-.06-.17-.06-.17 0s-.08.05-.17 0c-.03-.04-.07-.05-.09-.05-.05.02-.3-.07-.31-.1 0-.04.03-.04.15 0a.27.27 0 0 0 .1.01c.02-.02-.05-.06-.12-.07-.16-.02-.23-.05-.22-.08.01-.05-.04-.1-.08-.08a.34.34 0 0 1-.14-.03.7.7 0 0 0-.18-.04c-.08 0-.27-.05-.35-.1-.1-.05-.35-.16-.36-.15a.48.48 0 0 1-.15-.05.7.7 0 0 0-.17-.07.05.05 0 0 1-.05-.03c-.01-.04-.06-.05-.07-.02-.02.03-.08.02-.13 0a5.73 5.73 0 0 0-1.26-.27.84.84 0 0 1-.22-.03.52.52 0 0 0-.2-.03.59.59 0 0 1-.23-.03 3.1 3.1 0 0 0-.81-.1 2.92 2.92 0 0 1-.41-.03 5.8 5.8 0 0 0-.63-.03h-.67c-.15-.01-.1-.08.06-.08.05 0 .09-.01.11-.04.04-.04.62-.06.65-.02.02.05 1.13.02 1.17-.02.05-.06.8-.06.95 0zm-14.2.08a10.9 10.9 0 0 0-1.31.83l.17-.1.5-.3a8.24 8.24 0 0 1 .79-.45c0-.02-.07-.01-.15.02zm19.48.13a.5.5 0 0 1 .08.06c.01.02.04.03.05.03l.05.05.05.05c.06 0 .22.08.23.11.02.03.05.06.14.09.15.05.4.17.5.24.03.03.1.06.15.08.1.03.22.12.23.18 0 .03.02.04.08.03.06 0 .08 0 .13.06.07.06.08.06.06-.02 0-.05-.02-.07-.12-.11a1.27 1.27 0 0 1-.2-.13.39.39 0 0 0-.13-.08c-.1 0-.26-.11-.25-.18.01-.06-.17-.17-.28-.17a.47.47 0 0 1-.26-.11c-.04-.03-.07-.05-.1-.05l-.2-.07c-.27-.1-.27-.1-.21-.06zm-5.23.04c0 .01.23.04.25.03v-.03c-.02-.02-.25-.03-.25 0zm2.23.5v.01l.23.06c.3.09.33.1.29.06-.08-.06-.52-.17-.52-.13zm.98.3c0 .02.06.04.12.06a.64.64 0 0 1 .17.07c.09.07.47.12.4.06-.05-.05-.7-.22-.69-.18zm-.6.06c.1.05.1.08 0 .07-.12-.02-.18-.05-.18-.08 0-.04.1-.04.18 0zm5.86 0c0 .02.71.52.82.59.12.06.08 0-.1-.15-.31-.26-.75-.53-.72-.44zM17.2 3.1c0 .05-.02.07-.17.1-.2.02-.21-.03-.02-.1.15-.04.2-.04.2 0zm4.76.57c.06.05.03.08-.11.1-.13 0-.15-.03-.04-.09.08-.05.1-.05.15 0zm-.6.07c.04.05-.19.14-.23.09-.02-.02.05-.08.1-.1.09-.02.1-.02.13.01zm-.34.02c.07.02.08.05.03.07-.08.03-.27 0-.27-.05 0-.03.12-.04.24-.02zm-.54.13c0 .04-.01.05-.05.06-.07 0-.1-.05-.04-.09.05-.03.09-.02.09.03zm10.98.12c.1.07.01.09-.1.03-.08-.04-.1-.06-.09-.1.02-.01.12.02.19.07zm.2.15c.1.05.17.12.13.12-.06 0-.25-.1-.25-.13 0-.05.02-.04.12 0zm-21.48.04c0 .03-.1.13-.13.13-.04 0-.04-.06.01-.1.06-.07.12-.08.12-.03zm20.16.11c.14.06.2.11.15.11-.1 0-.39-.13-.39-.17 0-.03.03-.03.24.06zm4.81-.02c.02.04.16.15.21.16.1.02.07-.02-.06-.1-.12-.07-.16-.09-.15-.06zm-4.82.14c.17.07.18.08.18.17 0 .1-.04.1-.08 0-.03-.04-.05-.05-.07-.05-.04 0-.16-.06-.19-.1l-.05-.03c-.07 0-.12-.02-.12-.05 0-.04.17-.01.33.06zm.65.04c.07.07.01.08-.1.03-.1-.03-.1-.03-.08-.06.02-.02.14 0 .18.04zm.5 0c.02.04.02.05 0 .07-.05.07-.13 0-.1-.07.02-.06.06-.06.1 0zm.22.11c.06.03.07.09.02.1-.03 0-.15-.08-.15-.11s.07-.02.13.01zm3.48.58c.13.12.1.17-.03.05a.44.44 0 0 0-.1-.07l-.01-.03c0-.05.05-.03.14.05zm-2.59-.04.05.03c.08.01.21.19.18.22s.03.06.06.03l.07-.02c.07.02.04-.02-.06-.1a.37.37 0 0 1-.1-.1c0-.03-.2-.09-.2-.06zm-.83.17c0 .03.27.13.3.12.02 0-.03-.04-.1-.08-.14-.06-.21-.08-.2-.04zm3.27.06c.08.04.11.1.06.1-.03 0-.18-.1-.18-.12 0-.04.04-.03.12.02zm.5.03a10.29 10.29 0 0 1 .5.44c0 .06.03.09.07.08.05-.02.15.04.24.14.1.1-.04.13-.16.02a1.58 1.58 0 0 1-.36-.3 6.16 6.16 0 0 0-.34-.34c-.17-.14-.14-.17.04-.04zm-2.66.1c-.03.04-.03.04 0 .04a1 1 0 0 1 .23.11c.32.18.37.2.4.18.03-.04.02-.05-.1-.09a1.25 1.25 0 0 1-.34-.2c-.08-.08-.14-.09-.19-.03zm-.08.25c.19.1.21.17.04.1-.12-.04-.18-.08-.18-.11 0-.04.04-.04.14.01zm.39.24c.08.07.1.11.02.1a.72.72 0 0 1-.21-.15c0-.04.1 0 .19.05zm2.66.1c0 .02.06.11.1.13.04.03.06.01.03-.02a.09.09 0 0 1-.02-.06l-.04-.05c-.04-.02-.07-.02-.07 0zm-2.43.02c.1.05.43.34.42.35-.03.03-.22-.08-.44-.26-.11-.09-.1-.15.02-.09zm2.65.17v.01a.01.01 0 0 0 0-.01zm2.42.04c.07.12.19.26.33.41l.19.22a8.99 8.99 0 0 1 .4.49c.11.15.13.17.15.14.04-.07-.13-.33-.34-.53a.26.26 0 0 1-.07-.1c-.01-.03-.13-.16-.33-.36-.33-.31-.4-.36-.33-.27zm-3.74.5c0 .04.05.05.05.03l-.03-.03h-.02zm1.4.03c.07.04.11.1.1.11-.01.01-.05 0-.08-.03a.23.23 0 0 0-.09-.05c-.03 0-.07-.04-.06-.06.03-.02.08-.01.14.03zm.5.07a.63.63 0 0 0 .14.14 2.8 2.8 0 0 1 .57.59c.05.05.07.1.04.1-.01 0-.13-.1-.26-.24-.24-.23-.32-.3-.27-.2.05.09-.04.05-.17-.07-.08-.09-.09-.1-.07-.13.02-.03.01-.05-.04-.13-.08-.1-.09-.14-.03-.14.02 0 .06.03.09.08zm-2.46 0-.03.04c0 .02.24.2.27.2.1 0 .04-.1-.1-.2-.11-.07-.1-.06-.14-.04zm2.14.2c.07.08.08.12.03.1a.46.46 0 0 0-.06-.02c-.06-.01-.09-.05-.09-.1 0-.08.04-.07.12.02zm1.31.16c.16.16.22.23.22.26s.04.08.09.13c.05.05.08.1.07.1h-.03a.09.09 0 0 0-.06-.03l-.08-.06a10.86 10.86 0 0 0-.1-.14.27.27 0 0 1-.07-.1c0-.01-.03-.05-.07-.08a1.2 1.2 0 0 1-.26-.28c.02-.04.08 0 .29.2zm-3.06-.13c-.07.01-.05.04.08.11.07.04.07.04.04 0a.12.12 0 0 1-.03-.07c0-.05-.01-.06-.09-.04zm.19.22c0 .03.03.06.04.07.02 0 .06.04.1.08.08.07.11.06.08-.02-.04-.1-.24-.21-.22-.13zm2.87.5c.06.06.08.13.04.16-.03.01-.17-.13-.16-.17.02-.04.06-.03.12.02zm-1.45.01c-.01.02.26.3.37.38.04.03.07.07.07.09 0 .02.01.03.04.03.06 0 .06-.04.02-.08a6.03 6.03 0 0 1-.23-.23c-.19-.19-.25-.23-.27-.19zm1.65.26c.08.05.18.2.13.2-.04 0-.22-.2-.2-.21 0-.03.01-.03.07 0zm-.34.54c.05.06.1.12.1.14 0 .05-.03.05-.07 0l-.06-.04c-.03 0-.14-.16-.12-.18.02-.04.06-.01.15.08zm-.2 0c.03.02.06.05.06.07 0 .01.06.1.14.19.16.18.16.19.1.2a.14.14 0 0 0-.05.05c-.02.03-.04.02-.12-.09a.65.65 0 0 0-.14-.14c-.09-.05-.15-.25-.1-.3.04-.03.06-.03.12.02zm-1.14.02c0 .04.12.2.17.22.07.04.08.02 0-.06a1.82 1.82 0 0 1-.09-.12c-.03-.04-.08-.07-.08-.04zm3.28.24c.07.09.1.14.06.14-.05 0-.2-.17-.18-.21.02-.05.04-.04.12.07zm-.6 0c-.01 0 0 .04.02.06.14.2.25.38.27.44.05.15.06.17.12.22.13.11.12.07-.03-.17a5.17 5.17 0 0 1-.17-.3c-.15-.28-.18-.32-.22-.26zm2.92.1c0 .09.05.2.1.26.03.02.08.13.12.27.1.28.23.58.41.87.1.17.16.29.23.49a4.93 4.93 0 0 0 .34.77c0 .03.15.35.18.39.02.02.07.12.1.23l.27.72c.2.57.26.73.33 1a.77.77 0 0 0 .14.3h.02c.03 0 0-.13-.05-.17-.05-.04-.06-.16-.02-.22a11.88 11.88 0 0 1-.22-.86 4.17 4.17 0 0 0-.34-1 1.15 1.15 0 0 1-.1-.24.25.25 0 0 0-.05-.1 1.7 1.7 0 0 1-.11-.26 1.61 1.61 0 0 0-.1-.23.32.32 0 0 1-.05-.12 1.4 1.4 0 0 0-.13-.26 1.41 1.41 0 0 1-.12-.23c0-.05-.12-.3-.3-.6a9.04 9.04 0 0 1-.22-.41.78.78 0 0 0-.12-.19c-.03-.03-.05-.06-.05-.08s-.02-.04-.04-.04c-.07-.02-.13-.13-.1-.18.01-.04 0-.05-.05-.1l-.07-.07v.07zm-2.8.25c0 .02.02.07.04.06 0 0 0-.03-.02-.05-.01-.02-.03-.02-.03-.01zm.37.14c0 .06.06.16.1.16.04 0 .04 0-.03-.1-.05-.09-.07-.1-.07-.06zm-.39.14c.03.06.1.1.12.08 0 0-.1-.13-.13-.13l.01.05zm-1.8.07c.08.08.11.15.1.17-.04.03-.1-.01-.16-.1-.07-.12-.03-.17.06-.07zM4.7 9.7a.6.6 0 0 1-.14.24c-.03.01-.03-.01.03-.15.05-.11.11-.16.11-.09zm32.86.4c.08.1.09.14.04.15-.02 0-.05-.02-.09-.08-.1-.17-.07-.2.05-.07zM3.48 10.1c.01.07-.02.14-.06.15-.05 0-.06-.06-.03-.16.01-.06.07-.06.09 0zm36.94.3.02.01v-.01l-.02-.02v.02zm.09.14c.12.21.2.33.22.33.04 0 .04 0-.12-.23s-.2-.26-.1-.1zm-.3-.08s0 .05.03.1l.07.17.05.07c.03 0 .02-.09-.03-.13-.03-.03-.04-.06-.05-.13 0-.08-.04-.11-.07-.08zm-37.62.34-.12.16c-.04.07-.08.11-.1.11-.04 0-.07.06-.06.12.01.03 0 .07-.02.11-.12.25-.17.6-.05.4.05-.08.09-.1.1-.03a.9.9 0 0 1-.08.21c-.07.15-.08.2-.07.22a.16.16 0 0 1 .02.07c0 .06.05.04.12-.04.07-.08.08-.1.04-.12-.05-.01-.03-.09.04-.28l.1-.25a.24.24 0 0 1 .05-.1c.02 0 .02-.02 0-.03-.05-.03-.04-.16.04-.38.08-.27.08-.29-.01-.17zm38.22.23c0 .05 0 .1.04.17.08.16.07.24-.02.14a.3.3 0 0 1-.05-.1c0-.02-.02-.04-.03-.04l.04.17c.03.08.03.1 0 .14-.05.08.02.24.1.24.04 0 .04 0 0-.04-.07-.07-.09-.13-.06-.15a.18.18 0 0 0 .05-.08c.04-.1.26.26.58.94a.4.4 0 0 0 .06.1.75.75 0 0 0-.08-.22.16.16 0 0 1-.03-.06.24.24 0 0 0-.04-.09.23.23 0 0 1-.05-.13c0-.15-.12-.48-.17-.48-.08.02-.22-.32-.15-.35.05-.02-.04-.16-.1-.16l-.03-.03c-.03-.06-.05-.05-.06.03zm.11.78c-.01.02-.01.04.01.1.04.1.07.1.06 0-.01-.1-.04-.14-.07-.1zm.63.83c0 .03.08.22.17.43a5.54 5.54 0 0 1 .38 1.02c.03.02.07.13.12.33.15.56.18.64.24.58.04-.04.05-.17 0-.18-.08-.03-.24-.5-.18-.57.03-.03.03-.04-.06-.2a.69.69 0 0 1-.1-.37c0-.05-.02-.07-.06-.1-.03-.02-.05-.05-.05-.07l-.05-.08a.19.19 0 0 1-.04-.13c0-.06 0-.09-.03-.1-.06-.01-.16-.19-.14-.23.03-.06-.03-.2-.13-.3-.08-.07-.08-.07-.07-.03zm-1.38.33c-.03.03-.01.17.03.21a.18.18 0 0 1 .05.09c0 .02.02.04.03.04.02-.02.02-.02-.03-.19-.04-.14-.06-.17-.08-.15zM1.84 15.28c0 .14-.02.18-.06.18-.05 0-.05-.03 0-.18.03-.16.08-.17.06 0zm40.62-.07c-.01.02 0 .07.03.12a.92.92 0 0 1 .07.2c.03.13.03.14.08.12.05-.02.05-.02-.05-.27-.1-.23-.12-.24-.13-.17zm-1.76.33a.71.71 0 0 0 .08.16c.03.04.07.2.07.27 0 .03-.04.02-.08-.01-.02-.03-.04-.03-.06-.01-.06.05-.11-.15-.1-.39 0-.18.04-.18.1-.02zm1.7.65c.02.07.04.1.06.1.03 0 .03.01-.02-.11-.05-.13-.07-.13-.04 0zm.08.5c0 .04.03.06.06.08.1.04.12.08.12.14 0 .05.01.07.04.07s.03 0 .03.05c0 .1.03.06.06-.05a.61.61 0 0 1 .05-.15c.02-.04.02-.11-.02-.11l-.01.01c0 .04-.15.02-.17-.02-.02-.04-.07-.06-.07-.03 0 .01-.01.02-.03.02a.03.03 0 0 1-.02-.03l-.02-.02c-.01 0-.02.02-.02.05zm-41.63.04c-.02.05-.03.08-.01.1.02.05-.02.16-.09.21-.05.04-.06.06-.07.14-.01.14-.08.39-.2.8-.15.43-.2.7-.22.95a.92.92 0 0 1-.04.23.47.47 0 0 0-.02.18c0 .07 0 .18-.02.24a4.18 4.18 0 0 0-.04.24l-.03.26v.22c0 .07 0 .16-.03.25a6.69 6.69 0 0 0-.04 1.69c-.05.01-.05.04-.02.1.05.11.12-.05.1-.21a.66.66 0 0 1 .02-.24c.07-.25.1-.54.11-.96a3.77 3.77 0 0 1 .07-.71 4.16 4.16 0 0 0 .1-.75l.03-.34c.01-.13.04-.36.08-.54l.14-.72c.04-.21.1-.52.15-.68.1-.35.11-.61.03-.46zm40.3.06c.03.1.03.18 0 .2-.05.05-.08-.02-.08-.15 0-.17.03-.19.08-.05zM2.38 18.24l-.02.17c-.02.02-.02.04 0 .05.04.03.04.13-.02.74-.05.47-.05.5.02.56.07.07.07.06.06-.14-.01-.16-.01-.18.03-.22a.19.19 0 0 0 .03-.1c0-.02.02-.04.03-.05.03 0 .03-.03.02-.13-.01-.13 0-.17.06-.13.02.02.02.05.01.15v.25c.01.04 0 .07-.04.12-.05.07-.05.08-.04.23 0 .16 0 .16-.06.24-.05.07-.1.07-.1 0s-.06-.01-.07.07c-.02.13-.04.11-.05-.03-.02-.17-.06-.16-.08.02-.01.12-.04.15-.05.05a.14.14 0 0 0-.05-.1c-.04-.03-.03-.16.05-.66l.08-.55c.05-.36.07-.46.1-.49.02-.01.03-.05.03-.1l.01-.09c.03-.03.05.02.05.14zm40.7.16c-.05.1-.03.14.03.06.02-.03.03-.03.05 0 .03.05.04.04.05-.04.01-.06.01-.07-.01-.07a.18.18 0 0 1-.05-.01c-.02-.01-.04 0-.07.06zm-41.39.17c-.07.05-.08.1-.02.11.03.01.04.02.03.13 0 .07 0 .11.02.12.01 0 .05-.39.04-.4 0-.01-.04 0-.07.04zm.93.17c.02.07 0 .16-.05.16-.03 0-.03-.01-.02-.07.02-.14.05-.17.07-.09zm-.65.67c0 .17-.04.21-.1.12-.02-.04-.02-.05.03-.15.06-.15.08-.15.07.03zm.04.32c0 .08-.04.1-.05.03 0-.05 0-.1.03-.1.02 0 .02.03.02.07zm39.9.04c.01.03-.05.14-.08.14-.05 0-.05-.13 0-.15.06-.03.07-.03.08 0zM2 19.92c0 .02-.02.04-.03.04-.03 0-.04-.06-.02-.08.02-.02.05 0 .05.04zm.05.23c0 .05 0 .08-.02.08 0 0-.02-.03-.02-.08l.02-.08.02.08zm40.7-.05-.06.02c-.04 0-.06.03-.06.09 0 .01.01.02.04.02a.1.1 0 0 1 .07.04c.04.06.07.02.06-.08 0-.09-.03-.13-.06-.09zm-40.3.15c0 .05 0 .07-.03.07-.04 0-.06-.1-.02-.15.03-.04.05 0 .06.08zm.14.2c0 .14.01.26.02.27.03.02.04.3 0 .36a2.1 2.1 0 0 0-.04.43c-.03.34-.03.38-.07.4-.02.02-.03.05-.03.1a.41.41 0 0 1-.02.12c-.02.04-.01.06 0 .08.06.06.06.17.01.23-.04.04-.04.07-.06.2-.01.17-.03.24-.1.26-.02 0-.03.03-.03.06 0 .04-.01.06-.03.06-.02 0-.03-.03-.03-.12l-.01-.27-.01-.15.06.01.06.01v-.4c.01-.5-.03-.55-.05-.05-.01.36-.01.37-.06.35-.06-.02-.08-.07-.08-.17 0-.11-.01-.13-.05-.08-.02.02-.03.14-.03.46-.02.65-.08.45-.13-.41 0-.16-.02-.21-.04-.23-.03-.02-.08-.34-.05-.38.03-.04.05 0 .05.1 0 .16.03.15.04 0 .02-.17.04-.24.09-.27a.07.07 0 0 0 .03-.05c0-.02.01-.04.03-.05.01-.01.03-.05.03-.13 0-.1 0-.1.05-.12.04 0 .05-.02.05-.1 0-.05 0-.08.03-.1.04-.03.03-.33-.02-.33-.04 0-.07.1-.04.14.02.03.02.04-.02.06a.1.1 0 0 0-.04.08c0 .1-.03.22-.06.22-.04 0-.02-.36.03-.45l.06-.18c.05-.18.09-.21.07-.05-.01.11.03.18.07.11.03-.05.05 0 .05.11 0 .12.02.14.05.05 0-.04.03-.06.06-.07.06-.01.12-.18.09-.28-.02-.07 0-.13.05-.1.02 0 .02.05.02.26zm40.5-.1-.01.05c0 .05.04.03.05-.02 0-.03-.01-.05-.04-.02zm-.01.37c0 .04 0 .08.02.08l.02-.08c0-.05-.01-.08-.02-.08s-.02.03-.02.08zm-40.76.14c0 .02-.01.03-.03.03-.05 0-.07.05-.04.09.05.06.1.03.1-.07l-.01-.1-.02.05zm-.2.46c-.02.02.01.11.03.1.02 0 .02-.1 0-.1h-.03zm0 .33v.1a.22.22 0 0 1-.03.13c-.02.06-.02.08 0 .1a.09.09 0 0 1 .01.05c0 .04.03.05.06.03.02 0 .02-.02 0-.06-.02-.04-.02-.08 0-.2.02-.15 0-.2-.04-.15zm40.14 1.09c0 .18 0 .22-.05.22-.03 0-.02-.27 0-.35.04-.07.05-.02.05.13zm-39.86.63c0 .43 0 .49-.07.49-.04 0-.05-.1-.02-.13.04-.04.04-.06 0-.12-.02-.03-.02-.04 0-.07.04-.05.04-.12 0-.13-.08-.02-.1-.27-.04-.27.02 0 .03.03.04.1.02.16.04.17.06.04a.41.41 0 0 0-.02-.17c-.03-.1-.02-.17.02-.16.03 0 .03.05.03.42zm40.18-.11c0 .17 0 .19.03.17a.84.84 0 0 0 0-.34.49.49 0 0 0-.03.17zm.85.02c-.02.02-.04.03-.07.02-.05-.01-.06 0-.07.1-.02.14 0 .13.14-.1l.03-.06-.03.04zm-1.1.02c0 .1.1.18.15.13.03-.03.01-.07-.03-.05-.03 0-.04 0-.06-.05-.02-.06-.05-.08-.05-.03zm-40.27.32c.02.08.02.2 0 .22-.03 0-.04-.03-.06-.17 0-.12.04-.16.06-.05zm41.18.03h.02a.01.01 0 0 0 0-.01.01.01 0 0 0-.02 0zm-.09.29c-.1.22-.12.28-.07.28l.02-.04c.02-.05.07-.06.07-.02 0 .04.03.04.04 0 .1-.25.14-.4.1-.44-.03-.04-.04-.04-.16.22zm-41.54-.06c-.03.06.03.4.06.36.02-.01 0-.4-.02-.4l-.04.04zm1.15.5c.04.08.05.14.02.15-.02 0-.11-.16-.11-.21 0-.05.06-.01.09.05zm.13-.03c.02.04.01.15 0 .15-.03 0-.04-.05-.04-.12 0-.07.02-.08.04-.03zm-1.69.48a.3.3 0 0 0-.04.23l.04.2a.89.89 0 0 0 .05.2c.02.04.02.06 0 .1-.02.03 0 .1.1.46l.12.5c.03.1.06.11.04.03a7.58 7.58 0 0 1-.02-.23 2.23 2.23 0 0 0-.05-.29 2.06 2.06 0 0 1-.05-.26 6.55 6.55 0 0 0-.05-.35 7.82 7.82 0 0 1-.05-.36c-.04-.26-.04-.28-.09-.23zm1.82.3c.03.15.03.17-.02.15-.05-.02-.09-.29-.04-.29.02 0 .04.05.06.14zm-.1.1c.03.07.03.15 0 .15-.04 0-.1-.15-.08-.2.01-.04.04-.03.07.04zm.16.2c.04.05.04.21 0 .22-.06.01-.12-.16-.07-.21.03-.03.05-.03.07 0zm.1.41.08.3c.07.3.16.52.12.32l.01-.06c.06 0 .14.3.09.34-.02.02-.03.05-.02.15.01.2-.06.2-.08.01a.76.76 0 0 0-.05-.18 2.97 2.97 0 0 1-.2-.83c-.02-.1.03-.13.05-.05zm-.27 0a.02.02 0 0 1-.02 0h.02zm-.17.07a.77.77 0 0 0 .05.18.96.96 0 0 1 .04.17l.03.09c.03.04.02.06-.02.05-.06-.02-.2-.45-.17-.52.02-.05.08-.02.07.03zm.26.24.04.2c0 .1.02.15.05.19a.2.2 0 0 1 .05.1c0 .03.05.22.12.41.21.6.28.74.28.64l.02-.05c.04-.01.04-.05-.03-.19-.06-.12-.1-.26-.08-.26.03 0 .16.14.17.19 0 .03.02.05.03.06v-.02c-.05-.2-.03-.26.04-.13.07.12.06.28 0 .2-.04-.03-.03.03.01.12.05.1.07.1.08-.02.02-.1.05-.11.06 0 .01.1.06.06.06-.05 0-.03.02-.07.04-.1.03-.03.03-.04.02-.1-.02-.07 0-.13.02-.07.05.14.06.28.03.3-.01 0-.02.06-.02.13 0 .1 0 .12-.02.13-.02 0-.04.03-.05.05-.02.03-.03.04-.05.04-.02-.01-.04 0-.05.02-.02.02-.03.02-.06.01a.13.13 0 0 0-.06-.01l-.05-.04-.04-.04-.02.04c-.02.08.04.17.12.17a.2.2 0 0 1 .1.04c.04.02.07.03.09.02.02 0 .04 0 .07.05a.71.71 0 0 0 .1.12c.09.09.2.3.2.4 0 .07 0 .08.08.14.13.1.26.28.26.37 0 .07-.04.1-.06.04-.02-.03-.03-.03-.08 0-.03.02-.03.03.02.09.08.1.1.18.1.25-.02.05 0 .08.05.16.09.11.1.16.04.14-.04-.01-.03.02.04.12.04.06.04.07 0 .07s-.15-.16-.15-.23c0-.02-.02-.06-.05-.08-.06-.06-.12-.16-.1-.19l-.05-.1a.73.73 0 0 1-.1-.3c0-.05.05-.06.08-.02.01.02.03.03.05.02.04-.02.03-.04-.01-.07-.03-.01-.04-.03-.03-.08.02-.09-.03-.15-.05-.07v.07c.03.03.02.04-.08.05-.07.02-.18-.07-.21-.17 0-.02-.03-.04-.06-.04-.09 0-.37-.56-.45-.87-.05-.2-.12-.4-.15-.4s-.04.16-.01.26c.01.06.02.12.01.14 0 .04 0 .04.03 0 .04-.03.05-.03.1.19a6.35 6.35 0 0 0 .2.75c-.04.02-.09-.09-.26-.56-.05-.15-.07-.22-.06-.27 0-.05 0-.06-.03-.06-.04 0-.07-.05-.12-.2-.04-.12-.02-.16.04-.13.04.01.02-.03-.06-.14a.47.47 0 0 1-.08-.14l-.05-.21c-.04-.16-.05-.17-.02-.2.05-.03.03-.14-.03-.17a.24.24 0 0 1-.07-.1.36.36 0 0 0-.06-.1c-.05-.04-.02-.16.04-.14.04.01.03-.03-.04-.3a2.77 2.77 0 0 1-.06-.28c0-.06.14.11.17.2zm.86.76c0 .05-.02.1-.06.1-.02 0-.03-.02-.03-.05 0-.1.08-.13.1-.05zm-.06.24a.3.3 0 0 0 .05.09c.04.04.04.08 0 .08-.03 0-.1-.1-.1-.18-.02-.08.02-.08.05 0zm38.35.5c-.04.1-.03.25.02.25s.13-.23.1-.25a.16.16 0 0 1-.05-.03c-.04-.04-.05-.03-.07.02zm-.37.14-.02.16c0 .1-.08.27-.13.3-.04.02-.11.03-.11.01 0-.02.13-.4.16-.45.06-.1.12-.12.1-.02zm.37 1.13c-.06.08-.18.32-.16.33.03.02.08-.05.15-.19.06-.13.06-.2.01-.14zm-38.14.06c.07.08.1.19.07.19s-.15-.19-.13-.2c.01-.03.03-.02.06.01zm-.18.16c.05.12.05.15.02.15-.03 0-.1-.14-.1-.2 0-.08.05-.05.08.05zm.92.28.11.25c0 .06-.09-.05-.17-.2-.05-.1 0-.14.06-.05zm-1.53.26.12.25c.07.09.01-.13-.06-.24-.04-.06-.08-.06-.06 0zm-.57.56c0 .14.42 1 .46.96a6.64 6.64 0 0 0-.46-.96zm.52 1.16c0 .03.1.15.1.12 0-.04-.06-.15-.08-.15 0 0-.02 0-.02.03zm39.22.1a17.83 17.83 0 0 1-.45.8 6.9 6.9 0 0 1-.29.47c-.12.18-.16.24-.14.24a5.65 5.65 0 0 0 .88-1.5zm-37.95.14s0 .02-.02.02a.03.03 0 0 1-.03-.03c0-.03.04-.03.05 0zm4.48.25c.07.1.08.13.03.13-.06 0-.12-.06-.13-.14-.01-.1.03-.1.1.01zm.13.18.14.17a.8.8 0 0 0 .16.16c.08.04.17.14.29.29l.22.27c.1.11.1.14.11.2 0 .1.02.13.06.12.13-.04.15-.03.14.01 0 .03 0 .04.02.04.05-.01.22.16.22.2 0 .04.03.06.1.1.19.12.3.25.28.34-.01.03 0 .07.02.1.08.15 0 .1-.2-.08-.15-.15-.2-.19-.23-.19s-.05 0-.05-.02l.01-.03c.02 0 .03-.01.03-.03.01-.03 0-.03-.07-.03h-.08v-.07c0-.06-.02-.1-.1-.18-.11-.11-.15-.12-.1-.01.07.13.01.16-.06.03a.3.3 0 0 0-.09-.1 3.14 3.14 0 0 1-.71-.93c-.04-.1-.15-.26-.2-.28-.04-.02-.04-.05 0-.08s.05-.03.09 0zm30.59.66c.02.06 0 .08-.1.16s-.13.08-.1 0c.08-.16.17-.23.2-.16zm-.88.23c0 .03-.11.14-.14.14-.03 0-.03-.02.02-.1.05-.06.12-.09.12-.04zm.6.56c-.1.18-.1.17-.02.16.09-.02.1-.04.07-.08-.03-.03-.03-.04.02-.12.06-.09.07-.1.03-.1a.5.5 0 0 0-.1.14zm-28.6.69c.03.03.01.06-.03.04-.03-.01-.04-.1 0-.08a.1.1 0 0 1 .04.04zm.14.11.04.06c.01.02.03.04.06.04.06 0 .09.07.08.25a.7.7 0 0 1-.01.16c-.1 0-.26-.11-.2-.15.05-.04.05-.06-.07-.16-.15-.13-.15-.19 0-.13.03.02.03.01.03 0 0-.08 0-.09.07-.07zm.6.64c.25.2.52.65.44.7-.1.06-.38-.18-.33-.28.06-.1-.06-.3-.22-.38-.06-.04-.08-.06-.06-.09.03-.03.1 0 .18.05zm.73.28c.04.02.06.02.09 0h.12c.09-.05.12-.04.44.21a26.26 26.26 0 0 0 .58.46c0 .02.03.04.06.06.03.01.05.04.06.06.02.06.26.2.3.16.01-.01.03 0 .07.02.14.1 1.13.68 1.49.87.13.06.18.1.18.12 0 .02.02.05.05.06.05.02.09.08.06.1-.03.02-.26-.11-.27-.15-.01-.04-.03-.04-.12-.04-.12 0-.17-.03-.16-.1.02-.05-.16-.11-.35-.11-.16 0-.18-.01-.21-.1-.02-.03-.04-.06-.06-.06-.03 0-.03.07 0 .09.06.03.01.06-.07.05-.1-.02-.14-.04-.14-.1 0-.06-.18-.13-.23-.08-.03.02-.05.01-.27-.15a13.5 13.5 0 0 0-.42-.3c-.16-.12-.18-.14-.18-.19 0-.04-.03-.07-.15-.16a1.34 1.34 0 0 1-.21-.2c-.07-.1-.1-.11-.1-.06 0 .04-.02.05-.04.02l-.04-.02c-.04 0-.45-.24-.58-.34-.17-.13-.1-.22.1-.12zm-.71.15c.07.06.08.14.02.15-.04 0-.04.01-.03.06.01.02.03.03.07.02.04-.01.06 0 .1.05l.14.1c.09.04.1.07.02.08a.61.61 0 0 1-.31-.15.18.18 0 0 0-.09-.06c-.06-.02-.1-.06-.06-.1.02-.02.01-.03-.05-.08-.05-.04-.06-.06-.06-.13v-.08l.1.05c.05.02.12.07.15.1zm-1.84.26c.17.12.17.12.13.16-.06.06.06.17.13.11.05-.04.16.01.29.14.07.07.14.12.19.14.05.02.11.07.14.1.08.1.26.23.57.41a2.06 2.06 0 0 1 .56.39c.04 0 .34.15.43.23l.15.09c.04 0 .26.12.45.23.09.05.1.1 0 .09a.23.23 0 0 1-.08-.03.12.12 0 0 0-.08-.02c-.06.01-.5-.2-.58-.28a2.82 2.82 0 0 0-.6-.36c-.37-.19-.43-.21-.5-.18-.02.02-.05 0-.16-.07a5 5 0 0 0-.34-.2 1.16 1.16 0 0 1-.3-.2.45.45 0 0 0-.13-.1c-.03 0-.23-.12-.36-.23-.2-.17-.3-.45-.1-.3.09.06.1.03.06-.08-.07-.13-.02-.15.13-.04zm3.3.05c.02.07.12.17.15.15.05-.05.02-.11-.06-.15l-.1-.05.02.05zm.28.15c0 .03.06.06.08.05v-.04c-.03-.03-.08-.04-.08-.01zm-3.32.18c-.03.02-.01.03.08.08.11.05.13.03.03-.04-.1-.06-.1-.06-.11-.04zm27.82.27c0 .04-.14.23-.17.23-.05 0-.03-.07.04-.17.08-.09.13-.12.13-.06zm-25.99 1.04c.04.03.03.08 0 .08-.05 0-.11-.06-.1-.09.02-.02.08-.02.1 0zm.18.17c.13.06.18.12.1.15-.03 0-.23-.12-.23-.17-.01-.04-.02-.04.13.02zm23.7 1.36c-.06.04-.08.07-.05.07l.02.04c0 .03-.43.4-.47.4v.04c0 .02 0 .04-.02.04l-.02.06c0 .03-.03.07-.11.13a2.13 2.13 0 0 0-.16.14c-.04.04-.06.05-.08.04-.04-.01-.08.02-.07.06.02.04.08.03.27-.07.12-.06.2-.08.22-.08.03.01.05 0 .06-.04.01-.04.06-.09.14-.14.23-.17.4-.41.2-.29-.07.04-.1.04-.1 0s.1-.12.23-.21c.07-.05.1-.08.09-.11a.32.32 0 0 1 0-.08c.02-.04-.09-.04-.16 0zm-2.88.77-.03.04a1 1 0 0 0-.11.08c-.08.06-.13.06-.1 0 .02-.06.24-.17.24-.12zm-17.46.6c.1.06.11.1.03.1-.07 0-.22-.08-.22-.12-.01-.05.07-.03.2.03zm10.14 1.64c.02.03-.04.07-.11.07-.09 0-.1-.03-.02-.07.07-.03.11-.03.13 0z" clip-rule="evenodd"/></svg>