<svg xmlns="http://www.w3.org/2000/svg" width="1" height="185" fill="none" preserveAspectRatio="none"><path fill="#fff" fill-rule="evenodd" d="M1 10.6A304.7 304.7 0 0 0 .7 8H.5V9l.1 1.8V14c0 1.7 0 1.8-.2 1.6a60.7 60.7 0 0 0 0-1.1H.1a18.7 18.7 0 0 0 0 .7V17.1a11.4 11.4 0 0 0 0 2.6h.2a23.8 23.8 0 0 1 0-.6v-1.4c0-1.4 0-1.2.2-1V19l.1.3c0 .3 0 .3.2-.2l.1-.5v-8.1zm0 15.3a6.6 6.6 0 0 1-.1-.8H.8v1.2c.2.2.2 0 .2-.4zm0 3.7c-.2 0-.3-.5-.4-1.2V28H.3a22.3 22.3 0 0 1 0-.4 2.6 2.6 0 0 0-.1-.4L0 29.2l.4-.3v.7l.1.7v.5l-.1.6v-1a70.7 70.7 0 0 0-.1-1 1.4 1.4 0 0 0 0 .1l-.2.5v5.8a3 3 0 0 0 0 .8v1.2c.2-.3.3-.3.6 0v.2l.2-3.6a1.5 1.5 0 0 1 0-.2 17.5 17.5 0 0 0-.1-1 1.4 1.4 0 0 0 0 .1l-.2.3v3.2l-.1-.6-.2-.5v-1.5c0-1.7 0-1.6.2-1.4 0 .2.2.3.2.3l.1-1.3.1-1.2v-1zm-.2 10a54.6 54.6 0 0 0-.1-1V40l-.1 1.2v.3c0 .5 0 .6-.2.6-.1 0-.2.1-.2.6v.1l.1.8v.5l-.1.5.2.2a54.6 54.6 0 0 0 .3-.5c.2.7.2.6.2.3v-5.1zm.1 5.8c-.1-.3 0-.4-.2.6v.3l-.3.4-.3.5.2.6.3.6v6.2a2.8 2.8 0 0 0-.1.1v.1c.3 1.3.3 2 .2 4.1v.7c0 .4 0 .4.2-.1L1 59v-3.8a9.7 9.7 0 0 1 0-1.5v-3a6.7 6.7 0 0 1 0-1.2v-4.1zM1 62a172.3 172.3 0 0 0 0 4.5L1 66v-3.8l-.1-.4zm0 67a680.3 680.3 0 0 0 0-2.4 1.1 1.1 0 0 0-.2 0c-.2 0-.2 0-.1.6V132.3c0 1.8 0 1.9-.2 1.7a74.6 74.6 0 0 0-.2-1.2H.1v.1a18.4 18.4 0 0 0 0 1.4v1.3a12.3 12.3 0 0 0 0 2.5h.2V136c0-1.3 0-1.2.2-1v2.5l.1.3c0 .3 0 .3.2-.3l.1-.5V129zm0 15.4a4.5 4.5 0 0 1 0-.5v-.4l-.2.3v.6l.3.5v-.5zm0 3.7a.3.3 0 0 1-.1-.1l-.2-1.2v-.2H.3a32.2 32.2 0 0 1 0-.4l-.1-.3L0 147v.6l.2-.2c.2-.2.2-.3.3.6v1.2l-.1.6v-1a61.2 61.2 0 0 0-.1-1l-.2.7v7.7c.2-.4.3-.3.6.1.1.1.1.3.2-1.3v-2.2a.8.8 0 0 1 0-.2 29 29 0 0 0-.2-.9 1.7 1.7 0 0 1-.1.3v.2a490 490 0 0 0 0 3L.4 154v-3a.5.5 0 0 1 .2.2l.2.2.1-1.2.1-1.2v-1zm0 9.8a29.6 29.6 0 0 0-.2-.8v1.3l-.1 1.3v.3c0 .5 0 .5-.2.6-.1 0-.2 0-.2.5v.2l.1.8v.5l-.1.5.2.1a74 74 0 0 0 .3-.4c.2.6.2.6.2.3l.1-.3v-4l-.2-.9zm0 6c-.1-.3 0-.4-.2.5 0 .5 0 .4-.4.9a7.8 7.8 0 0 0-.3.4l.3.6.3.6v6.2a1.4 1.4 0 0 0-.1.1v.2c.3 1.2.3 1.8.2 4v.7c0 .4 0 .4.2-.2l.1-.4v-3.9a12 12 0 0 1 0-1.6v-2.7a6.9 6.9 0 0 1 0-1.3v-4.1zm0 16.5a4.3 4.3 0 0 0-.1-.4 100.2 100.2 0 0 0 0 4.9l.2-.3v-3.9l-.1-.3zm0-176a3.5 3.5 0 0 1-.2-.4l.1-.7.1-.7v-.8C.7.7.7.8.6 1V1.9l-.2 1v.6a11.8 11.8 0 0 0 .3 2.9l.1-1V4.4zm0 118.4a3.7 3.7 0 0 1-.2-.4l.1-.7.1-.7v-.8c-.1-1-.1-.9-.2-.8v.2a3.2 3.2 0 0 0 0 .3v1l-.2.5v.6c0 1 .2 2.7.3 2.8l.1-.8a85.3 85.3 0 0 1 0-1.2zm0-95.9v.4l-.2.4v.5a20 20 0 0 0 .1.3L1 28v-1.2zm0 118.4v.4l-.2.4v1.1l.1-.3.1-.4v-1.2zM.8 98.7v-4.4c-.2-1-.3-1.4-.5-1.5v-.6l.3-.5v-4.2l-.1-.1v-.1a24 24 0 0 1 0-2.2c0-1.2 0-1.7.2-2.4V81L.6 80l-.1-1c.2-1 .2-1.6 0-5.3v-2.4l-.2-1.1.1-.5V69A78 78 0 0 0 .3 68v-1.1l-.1-1c0-.1-.1-.2-.2-.1v20c.1 0 .1.2 0 .4v7.3H.3L0 94l-.1.4v9.7l.2.2c.1.1.2.4.2 1.1v.5l-.1.4-.2.4v-.6l.1-.5v-1.1a3.2 3.2 0 0 1-.1 0l-.1.1v4h.1l.1-.4v-.3h.2v1.6H.3l-.2.1v2.1l.1.4c.2.5.2.5 0 .6H0v.9H.3l.1-.4v.4a.4.4 0 0 0 0 .1c0 .3-.1.4-.2.3-.1 0-.2 0-.2.7v.5l.1.2.1.2v.4a7.4 7.4 0 0 0 0 .5 49.4 49.4 0 0 0 .6 1.6V104.5l-.2-.9.3-1.8v-.2a6 6 0 0 1-.2-1.5l.1-1a3 3 0 0 0 0-.4zm0-76-.1-.2v.7-.4zm0 1.5-.1-.4v.8-.4zm0 117-.1-.3v.7-.5zm0 1.4-.1-.4v.7-.3zM.4 51.3a2.2 2.2 0 0 0 0-.1l-.2.5-.1.2v.3l.2.3.1-1a.4.4 0 0 0 0-.2zm0 118.3-.1.2-.2.4v.4l.2.3v-.5l.1-.6v-.2zM.5 56a.7.7 0 0 0-.1 0l-.1.1v.3h.2V56zm0 118.3a5.6 5.6 0 0 0-.2.2v.2h.2v-.4zm-.2-15.2a7.2 7.2 0 0 0-.1-.3v.7H.4l-.2-.4zm0-118.4c-.2-.4-.2-.4-.2 0v.4h.2c.2 0 .2 0 0-.4zm.1 18.5v.1a26.8 26.8 0 0 1 0 1v-1.1zm0 118.4v.1a24.2 24.2 0 0 1 0 .5v-.6zM.4 0C0 0 0 .1 0 .7V2l.2.6.1.6v-.8l.1-.8V0zm0 118.4a.4.4 0 0 1-.1 0c-.2 0-.3.2-.3.7v1.3l.2.6.1.6a53.9 53.9 0 0 0 .1-1.6v-1.6zm0-94.8L.2 23l.1-.3V20.8a7.5 7.5 0 0 0-.2-.5v4c.1.4.2.5.3.1v-.8zM.4 142l-.2-.6v-.2l.1-.1V139.6l-.2-1v4c0 .5.2.5.3.3v-.9zm0-102.7V39a9 9 0 0 0-.3.7H.4v-.5zm0 6.3a58.8 58.8 0 0 0 0-.4l-.1.1-.1.1.2.8v-.6zm0 112v-.4l-.3 1H.4v-.5zm0 6.3a6.2 6.2 0 0 0 0-.3l-.2.2.2.7V164zM.4 3.1.2 4.3.1 5.8v4.1-.5l.1-1.6L.4 3zm0 118.4-.2 1.2-.1 1.5v2a56.5 56.5 0 0 0 .3-4.7zm0-58-.2.3v.6l.2.6a11.2 11.2 0 0 0 0-1.5zM.4 182l-.1.1-.1.2a23.6 23.6 0 0 0 .2 1.2V182zm-.2-169a3.5 3.5 0 0 0-.1-.2v.2l.2 1.2V13zm0 118.4c-.1-.3-.1-.3-.2 0l.1.6.2.6V131.3zM.1 61.4l-.1-.2v3.4l.1.2v-3.4zm0 119.4L0 184v.2l.1.2v-3.6zM0 59l-.1.2c0 .4 0 .3 0 0V59zm0 119.5-.1.3V178.5z" clip-rule="evenodd"/></svg>